%TF.GenerationSoftware,KiCad,Pcbnew,9.0.1*%
%TF.CreationDate,2025-04-24T12:06:56+02:00*%
%TF.ProjectId,crimpdeq,6372696d-7064-4657-912e-6b696361645f,rev?*%
%TF.SameCoordinates,Original*%
%TF.FileFunction,Copper,L2,Bot*%
%TF.FilePolarity,Positive*%
%FSLAX46Y46*%
G04 Gerber Fmt 4.6, Leading zero omitted, Abs format (unit mm)*
G04 Created by KiCad (PCBNEW 9.0.1) date 2025-04-24 12:06:56*
%MOMM*%
%LPD*%
G01*
G04 APERTURE LIST*
G04 Aperture macros list*
%AMRoundRect*
0 Rectangle with rounded corners*
0 $1 Rounding radius*
0 $2 $3 $4 $5 $6 $7 $8 $9 X,Y pos of 4 corners*
0 Add a 4 corners polygon primitive as box body*
4,1,4,$2,$3,$4,$5,$6,$7,$8,$9,$2,$3,0*
0 Add four circle primitives for the rounded corners*
1,1,$1+$1,$2,$3*
1,1,$1+$1,$4,$5*
1,1,$1+$1,$6,$7*
1,1,$1+$1,$8,$9*
0 Add four rect primitives between the rounded corners*
20,1,$1+$1,$2,$3,$4,$5,0*
20,1,$1+$1,$4,$5,$6,$7,0*
20,1,$1+$1,$6,$7,$8,$9,0*
20,1,$1+$1,$8,$9,$2,$3,0*%
%AMFreePoly0*
4,1,31,0.703661,0.741839,0.724803,0.724803,1.359803,0.089803,1.394098,0.026996,1.388993,-0.044382,1.359803,-0.089803,0.724803,-0.724803,0.661996,-0.759098,0.635000,-0.762000,0.000000,-0.762000,-0.012495,-0.758331,-0.074689,-0.758331,-0.221197,-0.729189,-0.359204,-0.672024,-0.483408,-0.589034,-0.589034,-0.483408,-0.672024,-0.359204,-0.729189,-0.221197,-0.758331,-0.074689,-0.758331,0.074689,
-0.729189,0.221197,-0.672024,0.359204,-0.589034,0.483408,-0.483408,0.589034,-0.359204,0.672024,-0.221197,0.729189,-0.074689,0.758331,-0.016866,0.758331,0.000000,0.762000,0.635000,0.762000,0.703661,0.741839,0.703661,0.741839,$1*%
%AMFreePoly1*
4,1,31,0.012495,0.758331,0.074689,0.758331,0.221197,0.729189,0.359204,0.672024,0.483408,0.589034,0.589034,0.483408,0.672024,0.359204,0.729189,0.221197,0.758331,0.074689,0.758331,-0.074689,0.729189,-0.221197,0.672024,-0.359204,0.589034,-0.483408,0.483408,-0.589034,0.359204,-0.672024,0.221197,-0.729189,0.074689,-0.758331,0.016866,-0.758331,0.000000,-0.762000,-0.635000,-0.762000,
-0.703661,-0.741839,-0.724803,-0.724803,-1.359803,-0.089803,-1.394098,-0.026996,-1.388993,0.044382,-1.359803,0.089803,-0.724803,0.724803,-0.661996,0.759098,-0.635000,0.762000,0.000000,0.762000,0.012495,0.758331,0.012495,0.758331,$1*%
%AMFreePoly2*
4,1,24,0.635000,0.000000,0.631942,0.000000,0.631942,-0.062241,0.607657,-0.184331,0.560020,-0.299337,0.490862,-0.402840,0.402840,-0.490862,0.299337,-0.560020,0.184331,-0.607657,0.062241,-0.631942,-0.062241,-0.631942,-0.184331,-0.607657,-0.299337,-0.560020,-0.402840,-0.490862,-0.490862,-0.402840,-0.560020,-0.299337,-0.607657,-0.184331,-0.631942,-0.062241,-0.631942,0.000000,-0.635000,0.000000,
-0.635000,1.905000,0.000000,1.270000,0.635000,1.905000,0.635000,0.000000,0.635000,0.000000,$1*%
%AMFreePoly3*
4,1,24,0.635000,1.270000,0.635000,0.000000,0.631942,0.000000,0.631942,-0.062241,0.607657,-0.184331,0.560020,-0.299337,0.490862,-0.402840,0.402840,-0.490862,0.299337,-0.560020,0.184331,-0.607657,0.062241,-0.631942,-0.062241,-0.631942,-0.184331,-0.607657,-0.299337,-0.560020,-0.402840,-0.490862,-0.490862,-0.402840,-0.560020,-0.299337,-0.607657,-0.184331,-0.631942,-0.062241,-0.631942,0.000000,
-0.635000,0.000000,-0.635000,1.270000,0.000000,1.905000,0.635000,1.270000,0.635000,1.270000,$1*%
G04 Aperture macros list end*
%TA.AperFunction,ComponentPad*%
%ADD10R,1.050000X1.500000*%
%TD*%
%TA.AperFunction,ComponentPad*%
%ADD11O,1.050000X1.500000*%
%TD*%
%TA.AperFunction,ComponentPad*%
%ADD12FreePoly0,0.000000*%
%TD*%
%TA.AperFunction,ComponentPad*%
%ADD13RoundRect,0.381000X-0.381000X-0.381000X0.381000X-0.381000X0.381000X0.381000X-0.381000X0.381000X0*%
%TD*%
%TA.AperFunction,ComponentPad*%
%ADD14C,1.524000*%
%TD*%
%TA.AperFunction,ComponentPad*%
%ADD15FreePoly1,0.000000*%
%TD*%
%TA.AperFunction,ComponentPad*%
%ADD16FreePoly2,90.000000*%
%TD*%
%TA.AperFunction,ComponentPad*%
%ADD17FreePoly3,90.000000*%
%TD*%
%TA.AperFunction,ComponentPad*%
%ADD18O,1.050000X2.100000*%
%TD*%
%TA.AperFunction,ComponentPad*%
%ADD19O,1.000000X2.000000*%
%TD*%
%TA.AperFunction,ViaPad*%
%ADD20C,0.600000*%
%TD*%
%TA.AperFunction,Conductor*%
%ADD21C,0.406400*%
%TD*%
%TA.AperFunction,Conductor*%
%ADD22C,0.508000*%
%TD*%
%TA.AperFunction,Conductor*%
%ADD23C,0.609600*%
%TD*%
%TA.AperFunction,Conductor*%
%ADD24C,0.254000*%
%TD*%
%TA.AperFunction,Conductor*%
%ADD25C,0.152400*%
%TD*%
G04 APERTURE END LIST*
D10*
%TO.P,Q1,1,E*%
%TO.N,+3V3*%
X139460000Y-80500000D03*
D11*
%TO.P,Q1,2,B*%
%TO.N,Net-(Q1-B)*%
X140730000Y-80500000D03*
%TO.P,Q1,3,C*%
%TO.N,E+*%
X142000000Y-80500000D03*
%TD*%
D12*
%TO.P,U4,1,3V3*%
%TO.N,+3V3*%
X130660000Y-58685000D03*
D13*
%TO.P,U4,2,GND*%
%TO.N,GND*%
X131160000Y-62185000D03*
D14*
%TO.P,U4,3,A1/GPIO1*%
%TO.N,IO1_ADC*%
X130660000Y-65185000D03*
%TO.P,U4,4,A4/GPIO4*%
%TO.N,IO4_DATA*%
X150660000Y-65185000D03*
%TO.P,U4,5,A5/GPIO5*%
%TO.N,IO5_SCK*%
X150660000Y-67685000D03*
%TO.P,U4,6,TXD/GPIO21*%
%TO.N,IO21_TX*%
X150660000Y-56185000D03*
%TO.P,U4,7,RXD/GPIO20*%
%TO.N,IO20_RX*%
X150660000Y-58685000D03*
%TO.P,U4,8,USB_D-/GPIO18*%
%TO.N,USB_D-*%
X150660000Y-93185000D03*
%TO.P,U4,9,USB_D+/GPIO19*%
%TO.N,USB_D+*%
X150660000Y-95685000D03*
D15*
%TO.P,U4,10,VBUS*%
%TO.N,VBUS*%
X150660000Y-86185000D03*
%TO.P,U4,11,VBAT*%
%TO.N,+BATT*%
X150660000Y-83685000D03*
D14*
%TO.P,U4,12,A+*%
%TO.N,A+*%
X150660000Y-72685000D03*
%TO.P,U4,13,A-*%
%TO.N,A-*%
X150660000Y-70185000D03*
D13*
%TO.P,U4,14,E-*%
%TO.N,GND*%
X131160000Y-70685000D03*
D14*
%TO.P,U4,15,E+*%
%TO.N,E+*%
X130660000Y-68185000D03*
D16*
%TO.P,U4,16,BAT-*%
%TO.N,GND*%
X150820000Y-102450000D03*
D17*
%TO.P,U4,17,BAT+*%
%TO.N,+BATT*%
X150820000Y-100185000D03*
%TD*%
D18*
%TO.P,J2,S1,SHELL_GND*%
%TO.N,Net-(J2-SHELL_GND-PadS1)*%
X136400000Y-103020000D03*
D19*
%TO.P,J2,S2,SHELL_GND*%
X136400000Y-107200000D03*
%TO.P,J2,S3,SHELL_GND*%
X145040000Y-107200000D03*
D18*
%TO.P,J2,S4,SHELL_GND*%
X145040000Y-103020000D03*
%TD*%
D20*
%TO.N,GND*%
X151400000Y-53200000D03*
X137600000Y-54800000D03*
X149000000Y-105000000D03*
X130600000Y-74800000D03*
X148400000Y-55400000D03*
X132200000Y-99800000D03*
X148800000Y-93200000D03*
X151400000Y-50600000D03*
X146400000Y-85800000D03*
X143200000Y-54800000D03*
X143800000Y-77000000D03*
X147800000Y-91400000D03*
X141800000Y-98400000D03*
X139800000Y-59400000D03*
X140000000Y-54800000D03*
X150400000Y-52800000D03*
X130600000Y-78200000D03*
X148800000Y-91800000D03*
X138800000Y-62000000D03*
X132200000Y-52000000D03*
X145999905Y-66399999D03*
X141800000Y-57400000D03*
X148000000Y-105000000D03*
X140266841Y-95066841D03*
X151400000Y-54400000D03*
X145200000Y-60400000D03*
X137800000Y-67800000D03*
X138200000Y-87600000D03*
X139800000Y-57400000D03*
X138400000Y-54800000D03*
X136000000Y-54800000D03*
X136000000Y-58000000D03*
X148800000Y-76800000D03*
X142800000Y-66400000D03*
X140600000Y-84600000D03*
X142400000Y-54800000D03*
X148400000Y-52800000D03*
X151400000Y-51800000D03*
X145200000Y-61800000D03*
X131200000Y-52000000D03*
X143600000Y-66400000D03*
X148000000Y-99600000D03*
X133800000Y-93600000D03*
X146600000Y-71000000D03*
X151200000Y-98200000D03*
X145600000Y-54800000D03*
X144600000Y-84000000D03*
X141600000Y-89000000D03*
X136600000Y-61400000D03*
X133000000Y-67600000D03*
X132200000Y-102000000D03*
X140800000Y-54800000D03*
X139400000Y-72800000D03*
X150400000Y-79600000D03*
X143666841Y-99933159D03*
X141800000Y-59400000D03*
X146600000Y-69400000D03*
X130200000Y-57000000D03*
X134400000Y-102800000D03*
X133000000Y-71000000D03*
X130200000Y-52000000D03*
X142000000Y-91200000D03*
X131000000Y-72600000D03*
X139200000Y-54800000D03*
X136800000Y-54800000D03*
X134400000Y-103800000D03*
X135600000Y-93600000D03*
X150800000Y-61200000D03*
X141000000Y-87600000D03*
X140800000Y-65800000D03*
X141600000Y-54800000D03*
X145200000Y-58600000D03*
X144800000Y-54800000D03*
X144200000Y-85800000D03*
X148000000Y-66400000D03*
X149800000Y-61200000D03*
X136000000Y-56400000D03*
X138800000Y-66800000D03*
X136800000Y-101200000D03*
X133400000Y-52000000D03*
X133000000Y-73200000D03*
X150400000Y-78000000D03*
X148600000Y-59400000D03*
X145600000Y-83600000D03*
X136000000Y-57200000D03*
X137000000Y-58600000D03*
X133200000Y-62800000D03*
X143205659Y-92205659D03*
X144000000Y-54800000D03*
X141200000Y-86200000D03*
X138200000Y-86200000D03*
X134400000Y-76600000D03*
X140800000Y-71800000D03*
X148600000Y-60400000D03*
X148400000Y-54000000D03*
X149400000Y-52800000D03*
X144376651Y-68780533D03*
X150400000Y-81200000D03*
X136000000Y-55600000D03*
X132800000Y-65400000D03*
X135800000Y-101200000D03*
X130200000Y-56000000D03*
X144950485Y-101200000D03*
X147000000Y-66400000D03*
%TO.N,+3V3*%
X147800000Y-73400000D03*
X134200000Y-67600000D03*
X135600000Y-76600000D03*
%TO.N,VBUS*%
X142600000Y-93200000D03*
X138800000Y-97600000D03*
X147800000Y-96915358D03*
%TO.N,+BATT*%
X144800000Y-76400000D03*
X140200000Y-98200000D03*
X142400000Y-96400000D03*
X134934026Y-98354000D03*
X138600000Y-67800000D03*
X142093277Y-76236706D03*
X143400000Y-98600000D03*
X133000000Y-95600000D03*
%TO.N,E+*%
X135600000Y-72000000D03*
%TO.N,IO9_BOOT*%
X145000000Y-66000000D03*
X147400000Y-72000000D03*
%TO.N,USB_D-*%
X148906346Y-73311999D03*
X146556239Y-96334358D03*
X148981635Y-77579110D03*
X148400000Y-71600000D03*
X143185641Y-96550905D03*
X148800000Y-66400000D03*
X149291580Y-88691580D03*
%TO.N,Net-(D8-A)*%
X135000000Y-100600000D03*
X143800000Y-101000000D03*
%TO.N,USB_D+*%
X148800000Y-89400000D03*
X148403630Y-78600000D03*
X150054000Y-74089310D03*
X149800000Y-97800000D03*
X143533159Y-97666841D03*
X149600000Y-71600000D03*
X149600000Y-66400000D03*
%TO.N,A+*%
X146600000Y-72800000D03*
%TO.N,IO1_ADC*%
X133200000Y-64000000D03*
%TO.N,IO4_DATA*%
X139600000Y-68200000D03*
%TD*%
D21*
%TO.N,GND*%
X148800000Y-95800000D02*
X148800000Y-93200000D01*
X148200000Y-91800000D02*
X147800000Y-91400000D01*
X148800000Y-93200000D02*
X148800000Y-91800000D01*
X151200000Y-98200000D02*
X148800000Y-95800000D01*
X148800000Y-91800000D02*
X148200000Y-91800000D01*
D22*
%TO.N,+3V3*%
X146600000Y-74400000D02*
X147600000Y-73400000D01*
D23*
X134200000Y-62225000D02*
X130660000Y-58685000D01*
D22*
X146600000Y-74400000D02*
X145220485Y-74400000D01*
D23*
X135600000Y-76600000D02*
X135600000Y-76640000D01*
D22*
X139460000Y-80160485D02*
X139460000Y-80500000D01*
X147600000Y-73400000D02*
X147800000Y-73400000D01*
X139366318Y-80500000D02*
X139460000Y-80500000D01*
D23*
X134200000Y-67600000D02*
X134200000Y-62225000D01*
D22*
X145220485Y-74400000D02*
X139460000Y-80160485D01*
D23*
X135600000Y-76640000D02*
X139460000Y-80500000D01*
D22*
%TO.N,VBUS*%
X142600000Y-93800000D02*
X142600000Y-93400000D01*
D23*
X147800000Y-96439959D02*
X146360041Y-95000000D01*
D22*
X142000000Y-94400000D02*
X142600000Y-93800000D01*
D23*
X143200000Y-95000000D02*
X142600000Y-94400000D01*
X142600000Y-94400000D02*
X142600000Y-93400000D01*
X146360041Y-95000000D02*
X143200000Y-95000000D01*
X146360041Y-95000000D02*
X146360041Y-90484959D01*
X147800000Y-96915358D02*
X147800000Y-96439959D01*
X146360041Y-90484959D02*
X150660000Y-86185000D01*
D22*
X138800000Y-97600000D02*
X142000000Y-94400000D01*
X142000000Y-94400000D02*
X142600000Y-94400000D01*
D23*
X142600000Y-93400000D02*
X142600000Y-93200000D01*
D22*
%TO.N,+BATT*%
X133000000Y-95600000D02*
X137400000Y-95600000D01*
X140200000Y-98200000D02*
X140046000Y-98354000D01*
D24*
X138600000Y-68400000D02*
X142093277Y-71893277D01*
D22*
X143400000Y-98600000D02*
X142400000Y-97600000D01*
X142400000Y-97600000D02*
X142400000Y-96400000D01*
X140046000Y-98354000D02*
X134934026Y-98354000D01*
D24*
X142093277Y-71893277D02*
X142093277Y-76236706D01*
D22*
X150660000Y-83685000D02*
X144800000Y-77825000D01*
X144800000Y-77825000D02*
X144800000Y-76400000D01*
X139000000Y-94000000D02*
X140345000Y-94000000D01*
D24*
X138600000Y-67800000D02*
X138600000Y-68400000D01*
D22*
X137400000Y-95600000D02*
X139000000Y-94000000D01*
X140345000Y-94000000D02*
X150660000Y-83685000D01*
D21*
%TO.N,E+*%
X135600000Y-72000000D02*
X131785000Y-68185000D01*
X131785000Y-68185000D02*
X130660000Y-68185000D01*
D25*
%TO.N,IO9_BOOT*%
X147800000Y-71200000D02*
X147800000Y-71600000D01*
X145000000Y-67400000D02*
X145000000Y-66000000D01*
X147800000Y-69000000D02*
X146600000Y-67800000D01*
X147800000Y-71600000D02*
X147400000Y-72000000D01*
X147800000Y-71200000D02*
X147800000Y-69000000D01*
X146600000Y-67800000D02*
X145400000Y-67800000D01*
X145400000Y-67800000D02*
X145000000Y-67400000D01*
%TO.N,USB_D-*%
X150660000Y-93185000D02*
X150660000Y-90060000D01*
X149376200Y-73781853D02*
X149376200Y-77184545D01*
X150660000Y-90060000D02*
X149291580Y-88691580D01*
X148906346Y-73311999D02*
X149376200Y-73781853D01*
X146339692Y-96550905D02*
X146556239Y-96334358D01*
X143185641Y-96550905D02*
X146339692Y-96550905D01*
X148800000Y-66400000D02*
X148800000Y-71200000D01*
X148800000Y-71200000D02*
X148400000Y-71600000D01*
X149376200Y-77184545D02*
X148981635Y-77579110D01*
D22*
%TO.N,Net-(D8-A)*%
X141800000Y-99800000D02*
X143000000Y-101000000D01*
X143000000Y-101000000D02*
X143800000Y-101000000D01*
X135000000Y-100600000D02*
X135800000Y-99800000D01*
X135800000Y-99800000D02*
X141800000Y-99800000D01*
D25*
%TO.N,USB_D+*%
X149376200Y-89976200D02*
X148800000Y-89400000D01*
X148403630Y-78600000D02*
X148985130Y-78600000D01*
X149600000Y-71600000D02*
X149600000Y-66400000D01*
X150660000Y-95685000D02*
X149376200Y-94401200D01*
X143666318Y-97800000D02*
X149800000Y-97800000D01*
X149376200Y-94401200D02*
X149376200Y-89976200D01*
X143533159Y-97666841D02*
X143666318Y-97800000D01*
X150054000Y-77531130D02*
X150054000Y-74089310D01*
X148985130Y-78600000D02*
X150054000Y-77531130D01*
D22*
%TO.N,Net-(J2-SHELL_GND-PadS1)*%
X136400000Y-103020000D02*
X136400000Y-107200000D01*
X145040000Y-103020000D02*
X145040000Y-107200000D01*
D24*
%TO.N,A+*%
X146600000Y-72800000D02*
X146715000Y-72685000D01*
X146715000Y-72685000D02*
X150660000Y-72685000D01*
%TO.N,IO1_ADC*%
X133200000Y-64000000D02*
X132015000Y-65185000D01*
X132015000Y-65185000D02*
X130660000Y-65185000D01*
%TO.N,IO4_DATA*%
X139600000Y-68200000D02*
X142615000Y-65185000D01*
X142615000Y-65185000D02*
X150660000Y-65185000D01*
%TD*%
%TA.AperFunction,Conductor*%
%TO.N,GND*%
G36*
X151642539Y-46920185D02*
G01*
X151688294Y-46972989D01*
X151699500Y-47024500D01*
X151699500Y-55139693D01*
X151679815Y-55206732D01*
X151627011Y-55252487D01*
X151557853Y-55262431D01*
X151494297Y-55233406D01*
X151487819Y-55227374D01*
X151482466Y-55222021D01*
X151482464Y-55222019D01*
X151321694Y-55105213D01*
X151144632Y-55014994D01*
X151144629Y-55014993D01*
X150955637Y-54953587D01*
X150857498Y-54938043D01*
X150759361Y-54922500D01*
X150560639Y-54922500D01*
X150495214Y-54932862D01*
X150364362Y-54953587D01*
X150175370Y-55014993D01*
X150175367Y-55014994D01*
X149998305Y-55105213D01*
X149837533Y-55222021D01*
X149697021Y-55362533D01*
X149580213Y-55523305D01*
X149489994Y-55700367D01*
X149489993Y-55700370D01*
X149428587Y-55889362D01*
X149397500Y-56085639D01*
X149397500Y-56284360D01*
X149428587Y-56480637D01*
X149489993Y-56669629D01*
X149489994Y-56669632D01*
X149580213Y-56846694D01*
X149697019Y-57007464D01*
X149837536Y-57147981D01*
X149998306Y-57264787D01*
X150089537Y-57311272D01*
X150115528Y-57324515D01*
X150166324Y-57372490D01*
X150183119Y-57440311D01*
X150160581Y-57506446D01*
X150115528Y-57545485D01*
X149998305Y-57605213D01*
X149837533Y-57722021D01*
X149697021Y-57862533D01*
X149580213Y-58023305D01*
X149489994Y-58200367D01*
X149489993Y-58200370D01*
X149428587Y-58389362D01*
X149397500Y-58585639D01*
X149397500Y-58784360D01*
X149428587Y-58980637D01*
X149489993Y-59169629D01*
X149489994Y-59169632D01*
X149580213Y-59346694D01*
X149697019Y-59507464D01*
X149837536Y-59647981D01*
X149998306Y-59764787D01*
X150067965Y-59800280D01*
X150175367Y-59855005D01*
X150175370Y-59855006D01*
X150266874Y-59884737D01*
X150364364Y-59916413D01*
X150560639Y-59947500D01*
X150560640Y-59947500D01*
X150759360Y-59947500D01*
X150759361Y-59947500D01*
X150955636Y-59916413D01*
X151144632Y-59855005D01*
X151321694Y-59764787D01*
X151482464Y-59647981D01*
X151487819Y-59642626D01*
X151549142Y-59609141D01*
X151618834Y-59614125D01*
X151674767Y-59655997D01*
X151699184Y-59721461D01*
X151699500Y-59730307D01*
X151699500Y-64139693D01*
X151679815Y-64206732D01*
X151627011Y-64252487D01*
X151557853Y-64262431D01*
X151494297Y-64233406D01*
X151487819Y-64227374D01*
X151482466Y-64222021D01*
X151482464Y-64222019D01*
X151321694Y-64105213D01*
X151268712Y-64078217D01*
X151144632Y-64014994D01*
X151144629Y-64014993D01*
X150955637Y-63953587D01*
X150845190Y-63936094D01*
X150759361Y-63922500D01*
X150560639Y-63922500D01*
X150495214Y-63932862D01*
X150364362Y-63953587D01*
X150175370Y-64014993D01*
X150175367Y-64014994D01*
X149998305Y-64105213D01*
X149837533Y-64222021D01*
X149697021Y-64362533D01*
X149697021Y-64362534D01*
X149697019Y-64362536D01*
X149613270Y-64477807D01*
X149592506Y-64506386D01*
X149537176Y-64549051D01*
X149492188Y-64557500D01*
X142553192Y-64557500D01*
X142431972Y-64581612D01*
X142431964Y-64581614D01*
X142351215Y-64615062D01*
X142317766Y-64628917D01*
X142317764Y-64628918D01*
X142285465Y-64650500D01*
X142285465Y-64650501D01*
X142214989Y-64697590D01*
X139537672Y-67374907D01*
X139521076Y-67383969D01*
X139507466Y-67397102D01*
X139477970Y-67407506D01*
X139476349Y-67408392D01*
X139474182Y-67408843D01*
X139402924Y-67423017D01*
X139333332Y-67416790D01*
X139278155Y-67373927D01*
X139275631Y-67370291D01*
X139221789Y-67289710D01*
X139110292Y-67178213D01*
X139110288Y-67178210D01*
X138979185Y-67090609D01*
X138979172Y-67090602D01*
X138833501Y-67030264D01*
X138833489Y-67030261D01*
X138678845Y-66999500D01*
X138678842Y-66999500D01*
X138521158Y-66999500D01*
X138521155Y-66999500D01*
X138366510Y-67030261D01*
X138366498Y-67030264D01*
X138220827Y-67090602D01*
X138220814Y-67090609D01*
X138089711Y-67178210D01*
X138089707Y-67178213D01*
X137978213Y-67289707D01*
X137978210Y-67289711D01*
X137890609Y-67420814D01*
X137890602Y-67420827D01*
X137830264Y-67566498D01*
X137830261Y-67566510D01*
X137799500Y-67721153D01*
X137799500Y-67878846D01*
X137830261Y-68033489D01*
X137830264Y-68033501D01*
X137890603Y-68179174D01*
X137890604Y-68179175D01*
X137890606Y-68179179D01*
X137921567Y-68225515D01*
X137951602Y-68270465D01*
X137972480Y-68337142D01*
X137972500Y-68339356D01*
X137972500Y-68461807D01*
X137996612Y-68583027D01*
X137996614Y-68583035D01*
X138020773Y-68641361D01*
X138020776Y-68641367D01*
X138023516Y-68647981D01*
X138043917Y-68697233D01*
X138089055Y-68764787D01*
X138091839Y-68768953D01*
X138112590Y-68800010D01*
X138112591Y-68800011D01*
X141429458Y-72116877D01*
X141462943Y-72178200D01*
X141465777Y-72204558D01*
X141465777Y-75697348D01*
X141446092Y-75764387D01*
X141444879Y-75766239D01*
X141383886Y-75857520D01*
X141383879Y-75857533D01*
X141323541Y-76003204D01*
X141323538Y-76003216D01*
X141292777Y-76157859D01*
X141292777Y-76315552D01*
X141323538Y-76470195D01*
X141323541Y-76470207D01*
X141383879Y-76615878D01*
X141383886Y-76615891D01*
X141471487Y-76746994D01*
X141471490Y-76746998D01*
X141551294Y-76826802D01*
X141584779Y-76888125D01*
X141579795Y-76957817D01*
X141551294Y-77002164D01*
X139413843Y-79139615D01*
X139352520Y-79173100D01*
X139282828Y-79168116D01*
X139238481Y-79139615D01*
X136314703Y-76215837D01*
X136299282Y-76197046D01*
X136225521Y-76086655D01*
X136225515Y-76086647D01*
X136113352Y-75974484D01*
X136113348Y-75974481D01*
X135981459Y-75886355D01*
X135981446Y-75886348D01*
X135834898Y-75825647D01*
X135834889Y-75825644D01*
X135679319Y-75794700D01*
X135679315Y-75794700D01*
X135520685Y-75794700D01*
X135520680Y-75794700D01*
X135365110Y-75825644D01*
X135365101Y-75825647D01*
X135218553Y-75886348D01*
X135218540Y-75886355D01*
X135086651Y-75974481D01*
X135086647Y-75974484D01*
X134974484Y-76086647D01*
X134974481Y-76086651D01*
X134886355Y-76218540D01*
X134886348Y-76218553D01*
X134825647Y-76365101D01*
X134825644Y-76365110D01*
X134794700Y-76520680D01*
X134794700Y-76555549D01*
X134794699Y-76555575D01*
X134794699Y-76560685D01*
X134794699Y-76719315D01*
X134794699Y-76719317D01*
X134794698Y-76719317D01*
X134822383Y-76858492D01*
X134825646Y-76874893D01*
X134825648Y-76874901D01*
X134886348Y-77021446D01*
X134886355Y-77021459D01*
X134974481Y-77153348D01*
X134974484Y-77153352D01*
X135090970Y-77269838D01*
X135090992Y-77269858D01*
X138398181Y-80577047D01*
X138431666Y-80638370D01*
X138434500Y-80664728D01*
X138434500Y-81297870D01*
X138434501Y-81297876D01*
X138440908Y-81357483D01*
X138491202Y-81492328D01*
X138491206Y-81492335D01*
X138577452Y-81607544D01*
X138577455Y-81607547D01*
X138692664Y-81693793D01*
X138692671Y-81693797D01*
X138827517Y-81744091D01*
X138827516Y-81744091D01*
X138834444Y-81744835D01*
X138887127Y-81750500D01*
X140032872Y-81750499D01*
X140092483Y-81744091D01*
X140227331Y-81693796D01*
X140228430Y-81692972D01*
X140229717Y-81692492D01*
X140235112Y-81689547D01*
X140235535Y-81690322D01*
X140293887Y-81668552D01*
X140350198Y-81677673D01*
X140430873Y-81711091D01*
X140596777Y-81744091D01*
X140628992Y-81750499D01*
X140628996Y-81750500D01*
X140628997Y-81750500D01*
X140831004Y-81750500D01*
X140831005Y-81750499D01*
X141029127Y-81711091D01*
X141215756Y-81633786D01*
X141296110Y-81580094D01*
X141362786Y-81559217D01*
X141430166Y-81577701D01*
X141433865Y-81580078D01*
X141514244Y-81633786D01*
X141700873Y-81711091D01*
X141866777Y-81744091D01*
X141898992Y-81750499D01*
X141898996Y-81750500D01*
X141898997Y-81750500D01*
X142101004Y-81750500D01*
X142101005Y-81750499D01*
X142299127Y-81711091D01*
X142485756Y-81633786D01*
X142653718Y-81521558D01*
X142796558Y-81378718D01*
X142908786Y-81210756D01*
X142986091Y-81024127D01*
X143025500Y-80826003D01*
X143025500Y-80173997D01*
X142986091Y-79975873D01*
X142908786Y-79789244D01*
X142908784Y-79789241D01*
X142908782Y-79789237D01*
X142796558Y-79621281D01*
X142653718Y-79478441D01*
X142485762Y-79366217D01*
X142485752Y-79366212D01*
X142299127Y-79288909D01*
X142299119Y-79288907D01*
X142101007Y-79249500D01*
X142101003Y-79249500D01*
X141898997Y-79249500D01*
X141898992Y-79249500D01*
X141724462Y-79284216D01*
X141654870Y-79277989D01*
X141599693Y-79235125D01*
X141576449Y-79169236D01*
X141592517Y-79101239D01*
X141612586Y-79074922D01*
X143833819Y-76853690D01*
X143895142Y-76820205D01*
X143964834Y-76825189D01*
X144020767Y-76867061D01*
X144045184Y-76932525D01*
X144045500Y-76941371D01*
X144045500Y-77745552D01*
X144045499Y-77745578D01*
X144045499Y-77899314D01*
X144061194Y-77978213D01*
X144069684Y-78020894D01*
X144074495Y-78045080D01*
X144074496Y-78045084D01*
X144084208Y-78068529D01*
X144131368Y-78182385D01*
X144131372Y-78182392D01*
X144213942Y-78305968D01*
X144213943Y-78305969D01*
X148953025Y-83045050D01*
X148986510Y-83106373D01*
X148981526Y-83176065D01*
X148953031Y-83220407D01*
X148939220Y-83234219D01*
X148939215Y-83234224D01*
X148871410Y-83318366D01*
X148871407Y-83318371D01*
X148841063Y-83365588D01*
X148792695Y-83462215D01*
X148792695Y-83462216D01*
X148762111Y-83602805D01*
X148756805Y-83676995D01*
X148756805Y-83676997D01*
X148767069Y-83820509D01*
X148767069Y-83820511D01*
X148817352Y-83955324D01*
X148852991Y-84020592D01*
X148852992Y-84020593D01*
X148852995Y-84020598D01*
X148939220Y-84135780D01*
X148939224Y-84135784D01*
X148939229Y-84135790D01*
X148953025Y-84149586D01*
X148986510Y-84210909D01*
X148981526Y-84280601D01*
X148953025Y-84324948D01*
X140068794Y-93209181D01*
X140007471Y-93242666D01*
X139981113Y-93245500D01*
X139080446Y-93245500D01*
X139080426Y-93245499D01*
X139074312Y-93245499D01*
X138925688Y-93245499D01*
X138925686Y-93245499D01*
X138810169Y-93268477D01*
X138810161Y-93268479D01*
X138804105Y-93269684D01*
X138779920Y-93274495D01*
X138756102Y-93284361D01*
X138750569Y-93286652D01*
X138750555Y-93286657D01*
X138642613Y-93331367D01*
X138642611Y-93331370D01*
X138519033Y-93413941D01*
X138466487Y-93466487D01*
X138413941Y-93519034D01*
X137123794Y-94809181D01*
X137062471Y-94842666D01*
X137036113Y-94845500D01*
X133294947Y-94845500D01*
X133247498Y-94836062D01*
X133233497Y-94830263D01*
X133233493Y-94830262D01*
X133233488Y-94830260D01*
X133078845Y-94799500D01*
X133078842Y-94799500D01*
X132921158Y-94799500D01*
X132921155Y-94799500D01*
X132766510Y-94830261D01*
X132766498Y-94830264D01*
X132620827Y-94890602D01*
X132620814Y-94890609D01*
X132489711Y-94978210D01*
X132489707Y-94978213D01*
X132378213Y-95089707D01*
X132378210Y-95089711D01*
X132290609Y-95220814D01*
X132290602Y-95220827D01*
X132230264Y-95366498D01*
X132230261Y-95366510D01*
X132199500Y-95521153D01*
X132199500Y-95678846D01*
X132230261Y-95833489D01*
X132230264Y-95833501D01*
X132290602Y-95979172D01*
X132290609Y-95979185D01*
X132378210Y-96110288D01*
X132378213Y-96110292D01*
X132489707Y-96221786D01*
X132489711Y-96221789D01*
X132620814Y-96309390D01*
X132620827Y-96309397D01*
X132744538Y-96360639D01*
X132766503Y-96369737D01*
X132921153Y-96400499D01*
X132921156Y-96400500D01*
X132921158Y-96400500D01*
X133078844Y-96400500D01*
X133078845Y-96400499D01*
X133155152Y-96385320D01*
X133233488Y-96369739D01*
X133233489Y-96369738D01*
X133233497Y-96369737D01*
X133247498Y-96363937D01*
X133294947Y-96354500D01*
X137319554Y-96354500D01*
X137319574Y-96354501D01*
X137325688Y-96354501D01*
X137474313Y-96354501D01*
X137496831Y-96350021D01*
X137605993Y-96328307D01*
X137620080Y-96325505D01*
X137697180Y-96293569D01*
X137757389Y-96268630D01*
X137880966Y-96186059D01*
X139276205Y-94790818D01*
X139337528Y-94757334D01*
X139363886Y-94754500D01*
X140264563Y-94754500D01*
X140270685Y-94754500D01*
X140270688Y-94754501D01*
X140279121Y-94754501D01*
X140320382Y-94766619D01*
X140346151Y-94774186D01*
X140346152Y-94774188D01*
X140346159Y-94774190D01*
X140377590Y-94810469D01*
X140391906Y-94826990D01*
X140391906Y-94826992D01*
X140391910Y-94826997D01*
X140396774Y-94860845D01*
X140401850Y-94896148D01*
X140401848Y-94896151D01*
X140401849Y-94896156D01*
X140388822Y-94924674D01*
X140372825Y-94959704D01*
X140366793Y-94966182D01*
X138475045Y-96857928D01*
X138434822Y-96884806D01*
X138420819Y-96890606D01*
X138420818Y-96890607D01*
X138289715Y-96978207D01*
X138289707Y-96978213D01*
X138178213Y-97089707D01*
X138178210Y-97089711D01*
X138090609Y-97220814D01*
X138090602Y-97220827D01*
X138030264Y-97366498D01*
X138030261Y-97366508D01*
X138003769Y-97499692D01*
X137971384Y-97561603D01*
X137910668Y-97596177D01*
X137882152Y-97599500D01*
X135228973Y-97599500D01*
X135181524Y-97590062D01*
X135167523Y-97584263D01*
X135167519Y-97584262D01*
X135167514Y-97584260D01*
X135012871Y-97553500D01*
X135012868Y-97553500D01*
X134855184Y-97553500D01*
X134855181Y-97553500D01*
X134700536Y-97584261D01*
X134700524Y-97584264D01*
X134554853Y-97644602D01*
X134554840Y-97644609D01*
X134423737Y-97732210D01*
X134423733Y-97732213D01*
X134312239Y-97843707D01*
X134312236Y-97843711D01*
X134224635Y-97974814D01*
X134224628Y-97974827D01*
X134164290Y-98120498D01*
X134164287Y-98120510D01*
X134133526Y-98275153D01*
X134133526Y-98432846D01*
X134164287Y-98587489D01*
X134164290Y-98587501D01*
X134224628Y-98733172D01*
X134224635Y-98733185D01*
X134312236Y-98864288D01*
X134312239Y-98864292D01*
X134423733Y-98975786D01*
X134423737Y-98975789D01*
X134554840Y-99063390D01*
X134554853Y-99063397D01*
X134700524Y-99123735D01*
X134700529Y-99123737D01*
X134799713Y-99143466D01*
X134855179Y-99154499D01*
X134855182Y-99154500D01*
X134855184Y-99154500D01*
X135012869Y-99154500D01*
X135025800Y-99151927D01*
X135068338Y-99143466D01*
X135137928Y-99149692D01*
X135193105Y-99192555D01*
X135216351Y-99258444D01*
X135200284Y-99326441D01*
X135180210Y-99352764D01*
X134675045Y-99857928D01*
X134634822Y-99884806D01*
X134620819Y-99890606D01*
X134620818Y-99890607D01*
X134489715Y-99978207D01*
X134489707Y-99978213D01*
X134378213Y-100089707D01*
X134378210Y-100089711D01*
X134290609Y-100220814D01*
X134290602Y-100220827D01*
X134230264Y-100366498D01*
X134230261Y-100366510D01*
X134199500Y-100521153D01*
X134199500Y-100678846D01*
X134230261Y-100833489D01*
X134230264Y-100833501D01*
X134290602Y-100979172D01*
X134290609Y-100979185D01*
X134378210Y-101110288D01*
X134378213Y-101110292D01*
X134489707Y-101221786D01*
X134489711Y-101221789D01*
X134620814Y-101309390D01*
X134620827Y-101309397D01*
X134699148Y-101341838D01*
X134766503Y-101369737D01*
X134921153Y-101400499D01*
X134921156Y-101400500D01*
X134921158Y-101400500D01*
X135078844Y-101400500D01*
X135078845Y-101400499D01*
X135233497Y-101369737D01*
X135379179Y-101309394D01*
X135510289Y-101221789D01*
X135621789Y-101110289D01*
X135709394Y-100979179D01*
X135715191Y-100965182D01*
X135742069Y-100924954D01*
X136076205Y-100590819D01*
X136137528Y-100557334D01*
X136163886Y-100554500D01*
X141436113Y-100554500D01*
X141503152Y-100574185D01*
X141523794Y-100590819D01*
X142409600Y-101476624D01*
X142409621Y-101476647D01*
X142519028Y-101586054D01*
X142519035Y-101586060D01*
X142642608Y-101668628D01*
X142642609Y-101668628D01*
X142642610Y-101668629D01*
X142779920Y-101725505D01*
X142925683Y-101754499D01*
X142925687Y-101754500D01*
X142925688Y-101754500D01*
X143505053Y-101754500D01*
X143552501Y-101763937D01*
X143566503Y-101769737D01*
X143566508Y-101769738D01*
X143566511Y-101769739D01*
X143721153Y-101800499D01*
X143721156Y-101800500D01*
X143721158Y-101800500D01*
X143878843Y-101800500D01*
X143911659Y-101793972D01*
X144033497Y-101769737D01*
X144033500Y-101769735D01*
X144037143Y-101769011D01*
X144106734Y-101775238D01*
X144161912Y-101818100D01*
X144185157Y-101883990D01*
X144169090Y-101951987D01*
X144164439Y-101959517D01*
X144131215Y-102009241D01*
X144131212Y-102009247D01*
X144053909Y-102195872D01*
X144053907Y-102195880D01*
X144014500Y-102393992D01*
X144014500Y-102874232D01*
X143994815Y-102941271D01*
X143942011Y-102987026D01*
X143872853Y-102996970D01*
X143840138Y-102985650D01*
X143839649Y-102986831D01*
X143832137Y-102983720D01*
X143832136Y-102983719D01*
X143832135Y-102983719D01*
X143685766Y-102944500D01*
X143534234Y-102944500D01*
X143387863Y-102983719D01*
X143256635Y-103059485D01*
X143256632Y-103059487D01*
X143149487Y-103166632D01*
X143149485Y-103166635D01*
X143073719Y-103297863D01*
X143034500Y-103444234D01*
X143034500Y-103595765D01*
X143073719Y-103742136D01*
X143111602Y-103807750D01*
X143149485Y-103873365D01*
X143256635Y-103980515D01*
X143387865Y-104056281D01*
X143534234Y-104095500D01*
X143534236Y-104095500D01*
X143685764Y-104095500D01*
X143685766Y-104095500D01*
X143832135Y-104056281D01*
X143960152Y-103982370D01*
X143964094Y-103981413D01*
X143967076Y-103978659D01*
X143997757Y-103973246D01*
X144028048Y-103965898D01*
X144031885Y-103967226D01*
X144035884Y-103966521D01*
X144064625Y-103978557D01*
X144094075Y-103988750D01*
X144097659Y-103992391D01*
X144100330Y-103993510D01*
X144108446Y-104003349D01*
X144124280Y-104019435D01*
X144129913Y-104027616D01*
X144131214Y-104030756D01*
X144243442Y-104198718D01*
X144257201Y-104212477D01*
X144263631Y-104221815D01*
X144271137Y-104244665D01*
X144282665Y-104265774D01*
X144284900Y-104286559D01*
X144285437Y-104288194D01*
X144285181Y-104289178D01*
X144285500Y-104292138D01*
X144285500Y-105990720D01*
X144265815Y-106057759D01*
X144264602Y-106059611D01*
X144153371Y-106226079D01*
X144153364Y-106226092D01*
X144077950Y-106408160D01*
X144077947Y-106408170D01*
X144039500Y-106601456D01*
X144039500Y-106601459D01*
X144039500Y-107798541D01*
X144039500Y-107798543D01*
X144039499Y-107798543D01*
X144077947Y-107991829D01*
X144077950Y-107991839D01*
X144153364Y-108173907D01*
X144153371Y-108173920D01*
X144262860Y-108337781D01*
X144262863Y-108337785D01*
X144402214Y-108477136D01*
X144402218Y-108477139D01*
X144566079Y-108586628D01*
X144566092Y-108586635D01*
X144748160Y-108662049D01*
X144748165Y-108662051D01*
X144748169Y-108662051D01*
X144748170Y-108662052D01*
X144941456Y-108700500D01*
X144941459Y-108700500D01*
X145138543Y-108700500D01*
X145268582Y-108674632D01*
X145331835Y-108662051D01*
X145513914Y-108586632D01*
X145677782Y-108477139D01*
X145817139Y-108337782D01*
X145926632Y-108173914D01*
X146002051Y-107991835D01*
X146040500Y-107798541D01*
X146040500Y-106601459D01*
X146040500Y-106601456D01*
X146002052Y-106408170D01*
X146002051Y-106408169D01*
X146002051Y-106408165D01*
X146002049Y-106408160D01*
X145926635Y-106226092D01*
X145926628Y-106226079D01*
X145815398Y-106059611D01*
X145794520Y-105992933D01*
X145794500Y-105990720D01*
X145794500Y-104292138D01*
X145814185Y-104225099D01*
X145830818Y-104204457D01*
X145836558Y-104198718D01*
X145948786Y-104030756D01*
X146026091Y-103844127D01*
X146065500Y-103646003D01*
X146065500Y-102393997D01*
X146026091Y-102195873D01*
X145948786Y-102009244D01*
X145948784Y-102009241D01*
X145948782Y-102009237D01*
X145836558Y-101841281D01*
X145693718Y-101698441D01*
X145525762Y-101586217D01*
X145525752Y-101586212D01*
X145339127Y-101508909D01*
X145339119Y-101508907D01*
X145141007Y-101469500D01*
X145141003Y-101469500D01*
X144938997Y-101469500D01*
X144938992Y-101469500D01*
X144740880Y-101508907D01*
X144740868Y-101508910D01*
X144673162Y-101536955D01*
X144603693Y-101544424D01*
X144541214Y-101513148D01*
X144505562Y-101453059D01*
X144508056Y-101383234D01*
X144511149Y-101374941D01*
X144569737Y-101233497D01*
X144600500Y-101078842D01*
X144600500Y-100921158D01*
X144600500Y-100921155D01*
X144600499Y-100921153D01*
X144569738Y-100766510D01*
X144569737Y-100766503D01*
X144533427Y-100678842D01*
X144509397Y-100620827D01*
X144509390Y-100620814D01*
X144421789Y-100489711D01*
X144421786Y-100489707D01*
X144310292Y-100378213D01*
X144310288Y-100378210D01*
X144179185Y-100290609D01*
X144179172Y-100290602D01*
X144033501Y-100230264D01*
X144033489Y-100230261D01*
X143878845Y-100199500D01*
X143878842Y-100199500D01*
X143721158Y-100199500D01*
X143721155Y-100199500D01*
X143566511Y-100230260D01*
X143566506Y-100230262D01*
X143566504Y-100230262D01*
X143566503Y-100230263D01*
X143552501Y-100236062D01*
X143544327Y-100237688D01*
X143539988Y-100240477D01*
X143505053Y-100245500D01*
X143363886Y-100245500D01*
X143296847Y-100225815D01*
X143276205Y-100209181D01*
X142280969Y-99213943D01*
X142280968Y-99213942D01*
X142157392Y-99131372D01*
X142157391Y-99131371D01*
X142157389Y-99131370D01*
X142157387Y-99131369D01*
X142157385Y-99131368D01*
X142041995Y-99083572D01*
X142041989Y-99083570D01*
X142035702Y-99080966D01*
X142020080Y-99074495D01*
X141995894Y-99069684D01*
X141990629Y-99068636D01*
X141990620Y-99068634D01*
X141874314Y-99045499D01*
X141874312Y-99045499D01*
X141725688Y-99045499D01*
X141719574Y-99045499D01*
X141719554Y-99045500D01*
X140784254Y-99045500D01*
X140717215Y-99025815D01*
X140671460Y-98973011D01*
X140661516Y-98903853D01*
X140690541Y-98840297D01*
X140705588Y-98825648D01*
X140710289Y-98821789D01*
X140821786Y-98710292D01*
X140821789Y-98710289D01*
X140909394Y-98579179D01*
X140969737Y-98433497D01*
X141000500Y-98278842D01*
X141000500Y-98121158D01*
X141000500Y-98121155D01*
X141000499Y-98121153D01*
X140983061Y-98033489D01*
X140969737Y-97966503D01*
X140920952Y-97848724D01*
X140909397Y-97820827D01*
X140909390Y-97820814D01*
X140821789Y-97689711D01*
X140821786Y-97689707D01*
X140710292Y-97578213D01*
X140710288Y-97578210D01*
X140579185Y-97490609D01*
X140579172Y-97490602D01*
X140433501Y-97430264D01*
X140433489Y-97430261D01*
X140330113Y-97409698D01*
X140268202Y-97377313D01*
X140233628Y-97316597D01*
X140237367Y-97246828D01*
X140266621Y-97200402D01*
X141423803Y-96043220D01*
X141485124Y-96009737D01*
X141554816Y-96014721D01*
X141610749Y-96056593D01*
X141635166Y-96122057D01*
X141630870Y-96160412D01*
X141631451Y-96160528D01*
X141599500Y-96321153D01*
X141599500Y-96478846D01*
X141630261Y-96633489D01*
X141630263Y-96633497D01*
X141634044Y-96642626D01*
X141636061Y-96647494D01*
X141645500Y-96694947D01*
X141645500Y-97520552D01*
X141645499Y-97520578D01*
X141645499Y-97674313D01*
X141663178Y-97763188D01*
X141663179Y-97763194D01*
X141664124Y-97767941D01*
X141674495Y-97820080D01*
X141686360Y-97848724D01*
X141689168Y-97855503D01*
X141689170Y-97855510D01*
X141731366Y-97957381D01*
X141731372Y-97957392D01*
X141813942Y-98080968D01*
X141813943Y-98080969D01*
X142657927Y-98924952D01*
X142684805Y-98965176D01*
X142690605Y-98979177D01*
X142690607Y-98979181D01*
X142778207Y-99110284D01*
X142778213Y-99110292D01*
X142889707Y-99221786D01*
X142889711Y-99221789D01*
X143020814Y-99309390D01*
X143020827Y-99309397D01*
X143125526Y-99352764D01*
X143166503Y-99369737D01*
X143321153Y-99400499D01*
X143321156Y-99400500D01*
X143321158Y-99400500D01*
X143478844Y-99400500D01*
X143478845Y-99400499D01*
X143633497Y-99369737D01*
X143779179Y-99309394D01*
X143910289Y-99221789D01*
X144021789Y-99110289D01*
X144109394Y-98979179D01*
X144110800Y-98975786D01*
X144156981Y-98864292D01*
X144169737Y-98833497D01*
X144200500Y-98678842D01*
X144200500Y-98521158D01*
X144200500Y-98521155D01*
X144199903Y-98515093D01*
X144202141Y-98514872D01*
X144207466Y-98455311D01*
X144250323Y-98400130D01*
X144316210Y-98376878D01*
X144322860Y-98376700D01*
X149193259Y-98376700D01*
X149260298Y-98396385D01*
X149280940Y-98413019D01*
X149289707Y-98421786D01*
X149289711Y-98421789D01*
X149420814Y-98509390D01*
X149420827Y-98509397D01*
X149566498Y-98569735D01*
X149566503Y-98569737D01*
X149721153Y-98600499D01*
X149721156Y-98600500D01*
X149721158Y-98600500D01*
X149878844Y-98600500D01*
X149878845Y-98600499D01*
X150033497Y-98569737D01*
X150179179Y-98509394D01*
X150310289Y-98421789D01*
X150421789Y-98310289D01*
X150509394Y-98179179D01*
X150569737Y-98033497D01*
X150600500Y-97878842D01*
X150600500Y-97721158D01*
X150600500Y-97721155D01*
X150600499Y-97721153D01*
X150585272Y-97644602D01*
X150569737Y-97566503D01*
X150550955Y-97521158D01*
X150509397Y-97420827D01*
X150509390Y-97420814D01*
X150421789Y-97289711D01*
X150421786Y-97289707D01*
X150310292Y-97178213D01*
X150310288Y-97178210D01*
X150241828Y-97132466D01*
X150197023Y-97078853D01*
X150188316Y-97009528D01*
X150218471Y-96946501D01*
X150277914Y-96909782D01*
X150347772Y-96911030D01*
X150348944Y-96911402D01*
X150364364Y-96916413D01*
X150560639Y-96947500D01*
X150560640Y-96947500D01*
X150759360Y-96947500D01*
X150759361Y-96947500D01*
X150955636Y-96916413D01*
X151144632Y-96855005D01*
X151321694Y-96764787D01*
X151482464Y-96647981D01*
X151487819Y-96642626D01*
X151549142Y-96609141D01*
X151618834Y-96614125D01*
X151674767Y-96655997D01*
X151699184Y-96721461D01*
X151699500Y-96730307D01*
X151699500Y-99169008D01*
X151679815Y-99236047D01*
X151627011Y-99281802D01*
X151557853Y-99291746D01*
X151506610Y-99272111D01*
X151401626Y-99201964D01*
X151401625Y-99201963D01*
X151381630Y-99191275D01*
X151314233Y-99155250D01*
X151314227Y-99155248D01*
X151198668Y-99107381D01*
X151103857Y-99078620D01*
X151103848Y-99078617D01*
X151103842Y-99078616D01*
X151027317Y-99063394D01*
X150981157Y-99054212D01*
X150906730Y-99046882D01*
X150882542Y-99044500D01*
X149550000Y-99044500D01*
X149549983Y-99044500D01*
X149442546Y-99056052D01*
X149442541Y-99056053D01*
X149307740Y-99106332D01*
X149192562Y-99192555D01*
X149192547Y-99192567D01*
X148557574Y-99827541D01*
X148557544Y-99827573D01*
X148510327Y-99882062D01*
X148510326Y-99882064D01*
X148441372Y-100008344D01*
X148441372Y-100008345D01*
X148441372Y-100008346D01*
X148410788Y-100148938D01*
X148421052Y-100292452D01*
X148471333Y-100427260D01*
X148557558Y-100542442D01*
X148557562Y-100542446D01*
X148557567Y-100542452D01*
X149113435Y-101098319D01*
X149146920Y-101159642D01*
X149141936Y-101229333D01*
X149100065Y-101285267D01*
X149034600Y-101309684D01*
X149025754Y-101310000D01*
X148915003Y-101310000D01*
X148878971Y-101311287D01*
X148738525Y-101341838D01*
X148738520Y-101341840D01*
X148612369Y-101410723D01*
X148612362Y-101410729D01*
X148510729Y-101512362D01*
X148510723Y-101512369D01*
X148441840Y-101638520D01*
X148441838Y-101638525D01*
X148411287Y-101778970D01*
X148411287Y-101778974D01*
X148421541Y-101922343D01*
X148421542Y-101922348D01*
X148471770Y-102057018D01*
X148471772Y-102057021D01*
X148557910Y-102172087D01*
X148557920Y-102172099D01*
X148748140Y-102362318D01*
X148781625Y-102423641D01*
X148776641Y-102493332D01*
X148748140Y-102537680D01*
X148557921Y-102727899D01*
X148533344Y-102754297D01*
X148455634Y-102875218D01*
X148415140Y-103013129D01*
X148415140Y-103156870D01*
X148455634Y-103294781D01*
X148533345Y-103415703D01*
X148641976Y-103509832D01*
X148641977Y-103509833D01*
X148772721Y-103569543D01*
X148772725Y-103569544D01*
X148915001Y-103589999D01*
X148915003Y-103590000D01*
X150882537Y-103590000D01*
X150981064Y-103580295D01*
X150981076Y-103580293D01*
X151103739Y-103555893D01*
X151103747Y-103555891D01*
X151198478Y-103527155D01*
X151314041Y-103479286D01*
X151314042Y-103479286D01*
X151401342Y-103432624D01*
X151401352Y-103432618D01*
X151506609Y-103362288D01*
X151573286Y-103341410D01*
X151640667Y-103359894D01*
X151687357Y-103411873D01*
X151699500Y-103465390D01*
X151699500Y-109575500D01*
X151679815Y-109642539D01*
X151627011Y-109688294D01*
X151575500Y-109699500D01*
X129824500Y-109699500D01*
X129757461Y-109679815D01*
X129711706Y-109627011D01*
X129700500Y-109575500D01*
X129700500Y-102393992D01*
X135374500Y-102393992D01*
X135374500Y-103646007D01*
X135413907Y-103844119D01*
X135413909Y-103844127D01*
X135491212Y-104030752D01*
X135491217Y-104030762D01*
X135534474Y-104095500D01*
X135603442Y-104198718D01*
X135609178Y-104204454D01*
X135642665Y-104265774D01*
X135645500Y-104292138D01*
X135645500Y-105990720D01*
X135625815Y-106057759D01*
X135624602Y-106059611D01*
X135513371Y-106226079D01*
X135513364Y-106226092D01*
X135437950Y-106408160D01*
X135437947Y-106408170D01*
X135399500Y-106601456D01*
X135399500Y-106601459D01*
X135399500Y-107798541D01*
X135399500Y-107798543D01*
X135399499Y-107798543D01*
X135437947Y-107991829D01*
X135437950Y-107991839D01*
X135513364Y-108173907D01*
X135513371Y-108173920D01*
X135622860Y-108337781D01*
X135622863Y-108337785D01*
X135762214Y-108477136D01*
X135762218Y-108477139D01*
X135926079Y-108586628D01*
X135926092Y-108586635D01*
X136108160Y-108662049D01*
X136108165Y-108662051D01*
X136108169Y-108662051D01*
X136108170Y-108662052D01*
X136301456Y-108700500D01*
X136301459Y-108700500D01*
X136498543Y-108700500D01*
X136628582Y-108674632D01*
X136691835Y-108662051D01*
X136873914Y-108586632D01*
X137037782Y-108477139D01*
X137177139Y-108337782D01*
X137286632Y-108173914D01*
X137362051Y-107991835D01*
X137400500Y-107798541D01*
X137400500Y-106601459D01*
X137400500Y-106601456D01*
X137362052Y-106408170D01*
X137362051Y-106408169D01*
X137362051Y-106408165D01*
X137362049Y-106408160D01*
X137286635Y-106226092D01*
X137286628Y-106226079D01*
X137175398Y-106059611D01*
X137154520Y-105992933D01*
X137154500Y-105990720D01*
X137154500Y-104292138D01*
X137174185Y-104225099D01*
X137176369Y-104221815D01*
X137182798Y-104212477D01*
X137196558Y-104198718D01*
X137308786Y-104030756D01*
X137310087Y-104027613D01*
X137315719Y-104019435D01*
X137337649Y-104001621D01*
X137357438Y-103981470D01*
X137364404Y-103979888D01*
X137369951Y-103975383D01*
X137398028Y-103972253D01*
X137425573Y-103965999D01*
X137433281Y-103968324D01*
X137439391Y-103967643D01*
X137452395Y-103974089D01*
X137479848Y-103982370D01*
X137607865Y-104056281D01*
X137754234Y-104095500D01*
X137754236Y-104095500D01*
X137905764Y-104095500D01*
X137905766Y-104095500D01*
X138052135Y-104056281D01*
X138183365Y-103980515D01*
X138290515Y-103873365D01*
X138366281Y-103742135D01*
X138405500Y-103595766D01*
X138405500Y-103444234D01*
X138366281Y-103297865D01*
X138364500Y-103294781D01*
X138356129Y-103280281D01*
X138290515Y-103166635D01*
X138183365Y-103059485D01*
X138117750Y-103021602D01*
X138052136Y-102983719D01*
X137978950Y-102964109D01*
X137905766Y-102944500D01*
X137754234Y-102944500D01*
X137607865Y-102983719D01*
X137607864Y-102983719D01*
X137607862Y-102983720D01*
X137600351Y-102986831D01*
X137599408Y-102984556D01*
X137543580Y-102998091D01*
X137477557Y-102975228D01*
X137434375Y-102920300D01*
X137425500Y-102874232D01*
X137425500Y-102393996D01*
X137425499Y-102393992D01*
X137386092Y-102195880D01*
X137386091Y-102195873D01*
X137308786Y-102009244D01*
X137308784Y-102009241D01*
X137308782Y-102009237D01*
X137196558Y-101841281D01*
X137053718Y-101698441D01*
X136885762Y-101586217D01*
X136885752Y-101586212D01*
X136699127Y-101508909D01*
X136699119Y-101508907D01*
X136501007Y-101469500D01*
X136501003Y-101469500D01*
X136298997Y-101469500D01*
X136298992Y-101469500D01*
X136100880Y-101508907D01*
X136100872Y-101508909D01*
X135914247Y-101586212D01*
X135914237Y-101586217D01*
X135746281Y-101698441D01*
X135603441Y-101841281D01*
X135491217Y-102009237D01*
X135491212Y-102009247D01*
X135413909Y-102195872D01*
X135413907Y-102195880D01*
X135374500Y-102393992D01*
X129700500Y-102393992D01*
X129700500Y-71392155D01*
X129720185Y-71325116D01*
X129772989Y-71279361D01*
X129842147Y-71269417D01*
X129905703Y-71298442D01*
X129943477Y-71357220D01*
X129944835Y-71362230D01*
X129947165Y-71371601D01*
X130032307Y-71543275D01*
X130152365Y-71692633D01*
X130152366Y-71692634D01*
X130301725Y-71812692D01*
X130301724Y-71812692D01*
X130473397Y-71897834D01*
X130659361Y-71944081D01*
X130659357Y-71944081D01*
X130702395Y-71946999D01*
X130909999Y-71946999D01*
X130910000Y-71946998D01*
X130910000Y-70973816D01*
X130926060Y-70989876D01*
X131012939Y-71040036D01*
X131109840Y-71066000D01*
X131210160Y-71066000D01*
X131307061Y-71040036D01*
X131393940Y-70989876D01*
X131410000Y-70973816D01*
X131410000Y-71946999D01*
X131617607Y-71946999D01*
X131617609Y-71946998D01*
X131660632Y-71944082D01*
X131660634Y-71944082D01*
X131846602Y-71897834D01*
X132018275Y-71812692D01*
X132167633Y-71692634D01*
X132167634Y-71692633D01*
X132287692Y-71543275D01*
X132372834Y-71371602D01*
X132419081Y-71185640D01*
X132422000Y-71142604D01*
X132422000Y-70935000D01*
X131448816Y-70935000D01*
X131464876Y-70918940D01*
X131515036Y-70832061D01*
X131541000Y-70735160D01*
X131541000Y-70634840D01*
X131515036Y-70537939D01*
X131464876Y-70451060D01*
X131448816Y-70435000D01*
X132421999Y-70435000D01*
X132421999Y-70227393D01*
X132421998Y-70227390D01*
X132419082Y-70184367D01*
X132419081Y-70184357D01*
X132404360Y-70125165D01*
X132407283Y-70055356D01*
X132447483Y-69998210D01*
X132512197Y-69971869D01*
X132580879Y-69984697D01*
X132612375Y-70007557D01*
X134807127Y-72202309D01*
X134834007Y-72242537D01*
X134890604Y-72379176D01*
X134890609Y-72379185D01*
X134978210Y-72510288D01*
X134978213Y-72510292D01*
X135089707Y-72621786D01*
X135089711Y-72621789D01*
X135220814Y-72709390D01*
X135220827Y-72709397D01*
X135366498Y-72769735D01*
X135366503Y-72769737D01*
X135521153Y-72800499D01*
X135521156Y-72800500D01*
X135521158Y-72800500D01*
X135678844Y-72800500D01*
X135678845Y-72800499D01*
X135833497Y-72769737D01*
X135979179Y-72709394D01*
X136110289Y-72621789D01*
X136221789Y-72510289D01*
X136309394Y-72379179D01*
X136369737Y-72233497D01*
X136400500Y-72078842D01*
X136400500Y-71921158D01*
X136400500Y-71921155D01*
X136400499Y-71921153D01*
X136397334Y-71905240D01*
X136369737Y-71766503D01*
X136368050Y-71762431D01*
X136309397Y-71620827D01*
X136309390Y-71620814D01*
X136221789Y-71489711D01*
X136221786Y-71489707D01*
X136110292Y-71378213D01*
X136110288Y-71378210D01*
X135979185Y-71290609D01*
X135979176Y-71290604D01*
X135842537Y-71234007D01*
X135802309Y-71207127D01*
X132335940Y-67740758D01*
X132335920Y-67740736D01*
X132233585Y-67638401D01*
X132118323Y-67561386D01*
X131990264Y-67508343D01*
X131990256Y-67508341D01*
X131854310Y-67481299D01*
X131854308Y-67481299D01*
X131772448Y-67481299D01*
X131705409Y-67461614D01*
X131672130Y-67430184D01*
X131656297Y-67408392D01*
X131622981Y-67362536D01*
X131482464Y-67222019D01*
X131321694Y-67105213D01*
X131293032Y-67090609D01*
X131144632Y-67014994D01*
X131144629Y-67014993D01*
X130955637Y-66953587D01*
X130857498Y-66938043D01*
X130759361Y-66922500D01*
X130560639Y-66922500D01*
X130495214Y-66932862D01*
X130364362Y-66953587D01*
X130175370Y-67014993D01*
X130175367Y-67014994D01*
X129998302Y-67105215D01*
X129897385Y-67178535D01*
X129831578Y-67202015D01*
X129763525Y-67186189D01*
X129714830Y-67136083D01*
X129700500Y-67078217D01*
X129700500Y-66291782D01*
X129720185Y-66224743D01*
X129772989Y-66178988D01*
X129842147Y-66169044D01*
X129897384Y-66191463D01*
X129998306Y-66264787D01*
X130085149Y-66309035D01*
X130175367Y-66355005D01*
X130175370Y-66355006D01*
X130249787Y-66379185D01*
X130364364Y-66416413D01*
X130560639Y-66447500D01*
X130560640Y-66447500D01*
X130759360Y-66447500D01*
X130759361Y-66447500D01*
X130955636Y-66416413D01*
X131144632Y-66355005D01*
X131321694Y-66264787D01*
X131482464Y-66147981D01*
X131622981Y-66007464D01*
X131727494Y-65863614D01*
X131782824Y-65820949D01*
X131827812Y-65812500D01*
X132076804Y-65812500D01*
X132076805Y-65812499D01*
X132198035Y-65788386D01*
X132257233Y-65763864D01*
X132291911Y-65749501D01*
X132299923Y-65746181D01*
X132312233Y-65741083D01*
X132415008Y-65672411D01*
X132502411Y-65585008D01*
X133183019Y-64904398D01*
X133244342Y-64870914D01*
X133314033Y-64875898D01*
X133369967Y-64917769D01*
X133394384Y-64983234D01*
X133394700Y-64992080D01*
X133394700Y-67679319D01*
X133425644Y-67834889D01*
X133425647Y-67834898D01*
X133486348Y-67981446D01*
X133486355Y-67981459D01*
X133574481Y-68113348D01*
X133574484Y-68113352D01*
X133686647Y-68225515D01*
X133686651Y-68225518D01*
X133818540Y-68313644D01*
X133818553Y-68313651D01*
X133880612Y-68339356D01*
X133965103Y-68374353D01*
X133965105Y-68374353D01*
X133965110Y-68374355D01*
X134120680Y-68405299D01*
X134120684Y-68405300D01*
X134120685Y-68405300D01*
X134279316Y-68405300D01*
X134279317Y-68405299D01*
X134331175Y-68394984D01*
X134434889Y-68374355D01*
X134434892Y-68374353D01*
X134434897Y-68374353D01*
X134581453Y-68313648D01*
X134713349Y-68225518D01*
X134825518Y-68113349D01*
X134913648Y-67981453D01*
X134974353Y-67834897D01*
X135005300Y-67679315D01*
X135005300Y-62310449D01*
X135005301Y-62310428D01*
X135005301Y-62145682D01*
X134974354Y-61990108D01*
X134974353Y-61990107D01*
X134974353Y-61990103D01*
X134951529Y-61935000D01*
X134913651Y-61843553D01*
X134913644Y-61843540D01*
X134825518Y-61711651D01*
X134825515Y-61711647D01*
X134710253Y-61596385D01*
X134710222Y-61596356D01*
X132401022Y-59287156D01*
X132367537Y-59225833D01*
X132372521Y-59156141D01*
X132392151Y-59121669D01*
X132448593Y-59051629D01*
X132478932Y-59004420D01*
X132527305Y-58907783D01*
X132557889Y-58767191D01*
X132563195Y-58693003D01*
X132552931Y-58549489D01*
X132502650Y-58414681D01*
X132467005Y-58349402D01*
X132380780Y-58234220D01*
X132380775Y-58234215D01*
X132380770Y-58234209D01*
X131745793Y-57599232D01*
X131734865Y-57589416D01*
X131705524Y-57563059D01*
X131705521Y-57563057D01*
X131705516Y-57563052D01*
X131683544Y-57545346D01*
X131683539Y-57545343D01*
X131639669Y-57513708D01*
X131639655Y-57513699D01*
X131508787Y-57453933D01*
X131438485Y-57433290D01*
X131437481Y-57432985D01*
X131359724Y-57421805D01*
X131295000Y-57412500D01*
X130660000Y-57412500D01*
X130659992Y-57412500D01*
X130659989Y-57412501D01*
X130620107Y-57416789D01*
X130606852Y-57417500D01*
X130584950Y-57417500D01*
X130567508Y-57419217D01*
X130486344Y-57427211D01*
X130486342Y-57427211D01*
X130339123Y-57456494D01*
X130244285Y-57485262D01*
X130105618Y-57542700D01*
X130105611Y-57542703D01*
X130018211Y-57589418D01*
X129893391Y-57672821D01*
X129826713Y-57693699D01*
X129759333Y-57675214D01*
X129712643Y-57623235D01*
X129700500Y-57569719D01*
X129700500Y-52800000D01*
X134200000Y-52800000D01*
X147400000Y-52800000D01*
X147400000Y-47400000D01*
X134200000Y-47400000D01*
X134200000Y-52800000D01*
X129700500Y-52800000D01*
X129700500Y-47024500D01*
X129720185Y-46957461D01*
X129772989Y-46911706D01*
X129824500Y-46900500D01*
X151575500Y-46900500D01*
X151642539Y-46920185D01*
G37*
%TD.AperFunction*%
%TA.AperFunction,Conductor*%
G36*
X148169227Y-89917152D02*
G01*
X148213574Y-89945653D01*
X148289707Y-90021786D01*
X148289711Y-90021789D01*
X148420814Y-90109390D01*
X148420827Y-90109397D01*
X148563461Y-90168477D01*
X148566503Y-90169737D01*
X148676987Y-90191713D01*
X148699691Y-90196230D01*
X148761602Y-90228615D01*
X148796176Y-90289330D01*
X148799500Y-90317847D01*
X148799500Y-94325276D01*
X148799500Y-94477124D01*
X148836462Y-94615070D01*
X148838802Y-94623800D01*
X148838802Y-94623801D01*
X148914722Y-94755298D01*
X148914727Y-94755304D01*
X149404333Y-95244910D01*
X149437818Y-95306233D01*
X149434583Y-95370909D01*
X149428587Y-95389362D01*
X149428587Y-95389364D01*
X149397500Y-95585639D01*
X149397500Y-95784361D01*
X149403789Y-95824069D01*
X149428587Y-95980637D01*
X149489993Y-96169629D01*
X149489994Y-96169632D01*
X149580213Y-96346694D01*
X149697019Y-96507464D01*
X149837536Y-96647981D01*
X149938673Y-96721461D01*
X149998307Y-96764788D01*
X150031670Y-96781787D01*
X150082467Y-96829761D01*
X150099262Y-96897582D01*
X150076725Y-96963717D01*
X150022010Y-97007169D01*
X149952489Y-97014142D01*
X149951185Y-97013889D01*
X149878846Y-96999500D01*
X149878842Y-96999500D01*
X149721158Y-96999500D01*
X149721155Y-96999500D01*
X149566510Y-97030261D01*
X149566498Y-97030264D01*
X149420827Y-97090602D01*
X149420814Y-97090609D01*
X149289711Y-97178210D01*
X149289707Y-97178213D01*
X149280940Y-97186981D01*
X149219617Y-97220466D01*
X149193259Y-97223300D01*
X148710918Y-97223300D01*
X148643879Y-97203615D01*
X148598124Y-97150811D01*
X148588180Y-97081653D01*
X148589301Y-97075109D01*
X148605299Y-96994677D01*
X148605300Y-96994674D01*
X148605300Y-96525409D01*
X148605301Y-96525388D01*
X148605301Y-96360643D01*
X148605300Y-96360639D01*
X148591758Y-96292560D01*
X148574354Y-96205062D01*
X148513648Y-96058506D01*
X148513646Y-96058503D01*
X148513644Y-96058499D01*
X148425518Y-95926610D01*
X148425515Y-95926606D01*
X147201660Y-94702751D01*
X147168175Y-94641428D01*
X147165341Y-94615070D01*
X147165341Y-90869886D01*
X147185026Y-90802847D01*
X147201656Y-90782209D01*
X148038212Y-89945652D01*
X148099535Y-89912168D01*
X148169227Y-89917152D01*
G37*
%TD.AperFunction*%
%TA.AperFunction,Conductor*%
G36*
X145575518Y-89939018D02*
G01*
X145631451Y-89980890D01*
X145655868Y-90046354D01*
X145646746Y-90102651D01*
X145585688Y-90250062D01*
X145585686Y-90250067D01*
X145554740Y-90405641D01*
X145554740Y-90570387D01*
X145554741Y-90570408D01*
X145554741Y-94070700D01*
X145535056Y-94137739D01*
X145482252Y-94183494D01*
X145430741Y-94194700D01*
X143584928Y-94194700D01*
X143555487Y-94186055D01*
X143525501Y-94179532D01*
X143520485Y-94175777D01*
X143517889Y-94175015D01*
X143497247Y-94158381D01*
X143441619Y-94102753D01*
X143408134Y-94041430D01*
X143405300Y-94015072D01*
X143405300Y-93120684D01*
X143405299Y-93120680D01*
X143374355Y-92965110D01*
X143374352Y-92965101D01*
X143313651Y-92818553D01*
X143313644Y-92818540D01*
X143225518Y-92686651D01*
X143225515Y-92686647D01*
X143113351Y-92574483D01*
X143093536Y-92561243D01*
X143073644Y-92547952D01*
X143028839Y-92494341D01*
X143020132Y-92425016D01*
X143050286Y-92361988D01*
X143054836Y-92357187D01*
X145444506Y-89967517D01*
X145505826Y-89934034D01*
X145575518Y-89939018D01*
G37*
%TD.AperFunction*%
%TA.AperFunction,Conductor*%
G36*
X151618834Y-73614125D02*
G01*
X151674767Y-73655997D01*
X151699184Y-73721461D01*
X151699500Y-73730307D01*
X151699500Y-82634606D01*
X151679815Y-82701645D01*
X151627011Y-82747400D01*
X151557853Y-82757344D01*
X151496835Y-82730459D01*
X151461725Y-82701645D01*
X151426588Y-82672808D01*
X151369415Y-82634606D01*
X151301787Y-82589418D01*
X151301788Y-82589418D01*
X151214388Y-82542703D01*
X151214381Y-82542700D01*
X151075714Y-82485262D01*
X151036310Y-82473309D01*
X150980884Y-82456496D01*
X150980879Y-82456495D01*
X150980876Y-82456494D01*
X150880041Y-82436437D01*
X150833667Y-82427213D01*
X150833665Y-82427212D01*
X150833656Y-82427211D01*
X150752491Y-82419217D01*
X150735050Y-82417500D01*
X150735048Y-82417500D01*
X150703645Y-82417500D01*
X150700511Y-82417460D01*
X150693214Y-82417275D01*
X150660000Y-82412500D01*
X150504334Y-82412500D01*
X150502752Y-82412460D01*
X150470912Y-82402230D01*
X150438847Y-82392815D01*
X150437017Y-82391340D01*
X150436231Y-82391088D01*
X150435299Y-82389956D01*
X150418205Y-82376181D01*
X145590819Y-77548794D01*
X145557334Y-77487471D01*
X145554500Y-77461113D01*
X145554500Y-76694947D01*
X145563939Y-76647494D01*
X145569737Y-76633497D01*
X145600500Y-76478842D01*
X145600500Y-76321158D01*
X145600500Y-76321155D01*
X145600499Y-76321153D01*
X145569738Y-76166510D01*
X145569737Y-76166503D01*
X145536663Y-76086655D01*
X145509397Y-76020827D01*
X145509390Y-76020814D01*
X145421789Y-75889711D01*
X145421786Y-75889707D01*
X145310292Y-75778213D01*
X145310288Y-75778210D01*
X145195542Y-75701539D01*
X145150737Y-75647927D01*
X145142030Y-75578602D01*
X145172184Y-75515574D01*
X145176710Y-75510798D01*
X145496693Y-75190816D01*
X145558014Y-75157334D01*
X145584372Y-75154500D01*
X146519554Y-75154500D01*
X146519574Y-75154501D01*
X146525688Y-75154501D01*
X146674314Y-75154501D01*
X146711009Y-75147200D01*
X146795894Y-75130315D01*
X146820080Y-75125505D01*
X146876955Y-75101946D01*
X146957389Y-75068630D01*
X147080966Y-74986059D01*
X147836867Y-74230156D01*
X147898190Y-74196672D01*
X147900357Y-74196221D01*
X147968952Y-74182575D01*
X148033497Y-74169737D01*
X148179179Y-74109394D01*
X148310289Y-74021789D01*
X148325436Y-74006641D01*
X148386757Y-73973155D01*
X148456449Y-73978138D01*
X148482010Y-73991220D01*
X148527159Y-74021388D01*
X148527162Y-74021390D01*
X148527167Y-74021393D01*
X148527169Y-74021394D01*
X148527173Y-74021396D01*
X148614576Y-74057598D01*
X148672849Y-74081736D01*
X148699691Y-74087075D01*
X148761601Y-74119458D01*
X148796176Y-74180174D01*
X148799500Y-74208692D01*
X148799500Y-76705243D01*
X148779815Y-76772282D01*
X148727011Y-76818037D01*
X148722953Y-76819804D01*
X148602459Y-76869714D01*
X148602449Y-76869719D01*
X148471346Y-76957320D01*
X148471342Y-76957323D01*
X148359848Y-77068817D01*
X148359845Y-77068821D01*
X148272244Y-77199924D01*
X148272237Y-77199937D01*
X148211899Y-77345608D01*
X148211896Y-77345620D01*
X148181135Y-77500263D01*
X148181135Y-77657956D01*
X148192109Y-77713127D01*
X148185882Y-77782719D01*
X148143018Y-77837896D01*
X148117945Y-77851879D01*
X148024454Y-77890604D01*
X148024444Y-77890609D01*
X147893341Y-77978210D01*
X147893337Y-77978213D01*
X147781843Y-78089707D01*
X147781840Y-78089711D01*
X147694239Y-78220814D01*
X147694232Y-78220827D01*
X147633894Y-78366498D01*
X147633891Y-78366510D01*
X147603130Y-78521153D01*
X147603130Y-78678846D01*
X147633891Y-78833489D01*
X147633894Y-78833501D01*
X147694232Y-78979172D01*
X147694239Y-78979185D01*
X147781840Y-79110288D01*
X147781843Y-79110292D01*
X147893337Y-79221786D01*
X147893341Y-79221789D01*
X148024444Y-79309390D01*
X148024457Y-79309397D01*
X148161635Y-79366217D01*
X148170133Y-79369737D01*
X148324783Y-79400499D01*
X148324786Y-79400500D01*
X148324788Y-79400500D01*
X148482474Y-79400500D01*
X148482475Y-79400499D01*
X148637127Y-79369737D01*
X148782809Y-79309394D01*
X148913919Y-79221789D01*
X148913922Y-79221786D01*
X148922690Y-79213019D01*
X148984013Y-79179534D01*
X149010371Y-79176700D01*
X149061052Y-79176700D01*
X149061054Y-79176700D01*
X149207728Y-79137399D01*
X149339232Y-79061475D01*
X150515475Y-77885232D01*
X150591399Y-77753728D01*
X150630700Y-77607054D01*
X150630700Y-77455206D01*
X150630700Y-74696050D01*
X150650385Y-74629011D01*
X150667017Y-74608370D01*
X150675789Y-74599599D01*
X150763394Y-74468489D01*
X150823737Y-74322807D01*
X150854500Y-74168152D01*
X150854500Y-74038337D01*
X150874185Y-73971298D01*
X150926989Y-73925543D01*
X150951082Y-73918280D01*
X150950907Y-73917548D01*
X150955632Y-73916413D01*
X150955636Y-73916413D01*
X151144632Y-73855005D01*
X151321694Y-73764787D01*
X151482464Y-73647981D01*
X151487819Y-73642626D01*
X151549142Y-73609141D01*
X151618834Y-73614125D01*
G37*
%TD.AperFunction*%
%TA.AperFunction,Conductor*%
G36*
X144142539Y-65832185D02*
G01*
X144188294Y-65884989D01*
X144199500Y-65936500D01*
X144199500Y-66078846D01*
X144230261Y-66233489D01*
X144230264Y-66233501D01*
X144290602Y-66379172D01*
X144290609Y-66379185D01*
X144357199Y-66478842D01*
X144378211Y-66510289D01*
X144386979Y-66519057D01*
X144420465Y-66580377D01*
X144423300Y-66606740D01*
X144423300Y-67324076D01*
X144423300Y-67475924D01*
X144447572Y-67566510D01*
X144462602Y-67622600D01*
X144462602Y-67622601D01*
X144538522Y-67754098D01*
X144538524Y-67754100D01*
X144538525Y-67754102D01*
X145045898Y-68261475D01*
X145045899Y-68261476D01*
X145045901Y-68261477D01*
X145061469Y-68270465D01*
X145177402Y-68337399D01*
X145324076Y-68376700D01*
X145475924Y-68376700D01*
X146309761Y-68376700D01*
X146376800Y-68396385D01*
X146397442Y-68413019D01*
X147186981Y-69202558D01*
X147220466Y-69263881D01*
X147223300Y-69290239D01*
X147223300Y-71123882D01*
X147203615Y-71190921D01*
X147150811Y-71236676D01*
X147146753Y-71238443D01*
X147020823Y-71290604D01*
X147020814Y-71290609D01*
X146889711Y-71378210D01*
X146889707Y-71378213D01*
X146778213Y-71489707D01*
X146778210Y-71489711D01*
X146690609Y-71620814D01*
X146690602Y-71620827D01*
X146630264Y-71766498D01*
X146630261Y-71766508D01*
X146602665Y-71905240D01*
X146570280Y-71967151D01*
X146509564Y-72001725D01*
X146505240Y-72002665D01*
X146366508Y-72030261D01*
X146366498Y-72030264D01*
X146220827Y-72090602D01*
X146220814Y-72090609D01*
X146089711Y-72178210D01*
X146089707Y-72178213D01*
X145978213Y-72289707D01*
X145978210Y-72289711D01*
X145890609Y-72420814D01*
X145890602Y-72420827D01*
X145830264Y-72566498D01*
X145830261Y-72566510D01*
X145799500Y-72721153D01*
X145799500Y-72878846D01*
X145830261Y-73033489D01*
X145830264Y-73033501D01*
X145890602Y-73179172D01*
X145890609Y-73179185D01*
X145978210Y-73310288D01*
X145978213Y-73310292D01*
X146089710Y-73421789D01*
X146094412Y-73425648D01*
X146133746Y-73483394D01*
X146135615Y-73553239D01*
X146099427Y-73613007D01*
X146036671Y-73643722D01*
X146015746Y-73645500D01*
X145300931Y-73645500D01*
X145300911Y-73645499D01*
X145294797Y-73645499D01*
X145146173Y-73645499D01*
X145146171Y-73645499D01*
X145031791Y-73668251D01*
X145031786Y-73668252D01*
X145024590Y-73669684D01*
X145000405Y-73674495D01*
X144960129Y-73691178D01*
X144955668Y-73693025D01*
X144955658Y-73693029D01*
X144863099Y-73731368D01*
X144863092Y-73731372D01*
X144739516Y-73813942D01*
X144739515Y-73813943D01*
X142932458Y-75621001D01*
X142871135Y-75654486D01*
X142801443Y-75649502D01*
X142745510Y-75607630D01*
X142721093Y-75542166D01*
X142720777Y-75533320D01*
X142720777Y-71831477D01*
X142720777Y-71831474D01*
X142719012Y-71822603D01*
X142719012Y-71822599D01*
X142700070Y-71727374D01*
X142696663Y-71710243D01*
X142651684Y-71601656D01*
X142650040Y-71597061D01*
X142580691Y-71493273D01*
X142580690Y-71493271D01*
X142537521Y-71450102D01*
X142493285Y-71405866D01*
X140096587Y-69009168D01*
X140063102Y-68947845D01*
X140068086Y-68878153D01*
X140105611Y-68825627D01*
X140110279Y-68821795D01*
X140110289Y-68821789D01*
X140221789Y-68710289D01*
X140309394Y-68579179D01*
X140369737Y-68433497D01*
X140391156Y-68325812D01*
X140423539Y-68263906D01*
X140425034Y-68262383D01*
X142838600Y-65848819D01*
X142899923Y-65815334D01*
X142926281Y-65812500D01*
X144075500Y-65812500D01*
X144142539Y-65832185D01*
G37*
%TD.AperFunction*%
%TA.AperFunction,Conductor*%
G36*
X148064852Y-65832185D02*
G01*
X148110607Y-65884989D01*
X148120551Y-65954147D01*
X148100916Y-66005390D01*
X148090608Y-66020816D01*
X148090602Y-66020827D01*
X148030264Y-66166498D01*
X148030261Y-66166510D01*
X147999500Y-66321153D01*
X147999500Y-66478846D01*
X148030261Y-66633489D01*
X148030264Y-66633501D01*
X148090602Y-66779172D01*
X148090609Y-66779185D01*
X148146303Y-66862536D01*
X148178211Y-66910289D01*
X148186979Y-66919057D01*
X148220465Y-66980377D01*
X148223300Y-67006740D01*
X148223300Y-68308361D01*
X148203615Y-68375400D01*
X148150811Y-68421155D01*
X148081653Y-68431099D01*
X148018097Y-68402074D01*
X148011619Y-68396042D01*
X146954104Y-67338527D01*
X146954098Y-67338522D01*
X146822600Y-67262602D01*
X146822599Y-67262601D01*
X146822598Y-67262601D01*
X146675924Y-67223300D01*
X146675923Y-67223300D01*
X145700700Y-67223300D01*
X145633661Y-67203615D01*
X145587906Y-67150811D01*
X145576700Y-67099300D01*
X145576700Y-66606740D01*
X145596385Y-66539701D01*
X145613017Y-66519060D01*
X145621789Y-66510289D01*
X145709394Y-66379179D01*
X145769737Y-66233497D01*
X145800500Y-66078842D01*
X145800500Y-65936500D01*
X145820185Y-65869461D01*
X145872989Y-65823706D01*
X145924500Y-65812500D01*
X147997813Y-65812500D01*
X148064852Y-65832185D01*
G37*
%TD.AperFunction*%
%TA.AperFunction,Conductor*%
G36*
X132627202Y-61791514D02*
G01*
X132633680Y-61797546D01*
X133358381Y-62522247D01*
X133391866Y-62583570D01*
X133394700Y-62609928D01*
X133394700Y-63075500D01*
X133375015Y-63142539D01*
X133322211Y-63188294D01*
X133270700Y-63199500D01*
X133121155Y-63199500D01*
X132966510Y-63230261D01*
X132966498Y-63230264D01*
X132820827Y-63290602D01*
X132820814Y-63290609D01*
X132689711Y-63378210D01*
X132689707Y-63378213D01*
X132578213Y-63489707D01*
X132578210Y-63489711D01*
X132490609Y-63620814D01*
X132490602Y-63620827D01*
X132430264Y-63766498D01*
X132430261Y-63766508D01*
X132408843Y-63874183D01*
X132376458Y-63936094D01*
X132374907Y-63937672D01*
X131863273Y-64449306D01*
X131801950Y-64482791D01*
X131732258Y-64477807D01*
X131676325Y-64435935D01*
X131675274Y-64434511D01*
X131660765Y-64414542D01*
X131622981Y-64362536D01*
X131482464Y-64222019D01*
X131321694Y-64105213D01*
X131268712Y-64078217D01*
X131144632Y-64014994D01*
X131144629Y-64014993D01*
X130955637Y-63953587D01*
X130845190Y-63936094D01*
X130759361Y-63922500D01*
X130560639Y-63922500D01*
X130495214Y-63932862D01*
X130364362Y-63953587D01*
X130175370Y-64014993D01*
X130175367Y-64014994D01*
X129998302Y-64105215D01*
X129897385Y-64178535D01*
X129831578Y-64202015D01*
X129763525Y-64186189D01*
X129714830Y-64136083D01*
X129700500Y-64078217D01*
X129700500Y-62892155D01*
X129720185Y-62825116D01*
X129772989Y-62779361D01*
X129842147Y-62769417D01*
X129905703Y-62798442D01*
X129943477Y-62857220D01*
X129944835Y-62862230D01*
X129947165Y-62871601D01*
X130032307Y-63043275D01*
X130152365Y-63192633D01*
X130152366Y-63192634D01*
X130301725Y-63312692D01*
X130301724Y-63312692D01*
X130473397Y-63397834D01*
X130659361Y-63444081D01*
X130659357Y-63444081D01*
X130702395Y-63446999D01*
X130909999Y-63446999D01*
X130910000Y-63446998D01*
X130910000Y-62473816D01*
X130926060Y-62489876D01*
X131012939Y-62540036D01*
X131109840Y-62566000D01*
X131210160Y-62566000D01*
X131307061Y-62540036D01*
X131393940Y-62489876D01*
X131410000Y-62473816D01*
X131410000Y-63446999D01*
X131617607Y-63446999D01*
X131617609Y-63446998D01*
X131660632Y-63444082D01*
X131660634Y-63444082D01*
X131846602Y-63397834D01*
X132018275Y-63312692D01*
X132167633Y-63192634D01*
X132167634Y-63192633D01*
X132287692Y-63043275D01*
X132372834Y-62871602D01*
X132419081Y-62685640D01*
X132422000Y-62642604D01*
X132422000Y-62435000D01*
X131448816Y-62435000D01*
X131464876Y-62418940D01*
X131515036Y-62332061D01*
X131541000Y-62235160D01*
X131541000Y-62134840D01*
X131515036Y-62037939D01*
X131464876Y-61951060D01*
X131448816Y-61935000D01*
X132421999Y-61935000D01*
X132421999Y-61885227D01*
X132441684Y-61818188D01*
X132494488Y-61772433D01*
X132563646Y-61762489D01*
X132627202Y-61791514D01*
G37*
%TD.AperFunction*%
%TA.AperFunction,Conductor*%
G36*
X129893391Y-59697178D02*
G01*
X130018212Y-59780581D01*
X130018211Y-59780581D01*
X130018217Y-59780584D01*
X130105612Y-59827297D01*
X130244287Y-59884738D01*
X130339116Y-59913504D01*
X130486333Y-59942787D01*
X130584950Y-59952500D01*
X130616355Y-59952500D01*
X130621275Y-59952598D01*
X130627672Y-59952852D01*
X130660000Y-59957500D01*
X130744724Y-59957500D01*
X130747192Y-59957598D01*
X130778057Y-59968007D01*
X130809311Y-59977185D01*
X130812221Y-59979530D01*
X130813398Y-59979927D01*
X130814636Y-59981476D01*
X130829953Y-59993819D01*
X131547453Y-60711319D01*
X131580938Y-60772642D01*
X131575954Y-60842334D01*
X131534082Y-60898267D01*
X131468618Y-60922684D01*
X131459772Y-60923000D01*
X131410000Y-60923000D01*
X131410000Y-61896184D01*
X131393940Y-61880124D01*
X131307061Y-61829964D01*
X131210160Y-61804000D01*
X131109840Y-61804000D01*
X131012939Y-61829964D01*
X130926060Y-61880124D01*
X130910000Y-61896184D01*
X130910000Y-60923000D01*
X130702394Y-60923000D01*
X130702390Y-60923001D01*
X130659367Y-60925917D01*
X130659365Y-60925917D01*
X130473397Y-60972165D01*
X130301724Y-61057307D01*
X130152366Y-61177365D01*
X130152365Y-61177366D01*
X130032307Y-61326724D01*
X129947166Y-61498396D01*
X129944835Y-61507771D01*
X129909552Y-61568078D01*
X129847267Y-61599736D01*
X129777753Y-61592695D01*
X129723081Y-61549189D01*
X129700609Y-61483032D01*
X129700500Y-61477844D01*
X129700500Y-59800280D01*
X129720185Y-59733241D01*
X129772989Y-59687486D01*
X129842147Y-59677542D01*
X129893391Y-59697178D01*
G37*
%TD.AperFunction*%
%TD*%
M02*
