M48
; DRILL file {KiCad 9.0.1} date 2025-04-24T12:07:01+0200
; FORMAT={-:-/ absolute / metric / decimal}
; #@! TF.CreationDate,2025-04-24T12:07:01+02:00
; #@! TF.GenerationSoftware,Kicad,Pcbnew,9.0.1
; #@! TF.FileFunction,Plated,1,2,PTH
FMAT,2
METRIC
; #@! TA.AperFunction,Plated,PTH,ViaDrill
T1C0.300
; #@! TA.AperFunction,Plated,PTH,ComponentDrill
T2C0.600
; #@! TA.AperFunction,Plated,PTH,ComponentDrill
T3C0.750
; #@! TA.AperFunction,Plated,PTH,ComponentDrill
T4C0.762
%
G90
G05
T1
X130.2Y-52.0
X130.2Y-56.0
X130.2Y-57.0
X130.6Y-74.8
X130.6Y-78.2
X131.0Y-72.6
X131.2Y-52.0
X132.2Y-52.0
X132.2Y-99.8
X132.2Y-102.0
X132.8Y-65.4
X133.0Y-67.6
X133.0Y-71.0
X133.0Y-73.2
X133.0Y-95.6
X133.2Y-62.8
X133.2Y-64.0
X133.4Y-52.0
X133.8Y-93.6
X134.2Y-67.6
X134.4Y-76.6
X134.4Y-102.8
X134.4Y-103.8
X134.934Y-98.354
X135.0Y-100.6
X135.6Y-72.0
X135.6Y-76.6
X135.6Y-93.6
X135.8Y-101.2
X136.0Y-54.8
X136.0Y-55.6
X136.0Y-56.4
X136.0Y-57.2
X136.0Y-58.0
X136.6Y-61.4
X136.8Y-54.8
X136.8Y-101.2
X137.0Y-58.6
X137.6Y-54.8
X137.8Y-67.8
X138.2Y-86.2
X138.2Y-87.6
X138.4Y-54.8
X138.6Y-67.8
X138.8Y-62.0
X138.8Y-66.8
X138.8Y-97.6
X139.2Y-54.8
X139.4Y-72.8
X139.6Y-68.2
X139.8Y-57.4
X139.8Y-59.4
X140.0Y-54.8
X140.2Y-98.2
X140.267Y-95.067
X140.6Y-84.6
X140.8Y-54.8
X140.8Y-65.8
X140.8Y-71.8
X141.0Y-87.6
X141.2Y-86.2
X141.6Y-54.8
X141.6Y-89.0
X141.8Y-57.4
X141.8Y-59.4
X141.8Y-98.4
X142.0Y-91.2
X142.093Y-76.237
X142.4Y-54.8
X142.4Y-96.4
X142.6Y-93.2
X142.8Y-66.4
X143.186Y-96.551
X143.2Y-54.8
X143.206Y-92.206
X143.4Y-98.6
X143.533Y-97.667
X143.6Y-66.4
X143.667Y-99.933
X143.8Y-77.0
X143.8Y-101.0
X144.0Y-54.8
X144.2Y-85.8
X144.377Y-68.781
X144.6Y-84.0
X144.8Y-54.8
X144.8Y-76.4
X144.95Y-101.2
X145.0Y-66.0
X145.2Y-58.6
X145.2Y-60.4
X145.2Y-61.8
X145.6Y-54.8
X145.6Y-83.6
X146.0Y-66.4
X146.4Y-85.8
X146.556Y-96.334
X146.6Y-69.4
X146.6Y-71.0
X146.6Y-72.8
X147.0Y-66.4
X147.4Y-72.0
X147.8Y-73.4
X147.8Y-91.4
X147.8Y-96.915
X148.0Y-66.4
X148.0Y-99.6
X148.0Y-105.0
X148.4Y-52.8
X148.4Y-54.0
X148.4Y-55.4
X148.4Y-71.6
X148.404Y-78.6
X148.6Y-59.4
X148.6Y-60.4
X148.8Y-66.4
X148.8Y-76.8
X148.8Y-89.4
X148.8Y-91.8
X148.8Y-93.2
X148.906Y-73.312
X148.982Y-77.579
X149.0Y-105.0
X149.292Y-88.692
X149.4Y-52.8
X149.6Y-66.4
X149.6Y-71.6
X149.8Y-61.2
X149.8Y-97.8
X150.054Y-74.089
X150.4Y-52.8
X150.4Y-78.0
X150.4Y-79.6
X150.4Y-81.2
X150.8Y-61.2
X151.2Y-98.2
X151.4Y-50.6
X151.4Y-51.8
X151.4Y-53.2
X151.4Y-54.4
T3
X139.46Y-80.5
X140.73Y-80.5
X142.0Y-80.5
T4
X130.66Y-58.685
X130.66Y-65.185
X130.66Y-68.185
X131.16Y-62.185
X131.16Y-70.685
X150.66Y-56.185
X150.66Y-58.685
X150.66Y-65.185
X150.66Y-67.685
X150.66Y-70.185
X150.66Y-72.685
X150.66Y-83.685
X150.66Y-86.185
X150.66Y-93.185
X150.66Y-95.685
X150.82Y-100.185
X150.82Y-102.45
T2
X136.4Y-102.47G85X136.4Y-103.57
G05
X136.4Y-106.8G85X136.4Y-107.6
G05
X145.04Y-102.47G85X145.04Y-103.57
G05
X145.04Y-106.8G85X145.04Y-107.6
G05
M30
