%TF.GenerationSoftware,KiCad,Pcbnew,9.0.1*%
%TF.CreationDate,2025-04-24T12:06:56+02:00*%
%TF.ProjectId,crimpdeq,6372696d-7064-4657-912e-6b696361645f,rev?*%
%TF.SameCoordinates,Original*%
%TF.FileFunction,Copper,L1,Top*%
%TF.FilePolarity,Positive*%
%FSLAX46Y46*%
G04 Gerber Fmt 4.6, Leading zero omitted, Abs format (unit mm)*
G04 Created by KiCad (PCBNEW 9.0.1) date 2025-04-24 12:06:56*
%MOMM*%
%LPD*%
G01*
G04 APERTURE LIST*
G04 Aperture macros list*
%AMRoundRect*
0 Rectangle with rounded corners*
0 $1 Rounding radius*
0 $2 $3 $4 $5 $6 $7 $8 $9 X,Y pos of 4 corners*
0 Add a 4 corners polygon primitive as box body*
4,1,4,$2,$3,$4,$5,$6,$7,$8,$9,$2,$3,0*
0 Add four circle primitives for the rounded corners*
1,1,$1+$1,$2,$3*
1,1,$1+$1,$4,$5*
1,1,$1+$1,$6,$7*
1,1,$1+$1,$8,$9*
0 Add four rect primitives between the rounded corners*
20,1,$1+$1,$2,$3,$4,$5,0*
20,1,$1+$1,$4,$5,$6,$7,0*
20,1,$1+$1,$6,$7,$8,$9,0*
20,1,$1+$1,$8,$9,$2,$3,0*%
%AMFreePoly0*
4,1,6,0.725000,-0.725000,-0.725000,-0.725000,-0.725000,0.125000,-0.125000,0.725000,0.725000,0.725000,0.725000,-0.725000,0.725000,-0.725000,$1*%
%AMFreePoly1*
4,1,31,0.703661,0.741839,0.724803,0.724803,1.359803,0.089803,1.394098,0.026996,1.388993,-0.044382,1.359803,-0.089803,0.724803,-0.724803,0.661996,-0.759098,0.635000,-0.762000,0.000000,-0.762000,-0.012495,-0.758331,-0.074689,-0.758331,-0.221197,-0.729189,-0.359204,-0.672024,-0.483408,-0.589034,-0.589034,-0.483408,-0.672024,-0.359204,-0.729189,-0.221197,-0.758331,-0.074689,-0.758331,0.074689,
-0.729189,0.221197,-0.672024,0.359204,-0.589034,0.483408,-0.483408,0.589034,-0.359204,0.672024,-0.221197,0.729189,-0.074689,0.758331,-0.016866,0.758331,0.000000,0.762000,0.635000,0.762000,0.703661,0.741839,0.703661,0.741839,$1*%
%AMFreePoly2*
4,1,31,0.012495,0.758331,0.074689,0.758331,0.221197,0.729189,0.359204,0.672024,0.483408,0.589034,0.589034,0.483408,0.672024,0.359204,0.729189,0.221197,0.758331,0.074689,0.758331,-0.074689,0.729189,-0.221197,0.672024,-0.359204,0.589034,-0.483408,0.483408,-0.589034,0.359204,-0.672024,0.221197,-0.729189,0.074689,-0.758331,0.016866,-0.758331,0.000000,-0.762000,-0.635000,-0.762000,
-0.703661,-0.741839,-0.724803,-0.724803,-1.359803,-0.089803,-1.394098,-0.026996,-1.388993,0.044382,-1.359803,0.089803,-0.724803,0.724803,-0.661996,0.759098,-0.635000,0.762000,0.000000,0.762000,0.012495,0.758331,0.012495,0.758331,$1*%
%AMFreePoly3*
4,1,24,0.635000,0.000000,0.631942,0.000000,0.631942,-0.062241,0.607657,-0.184331,0.560020,-0.299337,0.490862,-0.402840,0.402840,-0.490862,0.299337,-0.560020,0.184331,-0.607657,0.062241,-0.631942,-0.062241,-0.631942,-0.184331,-0.607657,-0.299337,-0.560020,-0.402840,-0.490862,-0.490862,-0.402840,-0.560020,-0.299337,-0.607657,-0.184331,-0.631942,-0.062241,-0.631942,0.000000,-0.635000,0.000000,
-0.635000,1.905000,0.000000,1.270000,0.635000,1.905000,0.635000,0.000000,0.635000,0.000000,$1*%
%AMFreePoly4*
4,1,24,0.635000,1.270000,0.635000,0.000000,0.631942,0.000000,0.631942,-0.062241,0.607657,-0.184331,0.560020,-0.299337,0.490862,-0.402840,0.402840,-0.490862,0.299337,-0.560020,0.184331,-0.607657,0.062241,-0.631942,-0.062241,-0.631942,-0.184331,-0.607657,-0.299337,-0.560020,-0.402840,-0.490862,-0.490862,-0.402840,-0.560020,-0.299337,-0.607657,-0.184331,-0.631942,-0.062241,-0.631942,0.000000,
-0.635000,0.000000,-0.635000,1.270000,0.000000,1.905000,0.635000,1.270000,0.635000,1.270000,$1*%
G04 Aperture macros list end*
%TA.AperFunction,SMDPad,CuDef*%
%ADD10RoundRect,0.135000X-0.135000X-0.185000X0.135000X-0.185000X0.135000X0.185000X-0.135000X0.185000X0*%
%TD*%
%TA.AperFunction,SMDPad,CuDef*%
%ADD11RoundRect,0.150000X-0.200000X0.150000X-0.200000X-0.150000X0.200000X-0.150000X0.200000X0.150000X0*%
%TD*%
%TA.AperFunction,SMDPad,CuDef*%
%ADD12RoundRect,0.250000X-0.250000X-0.475000X0.250000X-0.475000X0.250000X0.475000X-0.250000X0.475000X0*%
%TD*%
%TA.AperFunction,SMDPad,CuDef*%
%ADD13RoundRect,0.218750X-0.256250X0.218750X-0.256250X-0.218750X0.256250X-0.218750X0.256250X0.218750X0*%
%TD*%
%TA.AperFunction,SMDPad,CuDef*%
%ADD14RoundRect,0.140000X0.170000X-0.140000X0.170000X0.140000X-0.170000X0.140000X-0.170000X-0.140000X0*%
%TD*%
%TA.AperFunction,SMDPad,CuDef*%
%ADD15RoundRect,0.150000X-0.512500X-0.150000X0.512500X-0.150000X0.512500X0.150000X-0.512500X0.150000X0*%
%TD*%
%TA.AperFunction,SMDPad,CuDef*%
%ADD16RoundRect,0.225000X-0.250000X0.225000X-0.250000X-0.225000X0.250000X-0.225000X0.250000X0.225000X0*%
%TD*%
%TA.AperFunction,SMDPad,CuDef*%
%ADD17RoundRect,0.225000X-0.225000X-0.250000X0.225000X-0.250000X0.225000X0.250000X-0.225000X0.250000X0*%
%TD*%
%TA.AperFunction,SMDPad,CuDef*%
%ADD18RoundRect,0.135000X-0.185000X0.135000X-0.185000X-0.135000X0.185000X-0.135000X0.185000X0.135000X0*%
%TD*%
%TA.AperFunction,SMDPad,CuDef*%
%ADD19RoundRect,0.225000X0.250000X-0.225000X0.250000X0.225000X-0.250000X0.225000X-0.250000X-0.225000X0*%
%TD*%
%TA.AperFunction,SMDPad,CuDef*%
%ADD20RoundRect,0.140000X-0.170000X0.140000X-0.170000X-0.140000X0.170000X-0.140000X0.170000X0.140000X0*%
%TD*%
%TA.AperFunction,SMDPad,CuDef*%
%ADD21RoundRect,0.150000X-0.150000X0.587500X-0.150000X-0.587500X0.150000X-0.587500X0.150000X0.587500X0*%
%TD*%
%TA.AperFunction,SMDPad,CuDef*%
%ADD22R,0.650000X1.050000*%
%TD*%
%TA.AperFunction,SMDPad,CuDef*%
%ADD23RoundRect,0.135000X0.135000X0.185000X-0.135000X0.185000X-0.135000X-0.185000X0.135000X-0.185000X0*%
%TD*%
%TA.AperFunction,SMDPad,CuDef*%
%ADD24RoundRect,0.225000X0.225000X0.375000X-0.225000X0.375000X-0.225000X-0.375000X0.225000X-0.375000X0*%
%TD*%
%TA.AperFunction,SMDPad,CuDef*%
%ADD25RoundRect,0.150000X0.150000X-0.512500X0.150000X0.512500X-0.150000X0.512500X-0.150000X-0.512500X0*%
%TD*%
%TA.AperFunction,SMDPad,CuDef*%
%ADD26RoundRect,0.135000X0.185000X-0.135000X0.185000X0.135000X-0.185000X0.135000X-0.185000X-0.135000X0*%
%TD*%
%TA.AperFunction,SMDPad,CuDef*%
%ADD27R,0.800000X0.400000*%
%TD*%
%TA.AperFunction,SMDPad,CuDef*%
%ADD28R,0.400000X0.800000*%
%TD*%
%TA.AperFunction,SMDPad,CuDef*%
%ADD29FreePoly0,0.000000*%
%TD*%
%TA.AperFunction,SMDPad,CuDef*%
%ADD30R,1.450000X1.450000*%
%TD*%
%TA.AperFunction,SMDPad,CuDef*%
%ADD31R,0.700000X0.700000*%
%TD*%
%TA.AperFunction,SMDPad,CuDef*%
%ADD32R,1.500000X3.600000*%
%TD*%
%TA.AperFunction,ComponentPad*%
%ADD33R,1.050000X1.500000*%
%TD*%
%TA.AperFunction,ComponentPad*%
%ADD34O,1.050000X1.500000*%
%TD*%
%TA.AperFunction,SMDPad,CuDef*%
%ADD35R,1.000000X1.800000*%
%TD*%
%TA.AperFunction,SMDPad,CuDef*%
%ADD36RoundRect,0.250000X0.250000X0.475000X-0.250000X0.475000X-0.250000X-0.475000X0.250000X-0.475000X0*%
%TD*%
%TA.AperFunction,SMDPad,CuDef*%
%ADD37RoundRect,0.225000X-0.375000X0.225000X-0.375000X-0.225000X0.375000X-0.225000X0.375000X0.225000X0*%
%TD*%
%TA.AperFunction,SMDPad,CuDef*%
%ADD38RoundRect,0.140000X0.140000X0.170000X-0.140000X0.170000X-0.140000X-0.170000X0.140000X-0.170000X0*%
%TD*%
%TA.AperFunction,ComponentPad*%
%ADD39FreePoly1,0.000000*%
%TD*%
%TA.AperFunction,ComponentPad*%
%ADD40RoundRect,0.381000X-0.381000X-0.381000X0.381000X-0.381000X0.381000X0.381000X-0.381000X0.381000X0*%
%TD*%
%TA.AperFunction,ComponentPad*%
%ADD41C,1.524000*%
%TD*%
%TA.AperFunction,ComponentPad*%
%ADD42FreePoly2,0.000000*%
%TD*%
%TA.AperFunction,ComponentPad*%
%ADD43FreePoly3,90.000000*%
%TD*%
%TA.AperFunction,ComponentPad*%
%ADD44FreePoly4,90.000000*%
%TD*%
%TA.AperFunction,SMDPad,CuDef*%
%ADD45RoundRect,0.050000X0.150000X0.300000X-0.150000X0.300000X-0.150000X-0.300000X0.150000X-0.300000X0*%
%TD*%
%TA.AperFunction,SMDPad,CuDef*%
%ADD46RoundRect,0.150000X0.150000X-0.850000X0.150000X0.850000X-0.150000X0.850000X-0.150000X-0.850000X0*%
%TD*%
%TA.AperFunction,SMDPad,CuDef*%
%ADD47R,0.600000X1.150000*%
%TD*%
%TA.AperFunction,SMDPad,CuDef*%
%ADD48R,0.300000X1.150000*%
%TD*%
%TA.AperFunction,ComponentPad*%
%ADD49O,1.050000X2.100000*%
%TD*%
%TA.AperFunction,ComponentPad*%
%ADD50O,1.000000X2.000000*%
%TD*%
%TA.AperFunction,ViaPad*%
%ADD51C,0.600000*%
%TD*%
%TA.AperFunction,Conductor*%
%ADD52C,0.254000*%
%TD*%
%TA.AperFunction,Conductor*%
%ADD53C,0.508000*%
%TD*%
%TA.AperFunction,Conductor*%
%ADD54C,0.406400*%
%TD*%
%TA.AperFunction,Conductor*%
%ADD55C,0.609600*%
%TD*%
%TA.AperFunction,Conductor*%
%ADD56C,0.152400*%
%TD*%
%TA.AperFunction,Conductor*%
%ADD57C,0.200000*%
%TD*%
G04 APERTURE END LIST*
D10*
%TO.P,R8,1*%
%TO.N,Net-(U3-INA-)*%
X148180000Y-70200000D03*
%TO.P,R8,2*%
%TO.N,A-*%
X149200000Y-70200000D03*
%TD*%
D11*
%TO.P,D10,1,A1*%
%TO.N,USB_D+*%
X141000000Y-100800000D03*
%TO.P,D10,2,A2*%
%TO.N,GND*%
X141000000Y-99400000D03*
%TD*%
D12*
%TO.P,C17,1*%
%TO.N,+3V3*%
X133650000Y-87200000D03*
%TO.P,C17,2*%
%TO.N,GND*%
X135550000Y-87200000D03*
%TD*%
D13*
%TO.P,D1,1,K*%
%TO.N,Net-(D1-K)*%
X134400000Y-94812500D03*
%TO.P,D1,2,A*%
%TO.N,VBUS*%
X134400000Y-96387500D03*
%TD*%
D14*
%TO.P,C7,1*%
%TO.N,IO0*%
X133600000Y-65880000D03*
%TO.P,C7,2*%
%TO.N,GND*%
X133600000Y-64920000D03*
%TD*%
D11*
%TO.P,D9,1,A1*%
%TO.N,Net-(D8-A)*%
X142800000Y-100900000D03*
%TO.P,D9,2,A2*%
%TO.N,GND*%
X142800000Y-99500000D03*
%TD*%
D15*
%TO.P,U6,1,EN*%
%TO.N,ENABLE*%
X143450000Y-88200000D03*
%TO.P,U6,2,GND*%
%TO.N,GND*%
X143450000Y-89150000D03*
%TO.P,U6,3,LX*%
%TO.N,/Buck_Coil*%
X143450000Y-90100000D03*
%TO.P,U6,4,IN*%
%TO.N,+5V*%
X145725000Y-90100000D03*
%TO.P,U6,5,FB*%
%TO.N,Net-(U6-FB)*%
X145725000Y-88200000D03*
%TD*%
D11*
%TO.P,D7,1,A1*%
%TO.N,USB_D-*%
X139200000Y-100800000D03*
%TO.P,D7,2,A2*%
%TO.N,GND*%
X139200000Y-99400000D03*
%TD*%
D16*
%TO.P,C16,1*%
%TO.N,+3V3*%
X147650000Y-88200000D03*
%TO.P,C16,2*%
%TO.N,Net-(U6-FB)*%
X147650000Y-89750000D03*
%TD*%
D17*
%TO.P,C10,1*%
%TO.N,E+*%
X141725000Y-83500000D03*
%TO.P,C10,2*%
%TO.N,GND*%
X143275000Y-83500000D03*
%TD*%
D10*
%TO.P,R6,1*%
%TO.N,Net-(U3-VFB)*%
X141690000Y-77000000D03*
%TO.P,R6,2*%
%TO.N,GND*%
X142710000Y-77000000D03*
%TD*%
D16*
%TO.P,C11,1*%
%TO.N,GND*%
X145200000Y-70000000D03*
%TO.P,C11,2*%
%TO.N,Net-(U3-VBG)*%
X145200000Y-71550000D03*
%TD*%
D18*
%TO.P,R19,1*%
%TO.N,Net-(J2-CC1)*%
X134800000Y-104890000D03*
%TO.P,R19,2*%
%TO.N,GND*%
X134800000Y-105910000D03*
%TD*%
D19*
%TO.P,C12,1*%
%TO.N,Net-(U3-INA+)*%
X145200000Y-74750000D03*
%TO.P,C12,2*%
%TO.N,Net-(U3-INA-)*%
X145200000Y-73200000D03*
%TD*%
D20*
%TO.P,C3,1*%
%TO.N,CHIP_PU*%
X133200000Y-59120000D03*
%TO.P,C3,2*%
%TO.N,GND*%
X133200000Y-60080000D03*
%TD*%
D10*
%TO.P,R11,1*%
%TO.N,IO1_ADC*%
X139890000Y-64800000D03*
%TO.P,R11,2*%
%TO.N,GND*%
X140910000Y-64800000D03*
%TD*%
D21*
%TO.P,Q2,1,G*%
%TO.N,VBUS*%
X146800000Y-98262500D03*
%TO.P,Q2,2,S*%
%TO.N,+5V*%
X144900000Y-98262500D03*
%TO.P,Q2,3,D*%
%TO.N,+BATT*%
X145850000Y-100137500D03*
%TD*%
D22*
%TO.P,SW2,1,1*%
%TO.N,IO9_BOOT*%
X144925000Y-82075000D03*
X144925000Y-77925000D03*
%TO.P,SW2,2,2*%
%TO.N,GND*%
X147075000Y-82075000D03*
X147075000Y-77925000D03*
%TD*%
D14*
%TO.P,C1,1*%
%TO.N,+3V3*%
X133200000Y-54400000D03*
%TO.P,C1,2*%
%TO.N,GND*%
X133200000Y-53440000D03*
%TD*%
%TO.P,C4,1*%
%TO.N,+3V3*%
X130800000Y-54400000D03*
%TO.P,C4,2*%
%TO.N,GND*%
X130800000Y-53440000D03*
%TD*%
D23*
%TO.P,R15,1*%
%TO.N,+3V3*%
X147870000Y-86800000D03*
%TO.P,R15,2*%
%TO.N,Net-(U6-FB)*%
X146850000Y-86800000D03*
%TD*%
D24*
%TO.P,D2,1,K*%
%TO.N,+5V*%
X146850000Y-94800000D03*
%TO.P,D2,2,A*%
%TO.N,VBUS*%
X143550000Y-94800000D03*
%TD*%
D25*
%TO.P,U2,1,STAT*%
%TO.N,Net-(U2-STAT)*%
X139300000Y-96275000D03*
%TO.P,U2,2,VSS*%
%TO.N,GND*%
X140250000Y-96275000D03*
%TO.P,U2,3,VBAT*%
%TO.N,+BATT*%
X141200000Y-96275000D03*
%TO.P,U2,4,VDD*%
%TO.N,VBUS*%
X141200000Y-94000000D03*
%TO.P,U2,5,PROG*%
%TO.N,Net-(U2-PROG)*%
X139300000Y-94000000D03*
%TD*%
D18*
%TO.P,R9,1*%
%TO.N,VBUS*%
X148600000Y-97690000D03*
%TO.P,R9,2*%
%TO.N,GND*%
X148600000Y-98710000D03*
%TD*%
D23*
%TO.P,R10,1*%
%TO.N,+3V3*%
X148910000Y-74375000D03*
%TO.P,R10,2*%
%TO.N,IO9_BOOT*%
X147890000Y-74375000D03*
%TD*%
D18*
%TO.P,R18,1*%
%TO.N,Net-(J2-CC2)*%
X146600000Y-105490000D03*
%TO.P,R18,2*%
%TO.N,GND*%
X146600000Y-106510000D03*
%TD*%
D26*
%TO.P,R17,1*%
%TO.N,Net-(J2-SHELL_GND-PadS1)*%
X134800000Y-108020000D03*
%TO.P,R17,2*%
%TO.N,GND*%
X134800000Y-107000000D03*
%TD*%
D27*
%TO.P,U1,1,GND*%
%TO.N,GND*%
X134900000Y-54400000D03*
%TO.P,U1,2,GND*%
X134900000Y-55200000D03*
%TO.P,U1,3,3V3*%
%TO.N,+3V3*%
X134900000Y-56000000D03*
%TO.P,U1,4,NC*%
%TO.N,unconnected-(U1-NC-Pad4)*%
X134900000Y-56800000D03*
%TO.P,U1,5,GPIO2/ADC1_CH2*%
%TO.N,unconnected-(U1-GPIO2{slash}ADC1_CH2-Pad5)*%
X134900000Y-57600000D03*
%TO.P,U1,6,GPIO3/ADC1_CH3*%
%TO.N,unconnected-(U1-GPIO3{slash}ADC1_CH3-Pad6)*%
X134900000Y-58400000D03*
%TO.P,U1,7,NC*%
%TO.N,unconnected-(U1-NC-Pad7)*%
X134900000Y-59200000D03*
%TO.P,U1,8,EN/CHIP_PU*%
%TO.N,CHIP_PU*%
X134900000Y-60000000D03*
%TO.P,U1,9,NC*%
%TO.N,unconnected-(U1-NC-Pad9)*%
X134900000Y-60800000D03*
%TO.P,U1,10,NC*%
%TO.N,unconnected-(U1-NC-Pad10)*%
X134900000Y-61600000D03*
%TO.P,U1,11,GND*%
%TO.N,GND*%
X134900000Y-62400000D03*
D28*
%TO.P,U1,12,GPIO0/ADC1_CH0/XTAL_32K_P*%
%TO.N,unconnected-(U1-GPIO0{slash}ADC1_CH0{slash}XTAL_32K_P-Pad12)*%
X136000000Y-63300000D03*
%TO.P,U1,13,GPIO1/ADC1_CH1/XTAL_32K_N*%
%TO.N,IO1_ADC*%
X136800000Y-63300000D03*
%TO.P,U1,14,GND*%
%TO.N,GND*%
X137600000Y-63300000D03*
%TO.P,U1,15,NC*%
%TO.N,unconnected-(U1-NC-Pad15)*%
X138400000Y-63300000D03*
%TO.P,U1,16,GPIO10*%
%TO.N,unconnected-(U1-GPIO10-Pad16)*%
X139200000Y-63300000D03*
%TO.P,U1,17,NC*%
%TO.N,unconnected-(U1-NC-Pad17)*%
X140000000Y-63300000D03*
%TO.P,U1,18,GPIO4/ADC1_CH4*%
%TO.N,IO4_DATA*%
X140800000Y-63300000D03*
%TO.P,U1,19,GPIO5/ADC2_CH0*%
%TO.N,IO5_SCK*%
X141600000Y-63300000D03*
%TO.P,U1,20,GPIO6*%
%TO.N,unconnected-(U1-GPIO6-Pad20)*%
X142400000Y-63300000D03*
%TO.P,U1,21,GPIO7*%
%TO.N,unconnected-(U1-GPIO7-Pad21)*%
X143200000Y-63300000D03*
%TO.P,U1,22,GPIO8*%
%TO.N,unconnected-(U1-GPIO8-Pad22)*%
X144000000Y-63300000D03*
%TO.P,U1,23,GPIO9*%
%TO.N,IO9_BOOT*%
X144800000Y-63300000D03*
%TO.P,U1,24,NC*%
%TO.N,unconnected-(U1-NC-Pad24)*%
X145600000Y-63300000D03*
D27*
%TO.P,U1,25,NC*%
%TO.N,unconnected-(U1-NC-Pad25)*%
X146700000Y-62400000D03*
%TO.P,U1,26,GPIO18/USB_D-*%
%TO.N,USB_D-*%
X146700000Y-61600000D03*
%TO.P,U1,27,GPIO19/USB_D+*%
%TO.N,USB_D+*%
X146700000Y-60800000D03*
%TO.P,U1,28,NC*%
%TO.N,unconnected-(U1-NC-Pad28)*%
X146700000Y-60000000D03*
%TO.P,U1,29,NC*%
%TO.N,unconnected-(U1-NC-Pad29)*%
X146700000Y-59200000D03*
%TO.P,U1,30,GPIO20/U0RXD*%
%TO.N,IO20_RX*%
X146700000Y-58400000D03*
%TO.P,U1,31,GPIO21/U0TXD*%
%TO.N,IO21_TX*%
X146700000Y-57600000D03*
%TO.P,U1,32,NC*%
%TO.N,unconnected-(U1-NC-Pad32)*%
X146700000Y-56800000D03*
%TO.P,U1,33,NC*%
%TO.N,unconnected-(U1-NC-Pad33)*%
X146700000Y-56000000D03*
%TO.P,U1,34,NC*%
%TO.N,unconnected-(U1-NC-Pad34)*%
X146700000Y-55200000D03*
%TO.P,U1,35,NC*%
%TO.N,unconnected-(U1-NC-Pad35)*%
X146700000Y-54400000D03*
D28*
%TO.P,U1,36,GND*%
%TO.N,GND*%
X145600000Y-53500000D03*
%TO.P,U1,37*%
%TO.N,N/C*%
X144800000Y-53500000D03*
%TO.P,U1,38*%
X144000000Y-53500000D03*
%TO.P,U1,39*%
X143200000Y-53500000D03*
%TO.P,U1,40*%
X142400000Y-53500000D03*
%TO.P,U1,41*%
X141600000Y-53500000D03*
%TO.P,U1,42*%
X140800000Y-53500000D03*
%TO.P,U1,43*%
X140000000Y-53500000D03*
%TO.P,U1,44*%
X139200000Y-53500000D03*
%TO.P,U1,45*%
X138400000Y-53500000D03*
%TO.P,U1,46*%
X137600000Y-53500000D03*
%TO.P,U1,47*%
X136800000Y-53500000D03*
%TO.P,U1,48*%
X136000000Y-53500000D03*
D29*
%TO.P,U1,49*%
%TO.N,GND*%
X138825000Y-56425000D03*
D30*
X138825000Y-58400000D03*
X138825000Y-60375000D03*
X140800000Y-56425000D03*
X140800000Y-58400000D03*
X140800000Y-60375000D03*
X142775000Y-56425000D03*
X142775000Y-58400000D03*
X142775000Y-60375000D03*
D31*
%TO.P,U1,50*%
%TO.N,N/C*%
X146750000Y-53450000D03*
%TO.P,U1,51*%
X146750000Y-63350000D03*
%TO.P,U1,52*%
X134850000Y-63350000D03*
%TO.P,U1,53*%
X134850000Y-53450000D03*
%TD*%
D23*
%TO.P,R3,1*%
%TO.N,Net-(U2-STAT)*%
X137620000Y-95200000D03*
%TO.P,R3,2*%
%TO.N,Net-(D1-K)*%
X136600000Y-95200000D03*
%TD*%
D32*
%TO.P,L1,1*%
%TO.N,/Buck_Coil*%
X136925000Y-90800000D03*
%TO.P,L1,2*%
%TO.N,+3V3*%
X133875000Y-90800000D03*
%TD*%
D14*
%TO.P,C2,1*%
%TO.N,+3V3*%
X132000000Y-54400000D03*
%TO.P,C2,2*%
%TO.N,GND*%
X132000000Y-53440000D03*
%TD*%
D26*
%TO.P,R16,1*%
%TO.N,Net-(U6-FB)*%
X145340000Y-86910000D03*
%TO.P,R16,2*%
%TO.N,GND*%
X145340000Y-85890000D03*
%TD*%
D33*
%TO.P,Q1,1,E*%
%TO.N,+3V3*%
X139460000Y-80500000D03*
D34*
%TO.P,Q1,2,B*%
%TO.N,Net-(Q1-B)*%
X140730000Y-80500000D03*
%TO.P,Q1,3,C*%
%TO.N,E+*%
X142000000Y-80500000D03*
%TD*%
D26*
%TO.P,R12,1*%
%TO.N,+BATT*%
X139800000Y-66910000D03*
%TO.P,R12,2*%
%TO.N,IO1_ADC*%
X139800000Y-65890000D03*
%TD*%
D20*
%TO.P,C8,1*%
%TO.N,IO1*%
X138800000Y-64920000D03*
%TO.P,C8,2*%
%TO.N,GND*%
X138800000Y-65880000D03*
%TD*%
D18*
%TO.P,R1,1*%
%TO.N,+3V3*%
X133200000Y-57090000D03*
%TO.P,R1,2*%
%TO.N,CHIP_PU*%
X133200000Y-58110000D03*
%TD*%
D23*
%TO.P,R14,1*%
%TO.N,+5V*%
X143850000Y-86800000D03*
%TO.P,R14,2*%
%TO.N,ENABLE*%
X142830000Y-86800000D03*
%TD*%
D35*
%TO.P,Y1,1,1*%
%TO.N,IO0*%
X134950000Y-65600000D03*
%TO.P,Y1,2,2*%
%TO.N,IO1*%
X137450000Y-65600000D03*
%TD*%
D26*
%TO.P,R7,1*%
%TO.N,Net-(U3-INA+)*%
X146600000Y-75085000D03*
%TO.P,R7,2*%
%TO.N,A+*%
X146600000Y-74065000D03*
%TD*%
D17*
%TO.P,C9,1*%
%TO.N,+3V3*%
X138450000Y-83500000D03*
%TO.P,C9,2*%
%TO.N,GND*%
X140000000Y-83500000D03*
%TD*%
%TO.P,C5,1*%
%TO.N,GND*%
X139225000Y-92200000D03*
%TO.P,C5,2*%
%TO.N,VBUS*%
X140775000Y-92200000D03*
%TD*%
D36*
%TO.P,C15,1*%
%TO.N,+5V*%
X146000000Y-92200000D03*
%TO.P,C15,2*%
%TO.N,GND*%
X144100000Y-92200000D03*
%TD*%
D16*
%TO.P,C6,1*%
%TO.N,+BATT*%
X147400000Y-102025000D03*
%TO.P,C6,2*%
%TO.N,GND*%
X147400000Y-103575000D03*
%TD*%
D37*
%TO.P,D8,1,K*%
%TO.N,VBUS*%
X136800000Y-96550000D03*
%TO.P,D8,2,A*%
%TO.N,Net-(D8-A)*%
X136800000Y-99850000D03*
%TD*%
D22*
%TO.P,SW1,1,1*%
%TO.N,CHIP_PU*%
X134425000Y-82075000D03*
X134425000Y-77925000D03*
%TO.P,SW1,2,2*%
%TO.N,GND*%
X136575000Y-82075000D03*
X136575000Y-77925000D03*
%TD*%
D38*
%TO.P,C14,1*%
%TO.N,GND*%
X148880000Y-75575000D03*
%TO.P,C14,2*%
%TO.N,IO9_BOOT*%
X147920000Y-75575000D03*
%TD*%
D10*
%TO.P,R2,1*%
%TO.N,GND*%
X136690000Y-94000000D03*
%TO.P,R2,2*%
%TO.N,Net-(U2-PROG)*%
X137710000Y-94000000D03*
%TD*%
D39*
%TO.P,U4,1,3V3*%
%TO.N,+3V3*%
X130660000Y-58685000D03*
D40*
%TO.P,U4,2,GND*%
%TO.N,GND*%
X131160000Y-62185000D03*
D41*
%TO.P,U4,3,A1/GPIO1*%
%TO.N,IO1_ADC*%
X130660000Y-65185000D03*
%TO.P,U4,4,A4/GPIO4*%
%TO.N,IO4_DATA*%
X150660000Y-65185000D03*
%TO.P,U4,5,A5/GPIO5*%
%TO.N,IO5_SCK*%
X150660000Y-67685000D03*
%TO.P,U4,6,TXD/GPIO21*%
%TO.N,IO21_TX*%
X150660000Y-56185000D03*
%TO.P,U4,7,RXD/GPIO20*%
%TO.N,IO20_RX*%
X150660000Y-58685000D03*
%TO.P,U4,8,USB_D-/GPIO18*%
%TO.N,USB_D-*%
X150660000Y-93185000D03*
%TO.P,U4,9,USB_D+/GPIO19*%
%TO.N,USB_D+*%
X150660000Y-95685000D03*
D42*
%TO.P,U4,10,VBUS*%
%TO.N,VBUS*%
X150660000Y-86185000D03*
%TO.P,U4,11,VBAT*%
%TO.N,+BATT*%
X150660000Y-83685000D03*
D41*
%TO.P,U4,12,A+*%
%TO.N,A+*%
X150660000Y-72685000D03*
%TO.P,U4,13,A-*%
%TO.N,A-*%
X150660000Y-70185000D03*
D40*
%TO.P,U4,14,E-*%
%TO.N,GND*%
X131160000Y-70685000D03*
D41*
%TO.P,U4,15,E+*%
%TO.N,E+*%
X130660000Y-68185000D03*
D43*
%TO.P,U4,16,BAT-*%
%TO.N,GND*%
X150820000Y-102450000D03*
D44*
%TO.P,U4,17,BAT+*%
%TO.N,+BATT*%
X150820000Y-100185000D03*
%TD*%
D45*
%TO.P,D3,1,A1*%
%TO.N,+3V3*%
X131950000Y-56000000D03*
%TO.P,D3,2,A2*%
%TO.N,GND*%
X131250000Y-56000000D03*
%TD*%
D10*
%TO.P,R5,1*%
%TO.N,E+*%
X138980000Y-77000000D03*
%TO.P,R5,2*%
%TO.N,Net-(U3-VFB)*%
X140000000Y-77000000D03*
%TD*%
D46*
%TO.P,U3,1,VSUP*%
%TO.N,+3V3*%
X134355000Y-74700000D03*
%TO.P,U3,2,BASE*%
%TO.N,Net-(Q1-B)*%
X135625000Y-74700000D03*
%TO.P,U3,3,AVDD*%
%TO.N,E+*%
X136895000Y-74700000D03*
%TO.P,U3,4,VFB*%
%TO.N,Net-(U3-VFB)*%
X138165000Y-74700000D03*
%TO.P,U3,5,AGND*%
%TO.N,GND*%
X139435000Y-74700000D03*
%TO.P,U3,6,VBG*%
%TO.N,Net-(U3-VBG)*%
X140705000Y-74700000D03*
%TO.P,U3,7,INA-*%
%TO.N,Net-(U3-INA-)*%
X141975000Y-74700000D03*
%TO.P,U3,8,INA+*%
%TO.N,Net-(U3-INA+)*%
X143245000Y-74700000D03*
%TO.P,U3,9,INB-*%
%TO.N,GND*%
X143245000Y-69700000D03*
%TO.P,U3,10,INB+*%
X141975000Y-69700000D03*
%TO.P,U3,11,PD_SCK*%
%TO.N,IO5_SCK*%
X140705000Y-69700000D03*
%TO.P,U3,12,DOUT*%
%TO.N,IO4_DATA*%
X139435000Y-69700000D03*
%TO.P,U3,13,XO*%
%TO.N,unconnected-(U3-XO-Pad13)*%
X138165000Y-69700000D03*
%TO.P,U3,14,XI*%
%TO.N,GND*%
X136895000Y-69700000D03*
%TO.P,U3,15,RATE*%
%TO.N,+3V3*%
X135625000Y-69700000D03*
%TO.P,U3,16,DVDD*%
X134355000Y-69700000D03*
%TD*%
D10*
%TO.P,R4,1*%
%TO.N,IO0*%
X135690000Y-67400000D03*
%TO.P,R4,2*%
%TO.N,IO1*%
X136710000Y-67400000D03*
%TD*%
D47*
%TO.P,J2,A1_B12,GND*%
%TO.N,GND*%
X137520000Y-102445000D03*
%TO.P,J2,A4_B9,VBUS*%
%TO.N,Net-(D8-A)*%
X138320000Y-102445000D03*
D48*
%TO.P,J2,A5,CC1*%
%TO.N,Net-(J2-CC1)*%
X139470000Y-102445000D03*
%TO.P,J2,A6,DP1*%
%TO.N,USB_D+*%
X140470000Y-102445000D03*
%TO.P,J2,A7,DN1*%
%TO.N,USB_D-*%
X140970000Y-102445000D03*
%TO.P,J2,A8,SBU1*%
%TO.N,unconnected-(J2-SBU1-PadA8)*%
X141970000Y-102445000D03*
D47*
%TO.P,J2,B1_A12,GND*%
%TO.N,GND*%
X143920000Y-102445000D03*
%TO.P,J2,B4_A9,VBUS*%
%TO.N,Net-(D8-A)*%
X143120000Y-102445000D03*
D48*
%TO.P,J2,B5,CC2*%
%TO.N,Net-(J2-CC2)*%
X142470000Y-102445000D03*
%TO.P,J2,B6,DP2*%
%TO.N,USB_D+*%
X141470000Y-102445000D03*
%TO.P,J2,B7,DN2*%
%TO.N,USB_D-*%
X139970000Y-102445000D03*
%TO.P,J2,B8,SBU2*%
%TO.N,unconnected-(J2-SBU2-PadB8)*%
X138970000Y-102445000D03*
D49*
%TO.P,J2,S1,SHELL_GND*%
%TO.N,Net-(J2-SHELL_GND-PadS1)*%
X136400000Y-103020000D03*
D50*
%TO.P,J2,S2,SHELL_GND*%
X136400000Y-107200000D03*
%TO.P,J2,S3,SHELL_GND*%
X145040000Y-107200000D03*
D49*
%TO.P,J2,S4,SHELL_GND*%
X145040000Y-103020000D03*
%TD*%
D51*
%TO.N,GND*%
X151400000Y-53200000D03*
X137600000Y-54800000D03*
X149000000Y-105000000D03*
X130600000Y-74800000D03*
X148400000Y-55400000D03*
X132200000Y-99800000D03*
X148800000Y-93200000D03*
X151400000Y-50600000D03*
X146400000Y-85800000D03*
X143200000Y-54800000D03*
X143800000Y-77000000D03*
X147800000Y-91400000D03*
X141800000Y-98400000D03*
X139800000Y-59400000D03*
X140000000Y-54800000D03*
X150400000Y-52800000D03*
X130600000Y-78200000D03*
X148800000Y-91800000D03*
X138800000Y-62000000D03*
X132200000Y-52000000D03*
X145999905Y-66399999D03*
X141800000Y-57400000D03*
X148000000Y-105000000D03*
X140266841Y-95066841D03*
X151400000Y-54400000D03*
X145200000Y-60400000D03*
X137800000Y-67800000D03*
X138200000Y-87600000D03*
X139800000Y-57400000D03*
X138400000Y-54800000D03*
X136000000Y-54800000D03*
X136000000Y-58000000D03*
X148800000Y-76800000D03*
X142800000Y-66400000D03*
X140600000Y-84600000D03*
X142400000Y-54800000D03*
X148400000Y-52800000D03*
X151400000Y-51800000D03*
X145200000Y-61800000D03*
X131200000Y-52000000D03*
X143600000Y-66400000D03*
X148000000Y-99600000D03*
X133800000Y-93600000D03*
X146600000Y-71000000D03*
X151200000Y-98200000D03*
X145600000Y-54800000D03*
X144600000Y-84000000D03*
X141600000Y-89000000D03*
X136600000Y-61400000D03*
X133000000Y-67600000D03*
X132200000Y-102000000D03*
X140800000Y-54800000D03*
X139400000Y-72800000D03*
X150400000Y-79600000D03*
X143666841Y-99933159D03*
X141800000Y-59400000D03*
X146600000Y-69400000D03*
X130200000Y-57000000D03*
X134400000Y-102800000D03*
X133000000Y-71000000D03*
X130200000Y-52000000D03*
X142000000Y-91200000D03*
X131000000Y-72600000D03*
X139200000Y-54800000D03*
X136800000Y-54800000D03*
X134400000Y-103800000D03*
X135600000Y-93600000D03*
X150800000Y-61200000D03*
X141000000Y-87600000D03*
X140800000Y-65800000D03*
X141600000Y-54800000D03*
X145200000Y-58600000D03*
X144800000Y-54800000D03*
X144200000Y-85800000D03*
X148000000Y-66400000D03*
X149800000Y-61200000D03*
X136000000Y-56400000D03*
X138800000Y-66800000D03*
X136800000Y-101200000D03*
X133400000Y-52000000D03*
X133000000Y-73200000D03*
X150400000Y-78000000D03*
X148600000Y-59400000D03*
X145600000Y-83600000D03*
X136000000Y-57200000D03*
X137000000Y-58600000D03*
X133200000Y-62800000D03*
X143205659Y-92205659D03*
X144000000Y-54800000D03*
X141200000Y-86200000D03*
X138200000Y-86200000D03*
X134400000Y-76600000D03*
X140800000Y-71800000D03*
X148600000Y-60400000D03*
X148400000Y-54000000D03*
X149400000Y-52800000D03*
X144376651Y-68780533D03*
X150400000Y-81200000D03*
X136000000Y-55600000D03*
X132800000Y-65400000D03*
X135800000Y-101200000D03*
X130200000Y-56000000D03*
X144950485Y-101200000D03*
X147000000Y-66400000D03*
%TO.N,+3V3*%
X147800000Y-73400000D03*
X134200000Y-67600000D03*
X135600000Y-76600000D03*
%TO.N,VBUS*%
X142600000Y-93200000D03*
X138800000Y-97600000D03*
X147800000Y-96915358D03*
%TO.N,+BATT*%
X144800000Y-76400000D03*
X140200000Y-98200000D03*
X142400000Y-96400000D03*
X134934026Y-98354000D03*
X138600000Y-67800000D03*
X142093277Y-76236706D03*
X143400000Y-98600000D03*
X133000000Y-95600000D03*
%TO.N,E+*%
X135600000Y-72000000D03*
%TO.N,IO9_BOOT*%
X145000000Y-66000000D03*
X147400000Y-72000000D03*
%TO.N,USB_D-*%
X148906346Y-73311999D03*
X146556239Y-96334358D03*
X148981635Y-77579110D03*
X148400000Y-71600000D03*
X143185641Y-96550905D03*
X148800000Y-66400000D03*
X149291580Y-88691580D03*
%TO.N,Net-(D8-A)*%
X135000000Y-100600000D03*
X143800000Y-101000000D03*
%TO.N,USB_D+*%
X148800000Y-89400000D03*
X148403630Y-78600000D03*
X150054000Y-74089310D03*
X149800000Y-97800000D03*
X143533159Y-97666841D03*
X149600000Y-71600000D03*
X149600000Y-66400000D03*
%TO.N,A+*%
X146600000Y-72800000D03*
%TO.N,IO1_ADC*%
X133200000Y-64000000D03*
%TO.N,IO4_DATA*%
X139600000Y-68200000D03*
%TD*%
D52*
%TO.N,GND*%
X139200000Y-98200000D02*
X139800000Y-97600000D01*
D53*
X137600000Y-62592000D02*
X137408000Y-62400000D01*
X143233682Y-99500000D02*
X143666841Y-99933159D01*
X143954000Y-66754000D02*
X145645904Y-66754000D01*
D52*
X133280000Y-64920000D02*
X132800000Y-65400000D01*
X133600000Y-64920000D02*
X133280000Y-64920000D01*
X149695000Y-103575000D02*
X147400000Y-103575000D01*
D54*
X139400000Y-72800000D02*
X136895000Y-70295000D01*
D53*
X138800000Y-66778342D02*
X138789171Y-66789171D01*
D54*
X133200000Y-60080000D02*
X133200000Y-60145000D01*
X148880000Y-76720000D02*
X148800000Y-76800000D01*
D55*
X140000000Y-83500000D02*
X140000000Y-84000000D01*
D54*
X131250000Y-56000000D02*
X130200000Y-56000000D01*
D52*
X143211318Y-92200000D02*
X143205659Y-92205659D01*
D54*
X131160000Y-70685000D02*
X131160000Y-72440000D01*
X136690000Y-94000000D02*
X136000000Y-94000000D01*
D52*
X133200000Y-53440000D02*
X133214318Y-53440000D01*
D54*
X136895000Y-69700000D02*
X136895000Y-68705000D01*
D52*
X140250000Y-96275000D02*
X140250000Y-95083682D01*
D53*
X138800000Y-65880000D02*
X138800000Y-66778342D01*
X145600000Y-53500000D02*
X145600000Y-54800000D01*
D52*
X139800000Y-97600000D02*
X140250000Y-97150000D01*
D53*
X143920000Y-102445000D02*
X143920000Y-102230485D01*
D54*
X141975000Y-69700000D02*
X143245000Y-69700000D01*
X131160000Y-72440000D02*
X131000000Y-72600000D01*
D52*
X140250000Y-97150000D02*
X140250000Y-96275000D01*
X143205659Y-92205659D02*
X143005659Y-92205659D01*
D54*
X148600000Y-99000000D02*
X148000000Y-99600000D01*
D53*
X133600000Y-62400000D02*
X133200000Y-62800000D01*
X137408000Y-62400000D02*
X134900000Y-62400000D01*
D55*
X140000000Y-84000000D02*
X140600000Y-84600000D01*
D52*
X137520000Y-101920000D02*
X136800000Y-101200000D01*
D54*
X142710000Y-77000000D02*
X143800000Y-77000000D01*
D52*
X144100000Y-92200000D02*
X143211318Y-92200000D01*
D53*
X137600000Y-63300000D02*
X137600000Y-62592000D01*
X145999906Y-66400000D02*
X145999905Y-66399999D01*
X142800000Y-99500000D02*
X143233682Y-99500000D01*
D55*
X140800000Y-65800000D02*
X140800000Y-64910000D01*
D52*
X141750000Y-89150000D02*
X141600000Y-89000000D01*
D53*
X134900000Y-62400000D02*
X133600000Y-62400000D01*
X143245000Y-69700000D02*
X144900000Y-69700000D01*
D54*
X136895000Y-68705000D02*
X137800000Y-67800000D01*
X141975000Y-70625000D02*
X140800000Y-71800000D01*
D52*
X137520000Y-102445000D02*
X137520000Y-101920000D01*
D53*
X143600000Y-66400000D02*
X143954000Y-66754000D01*
D52*
X134174318Y-54400000D02*
X134900000Y-54400000D01*
D56*
X139505000Y-74900000D02*
X139505000Y-73900001D01*
D52*
X133214318Y-53440000D02*
X134174318Y-54400000D01*
D53*
X145645904Y-66754000D02*
X145999905Y-66399999D01*
D52*
X134900000Y-54400000D02*
X134900000Y-55200000D01*
X143005659Y-92205659D02*
X142000000Y-91200000D01*
D54*
X136000000Y-94000000D02*
X135600000Y-93600000D01*
X139435000Y-74700000D02*
X139435000Y-72835000D01*
D52*
X141000000Y-99400000D02*
X141000000Y-99200000D01*
D54*
X136895000Y-70295000D02*
X136895000Y-69700000D01*
X141975000Y-69700000D02*
X141975000Y-70625000D01*
D52*
X140266841Y-93241841D02*
X140266841Y-95066841D01*
X150820000Y-102450000D02*
X149695000Y-103575000D01*
X143450000Y-89150000D02*
X141750000Y-89150000D01*
D54*
X148880000Y-75575000D02*
X148880000Y-76720000D01*
D53*
X143600000Y-66400000D02*
X142800000Y-66400000D01*
X147075000Y-77925000D02*
X148200000Y-76800000D01*
D54*
X133200000Y-60145000D02*
X131160000Y-62185000D01*
X139435000Y-72835000D02*
X139400000Y-72800000D01*
X148600000Y-98710000D02*
X148600000Y-99000000D01*
D52*
X141000000Y-99200000D02*
X141800000Y-98400000D01*
X139200000Y-99400000D02*
X139200000Y-98200000D01*
D53*
X148200000Y-76800000D02*
X148800000Y-76800000D01*
D52*
X140250000Y-95083682D02*
X140266841Y-95066841D01*
D53*
X145000000Y-101200000D02*
X144950485Y-101200000D01*
X148000000Y-66400000D02*
X145999906Y-66400000D01*
X144900000Y-69700000D02*
X145200000Y-70000000D01*
D55*
X140800000Y-64910000D02*
X140910000Y-64800000D01*
D53*
X143920000Y-102230485D02*
X144950485Y-101200000D01*
D52*
X139225000Y-92200000D02*
X140266841Y-93241841D01*
D53*
%TO.N,+3V3*%
X138450000Y-83500000D02*
X138450000Y-81510000D01*
X147870000Y-86800000D02*
X147870000Y-87980000D01*
X147870000Y-85870000D02*
X147870000Y-86800000D01*
X132000000Y-55950000D02*
X131950000Y-56000000D01*
X133650000Y-87200000D02*
X133650000Y-90575000D01*
D54*
X148910000Y-74375000D02*
X148910000Y-74310128D01*
D53*
X132490000Y-57090000D02*
X131950000Y-56550000D01*
D55*
X132255000Y-57090000D02*
X133200000Y-57090000D01*
D53*
X133650000Y-87200000D02*
X133800000Y-87200000D01*
X138450000Y-81510000D02*
X139460000Y-80500000D01*
D56*
X130800000Y-54400000D02*
X133200000Y-54400000D01*
D55*
X134355000Y-69700000D02*
X134355000Y-74700000D01*
D54*
X148910000Y-74310128D02*
X147999872Y-73400000D01*
D53*
X147870000Y-87980000D02*
X147650000Y-88200000D01*
D55*
X134355000Y-69700000D02*
X134355000Y-67755000D01*
D54*
X134900000Y-56000000D02*
X131950000Y-56000000D01*
D53*
X147000000Y-85000000D02*
X147870000Y-85870000D01*
D54*
X147999872Y-73400000D02*
X147800000Y-73400000D01*
D53*
X133200000Y-57090000D02*
X132490000Y-57090000D01*
D55*
X134355000Y-75416840D02*
X135538160Y-76600000D01*
X135538160Y-76600000D02*
X135600000Y-76600000D01*
D53*
X139446000Y-85446000D02*
X143354000Y-85446000D01*
X133650000Y-90575000D02*
X133875000Y-90800000D01*
X143354000Y-85446000D02*
X143800000Y-85000000D01*
X138450000Y-84450000D02*
X139446000Y-85446000D01*
D55*
X134355000Y-74700000D02*
X134355000Y-75416840D01*
D53*
X131950000Y-56550000D02*
X131950000Y-56000000D01*
X143800000Y-85000000D02*
X147000000Y-85000000D01*
D55*
X130660000Y-58685000D02*
X132255000Y-57090000D01*
D53*
X138450000Y-83500000D02*
X138450000Y-84450000D01*
D55*
X134355000Y-69700000D02*
X135625000Y-69700000D01*
D53*
X137500000Y-83500000D02*
X138450000Y-83500000D01*
D55*
X134355000Y-67755000D02*
X134200000Y-67600000D01*
D53*
X133800000Y-87200000D02*
X137500000Y-83500000D01*
X132000000Y-54400000D02*
X132000000Y-55950000D01*
D56*
%TO.N,CHIP_PU*%
X132200000Y-62500000D02*
X132200000Y-76400000D01*
X133725000Y-77925000D02*
X134425000Y-77925000D01*
X134425000Y-82075000D02*
X134425000Y-77925000D01*
X132200000Y-76400000D02*
X133725000Y-77925000D01*
X133720000Y-59120000D02*
X134600000Y-60000000D01*
X133200000Y-59120000D02*
X133720000Y-59120000D01*
X134700000Y-60000000D02*
X132200000Y-62500000D01*
X134900000Y-60000000D02*
X134700000Y-60000000D01*
X134600000Y-60000000D02*
X134900000Y-60000000D01*
X133200000Y-59120000D02*
X133200000Y-58110000D01*
D53*
%TO.N,VBUS*%
X138400000Y-97600000D02*
X137350000Y-96550000D01*
D55*
X147372500Y-97690000D02*
X147800000Y-97690000D01*
D53*
X143550000Y-94800000D02*
X143550000Y-94150000D01*
D55*
X147800000Y-97690000D02*
X147800000Y-96915358D01*
D53*
X143550000Y-94150000D02*
X142600000Y-93200000D01*
X141200000Y-94000000D02*
X141200000Y-92625000D01*
D55*
X147800000Y-97690000D02*
X148600000Y-97690000D01*
D53*
X138800000Y-97600000D02*
X138400000Y-97600000D01*
X137350000Y-96550000D02*
X136800000Y-96550000D01*
X142000000Y-94800000D02*
X141200000Y-94000000D01*
X136800000Y-96550000D02*
X134562500Y-96550000D01*
X141200000Y-92625000D02*
X140775000Y-92200000D01*
D55*
X146800000Y-98262500D02*
X147372500Y-97690000D01*
D53*
X143375000Y-94800000D02*
X142000000Y-94800000D01*
X134562500Y-96550000D02*
X134400000Y-96387500D01*
%TO.N,+BATT*%
X144937500Y-100137500D02*
X143400000Y-98600000D01*
X142400000Y-96400000D02*
X141325000Y-96400000D01*
D54*
X146875000Y-101037500D02*
X146837500Y-101000000D01*
X147400000Y-101400000D02*
X147400000Y-101037500D01*
D53*
X146150000Y-100437500D02*
X146800000Y-100437500D01*
D54*
X147400000Y-101037500D02*
X146875000Y-101037500D01*
X147400000Y-102025000D02*
X147400000Y-101687500D01*
X148037500Y-101000000D02*
X148600000Y-100437500D01*
D53*
X145850000Y-100137500D02*
X144937500Y-100137500D01*
D52*
X139113288Y-67800000D02*
X139800000Y-67113288D01*
D54*
X148000000Y-101000000D02*
X148000000Y-100437500D01*
X148000000Y-101000000D02*
X148037500Y-101000000D01*
D53*
X141200000Y-97200000D02*
X140200000Y-98200000D01*
D54*
X147400000Y-101687500D02*
X146756250Y-101043750D01*
D53*
X146800000Y-100437500D02*
X147400000Y-100437500D01*
D54*
X146756250Y-101043750D02*
X145850000Y-100137500D01*
D53*
X134934026Y-98354000D02*
X133190013Y-96609987D01*
X141200000Y-96275000D02*
X141200000Y-97200000D01*
D55*
X149240000Y-100185000D02*
X150820000Y-100185000D01*
D54*
X147400000Y-101400000D02*
X147600000Y-101400000D01*
D52*
X139800000Y-67113288D02*
X139800000Y-66910000D01*
D54*
X147400000Y-102025000D02*
X147400000Y-101400000D01*
X146800000Y-101000000D02*
X146837500Y-101000000D01*
X147400000Y-101037500D02*
X148000000Y-100437500D01*
D53*
X142103983Y-76226000D02*
X142093277Y-76236706D01*
D54*
X146837500Y-101000000D02*
X147400000Y-100437500D01*
X146800000Y-101000000D02*
X146800000Y-100437500D01*
D53*
X145850000Y-100137500D02*
X146150000Y-100437500D01*
D52*
X138600000Y-67800000D02*
X139113288Y-67800000D01*
D53*
X133190013Y-96609987D02*
X133000000Y-96419974D01*
X148600000Y-100437500D02*
X150567500Y-100437500D01*
X144800000Y-76400000D02*
X144626000Y-76226000D01*
X133000000Y-96419974D02*
X133000000Y-95600000D01*
D54*
X147400000Y-101037500D02*
X147400000Y-100437500D01*
D53*
X150567500Y-100437500D02*
X150820000Y-100185000D01*
X144626000Y-76226000D02*
X142103983Y-76226000D01*
X147400000Y-100437500D02*
X148000000Y-100437500D01*
X141325000Y-96400000D02*
X141200000Y-96275000D01*
D54*
X146756250Y-101043750D02*
X146800000Y-101000000D01*
X147600000Y-101400000D02*
X148000000Y-101000000D01*
D53*
X148000000Y-100437500D02*
X148600000Y-100437500D01*
D56*
%TO.N,IO0*%
X133600000Y-65880000D02*
X134670000Y-65880000D01*
X135690000Y-67400000D02*
X135690000Y-66340000D01*
X134670000Y-65880000D02*
X134950000Y-65600000D01*
X135690000Y-66340000D02*
X134950000Y-65600000D01*
%TO.N,IO1*%
X136710000Y-67400000D02*
X136710000Y-66340000D01*
D53*
X138800000Y-64920000D02*
X138130000Y-64920000D01*
D56*
X137730000Y-65880000D02*
X137450000Y-65600000D01*
D53*
X138130000Y-64920000D02*
X137450000Y-65600000D01*
D56*
X136710000Y-66340000D02*
X137450000Y-65600000D01*
D54*
%TO.N,E+*%
X138980000Y-77180000D02*
X138980000Y-77000000D01*
X138400000Y-77000000D02*
X138980000Y-77000000D01*
X136895000Y-75495000D02*
X138400000Y-77000000D01*
X142000000Y-79756021D02*
X139967179Y-77723200D01*
X136895000Y-74700000D02*
X136895000Y-75495000D01*
D56*
X136965000Y-75565000D02*
X136965000Y-74900000D01*
D54*
X142000000Y-80500000D02*
X142000000Y-83225000D01*
X136895000Y-74700000D02*
X136895000Y-73295000D01*
X136895000Y-73295000D02*
X135600000Y-72000000D01*
X139967179Y-77723200D02*
X139523200Y-77723200D01*
X139523200Y-77723200D02*
X138980000Y-77180000D01*
X142000000Y-83225000D02*
X141725000Y-83500000D01*
X142000000Y-80500000D02*
X142000000Y-79756021D01*
D52*
%TO.N,Net-(U3-VBG)*%
X140705000Y-74700000D02*
X140705000Y-73700001D01*
X142855001Y-71550000D02*
X145200000Y-71550000D01*
X140705000Y-73700001D02*
X142855001Y-71550000D01*
D57*
%TO.N,A-*%
X150645000Y-70200000D02*
X150660000Y-70185000D01*
X149200000Y-70200000D02*
X150645000Y-70200000D01*
D56*
%TO.N,Net-(U3-INA+)*%
X143445000Y-74675000D02*
X145125000Y-74675000D01*
X145200000Y-74750000D02*
X145375000Y-74750000D01*
X145125000Y-74675000D02*
X145200000Y-74750000D01*
X145375000Y-74750000D02*
X145710000Y-75085000D01*
X145710000Y-75085000D02*
X146600000Y-75085000D01*
%TO.N,IO9_BOOT*%
X144800000Y-65800000D02*
X144800000Y-63300000D01*
X147920000Y-75575000D02*
X147920000Y-74405000D01*
X146520000Y-76330000D02*
X147695000Y-76330000D01*
X147890000Y-74375000D02*
X147200000Y-73685000D01*
X144925000Y-82075000D02*
X144925000Y-77925000D01*
X147920000Y-76105000D02*
X147920000Y-75575000D01*
X144925000Y-77925000D02*
X146520000Y-76330000D01*
X147200000Y-73685000D02*
X147200000Y-72200000D01*
X147920000Y-74405000D02*
X147890000Y-74375000D01*
X147695000Y-76330000D02*
X147920000Y-76105000D01*
X147200000Y-72200000D02*
X147400000Y-72000000D01*
X145000000Y-66000000D02*
X144800000Y-65800000D01*
D55*
%TO.N,+5V*%
X144900000Y-96750000D02*
X146850000Y-94800000D01*
D53*
X144566500Y-87693214D02*
X143850000Y-86976714D01*
X146850000Y-93050000D02*
X146000000Y-92200000D01*
X145725000Y-91925000D02*
X146000000Y-92200000D01*
X145725000Y-90100000D02*
X145725000Y-91925000D01*
X143850000Y-86976714D02*
X143850000Y-86800000D01*
X145725000Y-90100000D02*
X145725000Y-89720842D01*
X144566500Y-88562342D02*
X144566500Y-87693214D01*
X146850000Y-94800000D02*
X146850000Y-93050000D01*
X145725000Y-89720842D02*
X144566500Y-88562342D01*
D55*
X144900000Y-98262500D02*
X144900000Y-96750000D01*
D52*
%TO.N,Net-(U6-FB)*%
X145725000Y-88200000D02*
X145725000Y-87295000D01*
X145740000Y-86910000D02*
X145340000Y-86910000D01*
X147275000Y-89750000D02*
X145725000Y-88200000D01*
X147650000Y-89750000D02*
X147275000Y-89750000D01*
X145850000Y-86800000D02*
X145740000Y-86910000D01*
X145725000Y-87295000D02*
X145340000Y-86910000D01*
X145850000Y-88075000D02*
X145725000Y-88200000D01*
X146850000Y-86800000D02*
X145850000Y-86800000D01*
%TO.N,Net-(D1-K)*%
X134400000Y-94812500D02*
X136212500Y-94812500D01*
X136212500Y-94812500D02*
X136600000Y-95200000D01*
D56*
%TO.N,USB_D-*%
X139970000Y-103170000D02*
X139970000Y-102445000D01*
X149291580Y-88691580D02*
X148979830Y-88379830D01*
X139200000Y-100800000D02*
X139826200Y-100173800D01*
X143200000Y-96565264D02*
X143185641Y-96550905D01*
X140792400Y-103400000D02*
X140200000Y-103400000D01*
X148400000Y-72805653D02*
X148906346Y-73311999D01*
X142000000Y-97200000D02*
X142600000Y-97200000D01*
X149200000Y-95800000D02*
X149200000Y-94645000D01*
X139826200Y-99558930D02*
X141000000Y-98385130D01*
X139200000Y-101200000D02*
X139200000Y-100800000D01*
X139702400Y-101400000D02*
X139400000Y-101400000D01*
X148800000Y-96200000D02*
X149200000Y-95800000D01*
X139400000Y-101400000D02*
X139200000Y-101200000D01*
X143200000Y-96600000D02*
X143200000Y-96565264D01*
X148400000Y-71600000D02*
X148400000Y-72805653D01*
X141000000Y-98200000D02*
X142000000Y-97200000D01*
X139970000Y-102445000D02*
X139970000Y-101667600D01*
X148800000Y-63500000D02*
X148800000Y-66400000D01*
X140970000Y-102445000D02*
X140970000Y-103222400D01*
X146900000Y-61600000D02*
X148800000Y-63500000D01*
X146700000Y-61600000D02*
X146900000Y-61600000D01*
X141000000Y-98385130D02*
X141000000Y-98200000D01*
X139970000Y-101667600D02*
X139702400Y-101400000D01*
X148665642Y-96334358D02*
X148800000Y-96200000D01*
X146556239Y-96334358D02*
X148665642Y-96334358D01*
X140200000Y-103400000D02*
X139970000Y-103170000D01*
X142600000Y-97200000D02*
X143200000Y-96600000D01*
X149200000Y-94645000D02*
X150660000Y-93185000D01*
X139826200Y-100173800D02*
X139826200Y-99558930D01*
X140970000Y-103222400D02*
X140792400Y-103400000D01*
X148979830Y-88379830D02*
X148979830Y-77571370D01*
D53*
%TO.N,Net-(D8-A)*%
X137600000Y-100650000D02*
X136800000Y-99850000D01*
X135050000Y-100650000D02*
X135000000Y-100600000D01*
X138274000Y-102399000D02*
X138274000Y-101324000D01*
X142800000Y-100900000D02*
X143700000Y-100900000D01*
X136800000Y-99850000D02*
X135750000Y-99850000D01*
X138274000Y-101324000D02*
X137600000Y-100650000D01*
X138320000Y-102445000D02*
X138274000Y-102399000D01*
X143700000Y-100900000D02*
X143800000Y-101000000D01*
X143120000Y-101220000D02*
X143120000Y-102445000D01*
X142800000Y-100900000D02*
X143120000Y-101220000D01*
X135750000Y-99850000D02*
X135000000Y-100600000D01*
D56*
%TO.N,USB_D+*%
X141000000Y-101197600D02*
X141000000Y-100800000D01*
X143518289Y-97666841D02*
X143533159Y-97666841D01*
X140470000Y-102445000D02*
X140470000Y-101330000D01*
X150054000Y-74089310D02*
X149600000Y-73635310D01*
X141470000Y-101667600D02*
X141000000Y-101197600D01*
X149600000Y-73635310D02*
X149600000Y-71600000D01*
X149600000Y-66400000D02*
X149600000Y-63046000D01*
X149600000Y-63046000D02*
X147354000Y-60800000D01*
X149800000Y-97800000D02*
X150660000Y-96940000D01*
X148403630Y-78600000D02*
X148416200Y-78612570D01*
X150345000Y-96000000D02*
X150660000Y-95685000D01*
X140470000Y-101330000D02*
X141000000Y-100800000D01*
X141985130Y-99814870D02*
X141985130Y-99200000D01*
X141000000Y-100800000D02*
X141985130Y-99814870D01*
X148416200Y-78612570D02*
X148416200Y-89016200D01*
X150660000Y-96940000D02*
X150660000Y-95685000D01*
X141470000Y-102445000D02*
X141470000Y-101667600D01*
X147354000Y-60800000D02*
X146700000Y-60800000D01*
X141985130Y-99200000D02*
X143518289Y-97666841D01*
X148416200Y-89016200D02*
X148800000Y-89400000D01*
D52*
%TO.N,Net-(J2-SHELL_GND-PadS1)*%
X135580000Y-108020000D02*
X136400000Y-107200000D01*
X134800000Y-108020000D02*
X135580000Y-108020000D01*
D53*
X145040000Y-107200000D02*
X136400000Y-107200000D01*
D56*
%TO.N,Net-(J2-CC1)*%
X139470000Y-103222400D02*
X139470000Y-102445000D01*
X134800000Y-104890000D02*
X137802400Y-104890000D01*
X137802400Y-104890000D02*
X139470000Y-103222400D01*
%TO.N,Net-(J2-CC2)*%
X144659064Y-105490000D02*
X142470000Y-103300936D01*
X142470000Y-103300936D02*
X142470000Y-102445000D01*
X146600000Y-105490000D02*
X144659064Y-105490000D01*
D53*
%TO.N,/Buck_Coil*%
X137625000Y-90100000D02*
X136925000Y-90800000D01*
X143450000Y-90100000D02*
X137625000Y-90100000D01*
D54*
%TO.N,Net-(Q1-B)*%
X140730000Y-80500000D02*
X140730000Y-79343600D01*
X135625000Y-75216500D02*
X135625000Y-74700000D01*
X140730000Y-79343600D02*
X139752100Y-79343600D01*
X139752100Y-79343600D02*
X135625000Y-75216500D01*
D56*
%TO.N,Net-(U2-PROG)*%
X137710000Y-94000000D02*
X139300000Y-94000000D01*
D52*
%TO.N,Net-(U2-STAT)*%
X139300000Y-96275000D02*
X138695000Y-96275000D01*
X138695000Y-96275000D02*
X137620000Y-95200000D01*
%TO.N,Net-(U3-VFB)*%
X138665001Y-76200000D02*
X140890000Y-76200000D01*
X138165000Y-74700000D02*
X138165000Y-75699999D01*
X140890000Y-76200000D02*
X141690000Y-77000000D01*
X138165000Y-75699999D02*
X138665001Y-76200000D01*
D56*
X140000000Y-77000000D02*
X141690000Y-77000000D01*
D52*
%TO.N,A+*%
X146600000Y-74065000D02*
X146600000Y-72800000D01*
%TO.N,IO1_ADC*%
X139513000Y-64313000D02*
X139890000Y-64690000D01*
X136800000Y-63673000D02*
X136800000Y-63300000D01*
X136727000Y-64027000D02*
X133227000Y-64027000D01*
X139800000Y-65890000D02*
X139800000Y-64890000D01*
X139513000Y-64313000D02*
X137440000Y-64313000D01*
X139890000Y-64690000D02*
X139890000Y-64800000D01*
X133227000Y-64027000D02*
X133200000Y-64000000D01*
X139800000Y-64890000D02*
X139890000Y-64800000D01*
X136800000Y-63300000D02*
X136800000Y-63954000D01*
X136800000Y-63954000D02*
X136727000Y-64027000D01*
X137440000Y-64313000D02*
X136800000Y-63673000D01*
%TO.N,ENABLE*%
X142830000Y-87580000D02*
X143450000Y-88200000D01*
X142830000Y-86800000D02*
X142830000Y-87580000D01*
%TO.N,IO20_RX*%
X146700000Y-58400000D02*
X150375000Y-58400000D01*
X150375000Y-58400000D02*
X150660000Y-58685000D01*
%TO.N,IO4_DATA*%
X139505000Y-69491264D02*
X139505000Y-69900000D01*
X139435000Y-69700000D02*
X139435000Y-68365000D01*
X139435000Y-68365000D02*
X141647000Y-66153000D01*
X140800000Y-63622892D02*
X140800000Y-63300000D01*
X141647000Y-66153000D02*
X141647000Y-64469892D01*
X141647000Y-64469892D02*
X140800000Y-63622892D01*
%TO.N,IO5_SCK*%
X150660000Y-67685000D02*
X142285000Y-67685000D01*
X140705000Y-69700000D02*
X140705000Y-68291264D01*
X142285000Y-67685000D02*
X141798132Y-67198132D01*
X140705000Y-69700000D02*
X140705000Y-68291264D01*
X142101000Y-64281840D02*
X142101000Y-66895264D01*
X141600000Y-63780840D02*
X142101000Y-64281840D01*
X141798132Y-67198132D02*
X142101000Y-66895264D01*
X140705000Y-68291264D02*
X141798132Y-67198132D01*
%TO.N,IO21_TX*%
X146700000Y-57600000D02*
X149245000Y-57600000D01*
X149245000Y-57600000D02*
X150660000Y-56185000D01*
%TO.N,unconnected-(U3-XO-Pad13)*%
X138235000Y-69900000D02*
X138235000Y-68900001D01*
%TO.N,Net-(U3-INA-)*%
X146113288Y-72400000D02*
X148180000Y-70333288D01*
X146000000Y-72400000D02*
X146113288Y-72400000D01*
X145200000Y-73200000D02*
X146000000Y-72400000D01*
X142475001Y-73200000D02*
X141975000Y-73700001D01*
X148180000Y-70333288D02*
X148180000Y-70200000D01*
X145200000Y-73200000D02*
X142475001Y-73200000D01*
X141975000Y-73700001D02*
X141975000Y-74700000D01*
%TD*%
%TA.AperFunction,Conductor*%
%TO.N,+5V*%
G36*
X146253258Y-89619685D02*
G01*
X146273900Y-89636319D01*
X146580269Y-89942688D01*
X146613754Y-90004011D01*
X146608770Y-90073703D01*
X146566898Y-90129636D01*
X146563452Y-90132125D01*
X146493535Y-90180816D01*
X146442460Y-90228504D01*
X146442456Y-90228508D01*
X146358363Y-90333166D01*
X146349382Y-90343178D01*
X146338157Y-90354403D01*
X146313600Y-90373452D01*
X146296351Y-90383653D01*
X146296339Y-90383661D01*
X146204382Y-90453343D01*
X146204367Y-90453356D01*
X146163719Y-90492211D01*
X146163714Y-90492216D01*
X146089954Y-90580938D01*
X146029146Y-90711323D01*
X146029143Y-90711331D01*
X146009174Y-90777381D01*
X146008926Y-90778179D01*
X145987307Y-90920464D01*
X145996060Y-90985001D01*
X146006645Y-91063038D01*
X146025793Y-91130232D01*
X146084512Y-91261579D01*
X146084513Y-91261580D01*
X146177856Y-91371063D01*
X146177858Y-91371065D01*
X146177860Y-91371067D01*
X146230296Y-91417243D01*
X146230328Y-91417271D01*
X146261167Y-91437437D01*
X146262113Y-91438062D01*
X146305900Y-91467270D01*
X146303956Y-91470424D01*
X146392541Y-91525063D01*
X146394373Y-91526285D01*
X146395743Y-91527922D01*
X146413244Y-91541760D01*
X146433238Y-91561754D01*
X146451096Y-91584339D01*
X146465946Y-91608415D01*
X146478113Y-91634507D01*
X146488469Y-91665759D01*
X146494119Y-91692139D01*
X146494355Y-91694445D01*
X146494999Y-91707069D01*
X146494999Y-92082114D01*
X146497896Y-92136162D01*
X146497896Y-92136163D01*
X146500728Y-92162496D01*
X146500731Y-92162523D01*
X146509384Y-92215919D01*
X146509384Y-92215921D01*
X146534072Y-92282109D01*
X146559667Y-92350731D01*
X146593152Y-92412054D01*
X146593153Y-92412056D01*
X146679368Y-92527227D01*
X146679384Y-92527245D01*
X146970116Y-92817977D01*
X146970253Y-92818111D01*
X147034766Y-92882624D01*
X147050190Y-92901418D01*
X147063878Y-92921905D01*
X147075332Y-92943335D01*
X147084758Y-92966089D01*
X147091815Y-92989351D01*
X147095471Y-93007728D01*
X147096618Y-93013490D01*
X147099001Y-93037684D01*
X147099001Y-93128961D01*
X147099000Y-93129004D01*
X147099000Y-93877128D01*
X147101897Y-93931176D01*
X147101897Y-93931177D01*
X147104729Y-93957510D01*
X147104732Y-93957537D01*
X147113385Y-94010933D01*
X147113385Y-94010935D01*
X147136274Y-94072301D01*
X147163668Y-94145745D01*
X147186563Y-94187674D01*
X147197153Y-94207068D01*
X147197153Y-94207069D01*
X147204652Y-94217086D01*
X147210922Y-94226297D01*
X147268136Y-94319053D01*
X147280302Y-94345142D01*
X147288705Y-94370503D01*
X147294999Y-94409503D01*
X147294999Y-95190492D01*
X147288704Y-95229499D01*
X147280301Y-95254855D01*
X147268136Y-95280942D01*
X147254427Y-95303167D01*
X147254420Y-95303181D01*
X147209419Y-95396286D01*
X147209411Y-95396307D01*
X147192219Y-95443733D01*
X147167103Y-95544074D01*
X147167103Y-95547782D01*
X147166315Y-95550465D01*
X147166172Y-95551627D01*
X147165980Y-95551603D01*
X147147418Y-95614821D01*
X147094614Y-95660576D01*
X147025456Y-95670520D01*
X146974213Y-95650885D01*
X146935422Y-95624966D01*
X146935411Y-95624960D01*
X146789740Y-95564622D01*
X146789728Y-95564619D01*
X146635084Y-95533858D01*
X146635081Y-95533858D01*
X146477397Y-95533858D01*
X146477394Y-95533858D01*
X146322749Y-95564619D01*
X146322737Y-95564622D01*
X146177066Y-95624960D01*
X146177053Y-95624967D01*
X146045950Y-95712568D01*
X146045946Y-95712571D01*
X146011681Y-95746837D01*
X145992244Y-95757449D01*
X145975511Y-95771950D01*
X145962179Y-95773866D01*
X145950358Y-95780322D01*
X145928271Y-95778742D01*
X145906353Y-95781894D01*
X145894101Y-95776298D01*
X145880666Y-95775338D01*
X145862939Y-95762067D01*
X145842797Y-95752869D01*
X145835514Y-95741537D01*
X145824733Y-95733466D01*
X145816995Y-95712720D01*
X145805023Y-95694091D01*
X145801871Y-95672172D01*
X145800316Y-95668002D01*
X145800000Y-95659156D01*
X145800000Y-95477379D01*
X145819685Y-95410340D01*
X145836316Y-95389700D01*
X146220623Y-95005395D01*
X146256788Y-94965133D01*
X146273422Y-94944491D01*
X146305067Y-94900607D01*
X146364838Y-94769730D01*
X146384523Y-94702691D01*
X146384524Y-94702687D01*
X146405000Y-94560271D01*
X146405000Y-94409503D01*
X146405450Y-94406714D01*
X146405073Y-94405245D01*
X146411293Y-94370504D01*
X146411789Y-94369006D01*
X146419695Y-94345146D01*
X146431859Y-94319060D01*
X146456960Y-94278365D01*
X146465947Y-94265656D01*
X146469422Y-94261346D01*
X146501067Y-94217462D01*
X146560838Y-94086585D01*
X146580523Y-94019546D01*
X146580524Y-94019542D01*
X146601000Y-93877126D01*
X146601000Y-93549499D01*
X146589447Y-93442045D01*
X146578241Y-93390533D01*
X146544113Y-93287994D01*
X146466325Y-93166955D01*
X146439390Y-93135870D01*
X146432244Y-93127623D01*
X146427374Y-93120045D01*
X146311836Y-93019931D01*
X146311828Y-93019926D01*
X146180960Y-92960161D01*
X146180955Y-92960159D01*
X146180954Y-92960159D01*
X146155793Y-92952771D01*
X146113914Y-92940474D01*
X146105140Y-92939213D01*
X146105137Y-92939213D01*
X145971499Y-92919999D01*
X145971497Y-92919999D01*
X145732065Y-92919999D01*
X145719456Y-92919356D01*
X145717157Y-92919121D01*
X145690762Y-92913470D01*
X145659507Y-92903113D01*
X145633415Y-92890946D01*
X145609339Y-92876096D01*
X145586754Y-92858238D01*
X145536833Y-92808317D01*
X145530803Y-92801841D01*
X145511183Y-92779199D01*
X145511177Y-92779193D01*
X145453042Y-92722128D01*
X145453040Y-92722126D01*
X145330577Y-92646598D01*
X145309216Y-92637318D01*
X145266500Y-92618760D01*
X145266496Y-92618759D01*
X145266494Y-92618758D01*
X145191777Y-92598317D01*
X145132309Y-92561641D01*
X145102110Y-92498635D01*
X145100499Y-92478713D01*
X145100499Y-91674998D01*
X145100498Y-91674981D01*
X145089999Y-91572203D01*
X145089998Y-91572200D01*
X145089933Y-91572004D01*
X145034814Y-91405666D01*
X144942712Y-91256344D01*
X144913442Y-91227074D01*
X144879957Y-91165751D01*
X144877280Y-91145600D01*
X144820201Y-90004011D01*
X144806510Y-89730192D01*
X144822822Y-89662253D01*
X144873275Y-89613919D01*
X144930355Y-89600000D01*
X146186219Y-89600000D01*
X146253258Y-89619685D01*
G37*
%TD.AperFunction*%
%TD*%
%TA.AperFunction,Conductor*%
%TO.N,GND*%
G36*
X131410000Y-71946999D02*
G01*
X131499300Y-71946999D01*
X131566339Y-71966684D01*
X131612094Y-72019488D01*
X131623300Y-72070999D01*
X131623300Y-76475923D01*
X131662602Y-76622600D01*
X131662602Y-76622601D01*
X131738522Y-76754098D01*
X131738524Y-76754100D01*
X131738525Y-76754102D01*
X133370898Y-78386475D01*
X133502402Y-78462399D01*
X133517371Y-78466410D01*
X133577030Y-78502775D01*
X133602220Y-78550579D01*
X133603198Y-78550215D01*
X133656202Y-78692328D01*
X133656206Y-78692335D01*
X133742451Y-78807543D01*
X133742452Y-78807544D01*
X133742454Y-78807546D01*
X133798612Y-78849586D01*
X133840482Y-78905518D01*
X133848300Y-78948851D01*
X133848300Y-81051148D01*
X133828615Y-81118187D01*
X133798612Y-81150413D01*
X133795677Y-81152611D01*
X133742456Y-81192452D01*
X133742451Y-81192457D01*
X133656206Y-81307664D01*
X133656202Y-81307671D01*
X133605908Y-81442517D01*
X133599501Y-81502116D01*
X133599501Y-81502123D01*
X133599500Y-81502135D01*
X133599500Y-82647870D01*
X133599501Y-82647876D01*
X133605908Y-82707483D01*
X133656202Y-82842328D01*
X133656206Y-82842335D01*
X133742452Y-82957544D01*
X133742455Y-82957547D01*
X133857664Y-83043793D01*
X133857671Y-83043797D01*
X133889947Y-83055835D01*
X133992517Y-83094091D01*
X134052127Y-83100500D01*
X134797872Y-83100499D01*
X134857483Y-83094091D01*
X134992331Y-83043796D01*
X135107546Y-82957546D01*
X135193796Y-82842331D01*
X135244091Y-82707483D01*
X135250500Y-82647873D01*
X135250500Y-82647844D01*
X135750000Y-82647844D01*
X135756401Y-82707372D01*
X135756403Y-82707379D01*
X135806645Y-82842086D01*
X135806649Y-82842093D01*
X135892809Y-82957187D01*
X135892812Y-82957190D01*
X136007906Y-83043350D01*
X136007913Y-83043354D01*
X136142620Y-83093596D01*
X136142627Y-83093598D01*
X136202155Y-83099999D01*
X136202172Y-83100000D01*
X136325000Y-83100000D01*
X136325000Y-82325000D01*
X135750000Y-82325000D01*
X135750000Y-82647844D01*
X135250500Y-82647844D01*
X135250499Y-81502155D01*
X135750000Y-81502155D01*
X135750000Y-81825000D01*
X136325000Y-81825000D01*
X136825000Y-81825000D01*
X137400000Y-81825000D01*
X137400000Y-81502172D01*
X137399999Y-81502155D01*
X137393598Y-81442627D01*
X137393596Y-81442620D01*
X137343354Y-81307913D01*
X137343350Y-81307906D01*
X137257190Y-81192812D01*
X137257187Y-81192809D01*
X137142093Y-81106649D01*
X137142086Y-81106645D01*
X137007379Y-81056403D01*
X137007372Y-81056401D01*
X136947844Y-81050000D01*
X136825000Y-81050000D01*
X136825000Y-81825000D01*
X136325000Y-81825000D01*
X136325000Y-81050000D01*
X136202155Y-81050000D01*
X136142627Y-81056401D01*
X136142620Y-81056403D01*
X136007913Y-81106645D01*
X136007906Y-81106649D01*
X135892812Y-81192809D01*
X135892809Y-81192812D01*
X135806649Y-81307906D01*
X135806645Y-81307913D01*
X135756403Y-81442620D01*
X135756401Y-81442627D01*
X135750000Y-81502155D01*
X135250499Y-81502155D01*
X135250499Y-81502128D01*
X135244091Y-81442517D01*
X135193884Y-81307906D01*
X135193797Y-81307671D01*
X135193793Y-81307664D01*
X135107548Y-81192457D01*
X135107546Y-81192454D01*
X135051388Y-81150413D01*
X135009518Y-81094481D01*
X135001700Y-81051148D01*
X135001700Y-78948851D01*
X135021385Y-78881812D01*
X135051386Y-78849587D01*
X135107546Y-78807546D01*
X135193796Y-78692331D01*
X135244091Y-78557483D01*
X135250500Y-78497873D01*
X135250500Y-78497844D01*
X135750000Y-78497844D01*
X135756401Y-78557372D01*
X135756403Y-78557379D01*
X135806645Y-78692086D01*
X135806649Y-78692093D01*
X135892809Y-78807187D01*
X135892812Y-78807190D01*
X136007906Y-78893350D01*
X136007913Y-78893354D01*
X136142620Y-78943596D01*
X136142627Y-78943598D01*
X136202155Y-78949999D01*
X136202172Y-78950000D01*
X136325000Y-78950000D01*
X136325000Y-78175000D01*
X135750000Y-78175000D01*
X135750000Y-78497844D01*
X135250500Y-78497844D01*
X135250499Y-77925000D01*
X135250499Y-77514952D01*
X135254053Y-77502846D01*
X135252979Y-77490277D01*
X135263709Y-77469960D01*
X135270183Y-77447913D01*
X135279717Y-77439651D01*
X135285610Y-77428495D01*
X135305622Y-77417204D01*
X135322987Y-77402158D01*
X135336927Y-77399542D01*
X135346463Y-77394163D01*
X135367372Y-77393831D01*
X135381629Y-77391157D01*
X135390230Y-77391652D01*
X135458845Y-77405301D01*
X135617476Y-77405301D01*
X135617481Y-77405300D01*
X135627181Y-77405300D01*
X135630740Y-77405505D01*
X135649391Y-77412168D01*
X135693039Y-77424985D01*
X135696524Y-77429007D01*
X135696537Y-77429012D01*
X135696605Y-77429101D01*
X135738794Y-77477789D01*
X135750000Y-77529300D01*
X135750000Y-77675000D01*
X136451000Y-77675000D01*
X136518039Y-77694685D01*
X136563794Y-77747489D01*
X136575000Y-77799000D01*
X136575000Y-77925000D01*
X136701000Y-77925000D01*
X136768039Y-77944685D01*
X136813794Y-77997489D01*
X136825000Y-78049000D01*
X136825000Y-78950000D01*
X136947828Y-78950000D01*
X136947844Y-78949999D01*
X137007372Y-78943598D01*
X137007379Y-78943596D01*
X137142086Y-78893354D01*
X137142093Y-78893350D01*
X137257187Y-78807190D01*
X137257190Y-78807187D01*
X137343350Y-78692093D01*
X137343354Y-78692086D01*
X137393596Y-78557379D01*
X137393598Y-78557372D01*
X137399999Y-78497844D01*
X137400000Y-78497827D01*
X137400000Y-78286044D01*
X137419685Y-78219005D01*
X137472489Y-78173250D01*
X137541647Y-78163306D01*
X137605203Y-78192331D01*
X137611681Y-78198363D01*
X138606837Y-79193519D01*
X138640322Y-79254842D01*
X138635338Y-79324534D01*
X138593468Y-79380466D01*
X138577452Y-79392455D01*
X138491206Y-79507664D01*
X138491202Y-79507671D01*
X138440908Y-79642517D01*
X138434501Y-79702116D01*
X138434500Y-79702135D01*
X138434500Y-80407112D01*
X138414815Y-80474151D01*
X138398181Y-80494793D01*
X137863943Y-81029030D01*
X137863942Y-81029031D01*
X137781372Y-81152607D01*
X137781366Y-81152618D01*
X137724496Y-81289916D01*
X137724493Y-81289926D01*
X137695499Y-81435685D01*
X137695499Y-81590425D01*
X137695500Y-81590446D01*
X137695500Y-82621500D01*
X137692949Y-82630185D01*
X137694238Y-82639147D01*
X137683259Y-82663187D01*
X137675815Y-82688539D01*
X137668974Y-82694466D01*
X137665213Y-82702703D01*
X137642978Y-82716992D01*
X137623011Y-82734294D01*
X137612496Y-82736581D01*
X137606435Y-82740477D01*
X137571500Y-82745500D01*
X137524000Y-82745500D01*
X137456961Y-82725815D01*
X137411206Y-82673011D01*
X137400000Y-82621500D01*
X137400000Y-82325000D01*
X136825000Y-82325000D01*
X136825000Y-83056613D01*
X136805315Y-83123652D01*
X136788681Y-83144294D01*
X135094273Y-84838701D01*
X135032950Y-84872186D01*
X134963258Y-84867202D01*
X134907325Y-84825330D01*
X134885426Y-84777377D01*
X134882741Y-84765033D01*
X134872876Y-84735393D01*
X134848616Y-84662502D01*
X134848613Y-84662496D01*
X134770825Y-84541457D01*
X134770285Y-84540834D01*
X134725076Y-84488659D01*
X134725072Y-84488656D01*
X134725070Y-84488653D01*
X134616336Y-84394433D01*
X134616333Y-84394431D01*
X134616331Y-84394430D01*
X134485465Y-84334664D01*
X134485460Y-84334662D01*
X134485459Y-84334662D01*
X134418420Y-84314977D01*
X134418422Y-84314977D01*
X134418417Y-84314976D01*
X134356347Y-84306052D01*
X134276000Y-84294500D01*
X133124000Y-84294500D01*
X133123991Y-84294500D01*
X133123990Y-84294501D01*
X133016549Y-84306052D01*
X133016537Y-84306054D01*
X132965027Y-84317260D01*
X132862502Y-84351383D01*
X132862496Y-84351386D01*
X132741462Y-84429171D01*
X132741451Y-84429179D01*
X132688659Y-84474923D01*
X132594433Y-84583664D01*
X132594430Y-84583668D01*
X132534664Y-84714534D01*
X132514976Y-84781582D01*
X132506764Y-84838701D01*
X132495641Y-84916068D01*
X132494500Y-84924001D01*
X132494500Y-85895731D01*
X132496480Y-85940427D01*
X132498422Y-85962293D01*
X132503126Y-85997477D01*
X132504356Y-86006680D01*
X132549614Y-86143257D01*
X132580807Y-86205777D01*
X132580808Y-86205778D01*
X132662702Y-86324061D01*
X132668737Y-86330559D01*
X132666713Y-86332437D01*
X132698419Y-86378213D01*
X132700833Y-86448041D01*
X132698426Y-86456241D01*
X132660001Y-86572200D01*
X132660000Y-86572204D01*
X132649500Y-86674983D01*
X132649500Y-87725001D01*
X132649501Y-87725019D01*
X132660000Y-87827796D01*
X132660001Y-87827799D01*
X132711858Y-87984290D01*
X132715186Y-87994334D01*
X132795629Y-88124754D01*
X132807289Y-88143657D01*
X132858181Y-88194549D01*
X132872711Y-88221159D01*
X132889263Y-88246573D01*
X132890247Y-88253273D01*
X132891666Y-88255872D01*
X132894498Y-88281477D01*
X132894500Y-88281759D01*
X132894500Y-88431000D01*
X132895459Y-88439928D01*
X132895498Y-88446190D01*
X132895465Y-88446302D01*
X132895500Y-88446943D01*
X132895500Y-88484529D01*
X132875815Y-88551568D01*
X132845812Y-88583795D01*
X132767452Y-88642455D01*
X132681206Y-88757664D01*
X132681202Y-88757671D01*
X132630908Y-88892517D01*
X132624541Y-88951744D01*
X132624501Y-88952123D01*
X132624500Y-88952135D01*
X132624500Y-92647870D01*
X132624501Y-92647876D01*
X132630908Y-92707483D01*
X132681202Y-92842328D01*
X132681206Y-92842335D01*
X132767452Y-92957544D01*
X132767455Y-92957547D01*
X132882664Y-93043793D01*
X132882671Y-93043797D01*
X133017517Y-93094091D01*
X133017516Y-93094091D01*
X133024444Y-93094835D01*
X133077127Y-93100500D01*
X134672872Y-93100499D01*
X134732483Y-93094091D01*
X134867331Y-93043796D01*
X134982546Y-92957546D01*
X135068796Y-92842331D01*
X135119091Y-92707483D01*
X135125500Y-92647873D01*
X135125499Y-88952128D01*
X135119091Y-88892517D01*
X135090752Y-88816537D01*
X135068797Y-88757671D01*
X135068793Y-88757664D01*
X134982547Y-88642455D01*
X134915383Y-88592175D01*
X134873513Y-88536241D01*
X134868529Y-88466549D01*
X134902015Y-88405226D01*
X134963339Y-88371742D01*
X135028700Y-88375203D01*
X135147305Y-88414505D01*
X135147309Y-88414506D01*
X135250019Y-88424999D01*
X135299999Y-88424998D01*
X135300000Y-88424998D01*
X135300000Y-87324000D01*
X135319685Y-87256961D01*
X135372489Y-87211206D01*
X135424000Y-87200000D01*
X135550000Y-87200000D01*
X135550000Y-87074000D01*
X135569685Y-87006961D01*
X135622489Y-86961206D01*
X135674000Y-86950000D01*
X136549999Y-86950000D01*
X136549999Y-86675028D01*
X136549998Y-86675013D01*
X136539505Y-86572302D01*
X136484358Y-86405880D01*
X136484356Y-86405875D01*
X136392315Y-86256654D01*
X136268345Y-86132684D01*
X136195236Y-86087590D01*
X136148512Y-86035642D01*
X136137289Y-85966679D01*
X136165133Y-85902597D01*
X136172630Y-85894393D01*
X137506112Y-84560911D01*
X137515024Y-84556045D01*
X137521255Y-84548023D01*
X137545175Y-84539581D01*
X137567433Y-84527428D01*
X137577562Y-84528152D01*
X137587142Y-84524772D01*
X137611826Y-84530602D01*
X137637125Y-84532412D01*
X137645256Y-84538499D01*
X137655141Y-84540834D01*
X137672754Y-84559084D01*
X137693058Y-84574284D01*
X137697899Y-84585138D01*
X137703661Y-84591109D01*
X137715406Y-84624391D01*
X137717381Y-84634315D01*
X137717383Y-84634327D01*
X137724493Y-84670073D01*
X137724496Y-84670084D01*
X137745377Y-84720494D01*
X137745378Y-84720496D01*
X137781366Y-84807381D01*
X137781372Y-84807392D01*
X137863942Y-84930968D01*
X137863943Y-84930969D01*
X138855600Y-85922624D01*
X138855621Y-85922647D01*
X138965031Y-86032057D01*
X139023065Y-86070834D01*
X139023068Y-86070836D01*
X139028545Y-86074495D01*
X139088611Y-86114630D01*
X139169045Y-86147946D01*
X139225920Y-86171505D01*
X139225929Y-86171506D01*
X139225930Y-86171507D01*
X139250103Y-86176315D01*
X139250110Y-86176316D01*
X139371686Y-86200501D01*
X139371688Y-86200501D01*
X139526426Y-86200501D01*
X139526446Y-86200500D01*
X141988494Y-86200500D01*
X142055533Y-86220185D01*
X142101288Y-86272989D01*
X142111232Y-86342147D01*
X142107570Y-86359095D01*
X142062335Y-86514791D01*
X142062334Y-86514797D01*
X142059500Y-86550811D01*
X142059500Y-87049169D01*
X142059501Y-87049191D01*
X142062335Y-87085205D01*
X142107129Y-87239388D01*
X142107131Y-87239393D01*
X142185232Y-87371455D01*
X142202500Y-87434576D01*
X142202500Y-87641807D01*
X142226612Y-87763028D01*
X142226613Y-87763032D01*
X142226614Y-87763035D01*
X142259502Y-87842431D01*
X142273917Y-87877233D01*
X142276046Y-87880420D01*
X142279908Y-87889297D01*
X142283599Y-87918743D01*
X142289818Y-87948483D01*
X142287000Y-87984290D01*
X142287000Y-88415701D01*
X142289901Y-88452567D01*
X142289902Y-88452573D01*
X142335754Y-88610393D01*
X142335756Y-88610399D01*
X142336926Y-88612377D01*
X142337369Y-88614126D01*
X142338853Y-88617554D01*
X142338299Y-88617793D01*
X142354103Y-88680102D01*
X142338749Y-88732395D01*
X142339317Y-88732641D01*
X142337327Y-88737239D01*
X142336928Y-88738599D01*
X142336222Y-88739791D01*
X142336216Y-88739806D01*
X142290400Y-88897505D01*
X142290399Y-88897511D01*
X142290204Y-88899998D01*
X142290205Y-88900000D01*
X142555685Y-88900000D01*
X142577706Y-88906466D01*
X142618806Y-88917268D01*
X142677102Y-88951744D01*
X142678448Y-88952135D01*
X142834926Y-88997597D01*
X142834929Y-88997597D01*
X142834931Y-88997598D01*
X142871806Y-89000500D01*
X143326000Y-89000500D01*
X143334685Y-89003050D01*
X143343647Y-89001762D01*
X143367687Y-89012740D01*
X143393039Y-89020185D01*
X143398966Y-89027025D01*
X143407203Y-89030787D01*
X143421492Y-89053021D01*
X143438794Y-89072989D01*
X143441081Y-89083503D01*
X143444977Y-89089565D01*
X143450000Y-89124500D01*
X143450000Y-89175500D01*
X143430315Y-89242539D01*
X143377511Y-89288294D01*
X143326000Y-89299500D01*
X142871798Y-89299500D01*
X142834936Y-89302401D01*
X142834931Y-89302402D01*
X142754986Y-89325628D01*
X142738550Y-89325580D01*
X142722879Y-89330526D01*
X142704336Y-89325483D01*
X142685117Y-89325428D01*
X142668881Y-89319346D01*
X142653153Y-89312163D01*
X142586108Y-89292476D01*
X142524803Y-89283662D01*
X142443691Y-89272000D01*
X141806681Y-89272000D01*
X141776960Y-89273459D01*
X141757138Y-89274433D01*
X141732996Y-89276810D01*
X141732961Y-89276814D01*
X141732955Y-89276815D01*
X141732945Y-89276816D01*
X141732925Y-89276819D01*
X141683877Y-89284093D01*
X141641029Y-89292617D01*
X141616837Y-89295000D01*
X141583159Y-89295000D01*
X141558968Y-89292617D01*
X141525924Y-89286044D01*
X141502670Y-89278990D01*
X141471542Y-89266096D01*
X141450110Y-89254641D01*
X141369219Y-89200591D01*
X141367859Y-89199691D01*
X141365271Y-89197978D01*
X141363497Y-89196816D01*
X141359820Y-89194431D01*
X141359817Y-89194430D01*
X141228951Y-89134664D01*
X141228946Y-89134662D01*
X141228945Y-89134662D01*
X141161906Y-89114977D01*
X141161908Y-89114977D01*
X141161903Y-89114976D01*
X141114430Y-89108150D01*
X141019486Y-89094500D01*
X141019484Y-89094500D01*
X138629500Y-89094500D01*
X138562461Y-89074815D01*
X138516706Y-89022011D01*
X138505500Y-88970500D01*
X138505500Y-88924010D01*
X138505500Y-88924000D01*
X138493947Y-88816544D01*
X138482741Y-88765033D01*
X138471878Y-88732395D01*
X138448616Y-88662502D01*
X138448613Y-88662496D01*
X138377323Y-88551568D01*
X138370825Y-88541457D01*
X138370820Y-88541451D01*
X138325076Y-88488659D01*
X138325072Y-88488656D01*
X138325070Y-88488653D01*
X138216336Y-88394433D01*
X138216333Y-88394431D01*
X138216331Y-88394430D01*
X138085465Y-88334664D01*
X138085460Y-88334662D01*
X138085459Y-88334662D01*
X138018420Y-88314977D01*
X138018422Y-88314977D01*
X138018417Y-88314976D01*
X137956354Y-88306053D01*
X137876000Y-88294500D01*
X137875998Y-88294500D01*
X136521258Y-88294500D01*
X136454219Y-88274815D01*
X136408464Y-88222011D01*
X136398520Y-88152853D01*
X136415719Y-88105403D01*
X136484356Y-87994124D01*
X136484358Y-87994119D01*
X136539505Y-87827697D01*
X136539506Y-87827690D01*
X136549999Y-87724986D01*
X136550000Y-87724973D01*
X136550000Y-87450000D01*
X135800000Y-87450000D01*
X135800000Y-88323842D01*
X135780315Y-88390881D01*
X135744865Y-88426330D01*
X135745006Y-88426518D01*
X135743704Y-88427492D01*
X135743041Y-88428156D01*
X135741466Y-88429168D01*
X135741451Y-88429179D01*
X135688659Y-88474923D01*
X135594433Y-88583664D01*
X135594430Y-88583668D01*
X135534664Y-88714534D01*
X135514976Y-88781582D01*
X135509949Y-88816549D01*
X135494502Y-88923990D01*
X135494500Y-88924001D01*
X135494500Y-92838245D01*
X135505111Y-92941265D01*
X135505112Y-92941271D01*
X135505113Y-92941277D01*
X135512277Y-92975685D01*
X135515419Y-92990775D01*
X135546805Y-93089470D01*
X135546806Y-93089471D01*
X135546807Y-93089473D01*
X135546808Y-93089475D01*
X135622422Y-93211884D01*
X135667227Y-93265497D01*
X135667228Y-93265498D01*
X135667231Y-93265501D01*
X135688226Y-93284360D01*
X135774265Y-93361646D01*
X135830779Y-93399408D01*
X135834656Y-93401973D01*
X135836508Y-93403186D01*
X135840275Y-93405629D01*
X135846944Y-93408672D01*
X135856705Y-93413661D01*
X135897158Y-93436647D01*
X135897072Y-93436829D01*
X135899643Y-93438059D01*
X135903439Y-93440216D01*
X135924809Y-93462322D01*
X135947675Y-93482862D01*
X135948867Y-93487208D01*
X135952001Y-93490450D01*
X135958027Y-93520600D01*
X135966159Y-93550242D01*
X135965207Y-93556523D01*
X135965696Y-93558965D01*
X135964299Y-93562525D01*
X135961256Y-93582621D01*
X135922832Y-93714877D01*
X135920069Y-93750000D01*
X136566000Y-93750000D01*
X136633039Y-93769685D01*
X136678794Y-93822489D01*
X136690000Y-93874000D01*
X136690000Y-94126000D01*
X136687449Y-94134685D01*
X136688738Y-94143647D01*
X136677759Y-94167687D01*
X136670315Y-94193039D01*
X136663474Y-94198966D01*
X136659713Y-94207203D01*
X136637478Y-94221492D01*
X136617511Y-94238794D01*
X136606996Y-94241081D01*
X136600935Y-94244977D01*
X136566000Y-94250000D01*
X136518907Y-94250000D01*
X136471454Y-94240561D01*
X136395535Y-94209114D01*
X136395527Y-94209112D01*
X136274307Y-94185000D01*
X136274303Y-94185000D01*
X135316035Y-94185000D01*
X135248996Y-94165315D01*
X135228354Y-94148682D01*
X135188813Y-94109141D01*
X135105391Y-94025719D01*
X135105388Y-94025717D01*
X135105387Y-94025716D01*
X134962295Y-93937455D01*
X134962289Y-93937452D01*
X134962287Y-93937451D01*
X134802685Y-93884564D01*
X134802683Y-93884563D01*
X134704181Y-93874500D01*
X134704174Y-93874500D01*
X134095826Y-93874500D01*
X134095818Y-93874500D01*
X133997316Y-93884563D01*
X133997315Y-93884564D01*
X133922383Y-93909394D01*
X133837715Y-93937450D01*
X133837704Y-93937455D01*
X133694612Y-94025716D01*
X133694608Y-94025719D01*
X133575719Y-94144608D01*
X133575716Y-94144612D01*
X133487455Y-94287704D01*
X133487450Y-94287715D01*
X133475256Y-94324515D01*
X133434564Y-94447315D01*
X133434564Y-94447316D01*
X133434563Y-94447316D01*
X133424500Y-94545818D01*
X133424500Y-94723799D01*
X133404815Y-94790838D01*
X133352011Y-94836593D01*
X133282853Y-94846537D01*
X133253051Y-94838362D01*
X133242654Y-94834056D01*
X133233497Y-94830263D01*
X133233493Y-94830262D01*
X133233489Y-94830261D01*
X133078845Y-94799500D01*
X133078842Y-94799500D01*
X132921158Y-94799500D01*
X132921155Y-94799500D01*
X132766510Y-94830261D01*
X132766498Y-94830264D01*
X132620827Y-94890602D01*
X132620814Y-94890609D01*
X132489711Y-94978210D01*
X132489707Y-94978213D01*
X132378213Y-95089707D01*
X132378210Y-95089711D01*
X132290609Y-95220814D01*
X132290602Y-95220827D01*
X132230264Y-95366498D01*
X132230261Y-95366510D01*
X132199500Y-95521153D01*
X132199500Y-95678846D01*
X132230261Y-95833489D01*
X132230263Y-95833497D01*
X132236061Y-95847494D01*
X132245500Y-95894947D01*
X132245500Y-96340526D01*
X132245499Y-96340552D01*
X132245499Y-96494288D01*
X132263497Y-96584767D01*
X132263500Y-96584777D01*
X132264488Y-96589744D01*
X132274495Y-96640054D01*
X132287183Y-96670685D01*
X132289904Y-96677254D01*
X132331368Y-96777359D01*
X132331372Y-96777366D01*
X132413942Y-96900942D01*
X132413943Y-96900943D01*
X132603954Y-97090953D01*
X134191952Y-98678950D01*
X134218831Y-98719176D01*
X134224630Y-98733175D01*
X134224633Y-98733181D01*
X134312233Y-98864284D01*
X134312239Y-98864292D01*
X134423733Y-98975786D01*
X134423737Y-98975789D01*
X134554840Y-99063390D01*
X134554853Y-99063397D01*
X134696410Y-99122031D01*
X134700529Y-99123737D01*
X134827026Y-99148899D01*
X134855179Y-99154499D01*
X134855182Y-99154500D01*
X134855184Y-99154500D01*
X135012868Y-99154500D01*
X135068337Y-99143466D01*
X135102083Y-99146485D01*
X135135854Y-99148899D01*
X135136776Y-99149589D01*
X135137926Y-99149692D01*
X135164677Y-99170472D01*
X135191791Y-99190766D01*
X135192194Y-99191847D01*
X135193104Y-99192554D01*
X135204358Y-99224454D01*
X135216212Y-99256229D01*
X135215966Y-99257357D01*
X135216350Y-99258444D01*
X135208566Y-99291384D01*
X135201364Y-99324503D01*
X135200453Y-99325719D01*
X135200283Y-99326441D01*
X135180215Y-99352759D01*
X135172081Y-99360894D01*
X135163941Y-99369034D01*
X135163939Y-99369036D01*
X134675047Y-99857927D01*
X134634822Y-99884806D01*
X134620823Y-99890604D01*
X134620814Y-99890609D01*
X134489711Y-99978210D01*
X134489707Y-99978213D01*
X134378213Y-100089707D01*
X134378210Y-100089711D01*
X134290609Y-100220814D01*
X134290602Y-100220827D01*
X134230264Y-100366498D01*
X134230261Y-100366510D01*
X134199500Y-100521153D01*
X134199500Y-100678846D01*
X134230261Y-100833489D01*
X134230264Y-100833501D01*
X134290602Y-100979172D01*
X134290609Y-100979185D01*
X134378210Y-101110288D01*
X134378213Y-101110292D01*
X134489707Y-101221786D01*
X134489711Y-101221789D01*
X134620814Y-101309390D01*
X134620827Y-101309397D01*
X134727180Y-101353449D01*
X134766503Y-101369737D01*
X134871730Y-101390668D01*
X134921153Y-101400499D01*
X134921156Y-101400500D01*
X134921158Y-101400500D01*
X134943361Y-101400500D01*
X134967552Y-101402882D01*
X134975688Y-101404501D01*
X135124314Y-101404501D01*
X135197690Y-101389904D01*
X135270079Y-101375505D01*
X135407390Y-101318630D01*
X135530966Y-101236059D01*
X135636059Y-101130966D01*
X135718630Y-101007390D01*
X135750906Y-100929464D01*
X135755538Y-100922533D01*
X135756635Y-100917491D01*
X135777783Y-100889240D01*
X135931757Y-100735265D01*
X135993080Y-100701781D01*
X136062772Y-100706765D01*
X136084536Y-100717409D01*
X136116299Y-100737001D01*
X136116300Y-100737001D01*
X136116303Y-100737003D01*
X136277292Y-100790349D01*
X136376655Y-100800500D01*
X136632113Y-100800499D01*
X136699152Y-100820183D01*
X136719794Y-100836818D01*
X137013939Y-101130963D01*
X137013941Y-101130966D01*
X137035544Y-101152569D01*
X137083075Y-101200101D01*
X137103932Y-101238298D01*
X137116381Y-101261098D01*
X137116560Y-101261425D01*
X137114893Y-101284719D01*
X137111575Y-101331115D01*
X137075726Y-101379003D01*
X137069702Y-101387049D01*
X137069699Y-101387049D01*
X137038728Y-101403962D01*
X136977915Y-101426644D01*
X136977911Y-101426647D01*
X136864387Y-101511631D01*
X136798923Y-101536048D01*
X136742625Y-101526926D01*
X136716326Y-101516033D01*
X136699127Y-101508909D01*
X136699123Y-101508908D01*
X136699119Y-101508907D01*
X136501007Y-101469500D01*
X136501003Y-101469500D01*
X136298997Y-101469500D01*
X136298992Y-101469500D01*
X136100880Y-101508907D01*
X136100872Y-101508909D01*
X135914247Y-101586212D01*
X135914237Y-101586217D01*
X135746281Y-101698441D01*
X135603441Y-101841281D01*
X135491217Y-102009237D01*
X135491212Y-102009247D01*
X135413909Y-102195872D01*
X135413907Y-102195880D01*
X135374500Y-102393992D01*
X135374500Y-103646007D01*
X135413907Y-103844119D01*
X135413909Y-103844127D01*
X135491212Y-104030752D01*
X135491217Y-104030761D01*
X135503778Y-104049560D01*
X135524656Y-104116237D01*
X135506172Y-104183617D01*
X135454193Y-104230308D01*
X135385223Y-104241484D01*
X135337556Y-104225183D01*
X135239397Y-104167133D01*
X135239388Y-104167129D01*
X135085208Y-104122335D01*
X135085202Y-104122334D01*
X135049181Y-104119500D01*
X134550830Y-104119500D01*
X134550808Y-104119501D01*
X134514794Y-104122335D01*
X134360611Y-104167129D01*
X134360606Y-104167131D01*
X134222404Y-104248863D01*
X134222396Y-104248869D01*
X134108869Y-104362396D01*
X134108863Y-104362404D01*
X134027131Y-104500606D01*
X134027129Y-104500611D01*
X133982335Y-104654791D01*
X133982334Y-104654797D01*
X133979500Y-104690811D01*
X133979500Y-105089169D01*
X133979501Y-105089191D01*
X133982335Y-105125205D01*
X134027129Y-105279388D01*
X134027130Y-105279391D01*
X134061419Y-105337371D01*
X134078601Y-105405095D01*
X134061419Y-105463611D01*
X134027594Y-105520806D01*
X133987156Y-105660000D01*
X134539591Y-105660000D01*
X134549318Y-105660382D01*
X134549516Y-105660397D01*
X134550819Y-105660500D01*
X135049180Y-105660499D01*
X135049193Y-105660498D01*
X135050668Y-105660382D01*
X135060393Y-105660000D01*
X135612845Y-105660000D01*
X135612844Y-105659999D01*
X135602762Y-105625294D01*
X135602962Y-105555425D01*
X135640905Y-105496755D01*
X135704544Y-105467912D01*
X135721839Y-105466700D01*
X136212830Y-105466700D01*
X136279869Y-105486385D01*
X136325624Y-105539189D01*
X136335568Y-105608347D01*
X136306543Y-105671903D01*
X136247765Y-105709677D01*
X136237022Y-105712317D01*
X136108170Y-105737947D01*
X136108160Y-105737950D01*
X135926092Y-105813364D01*
X135926079Y-105813371D01*
X135762218Y-105922860D01*
X135762214Y-105922863D01*
X135622862Y-106062215D01*
X135594349Y-106104890D01*
X135540737Y-106149695D01*
X135491246Y-106160000D01*
X135050000Y-106160000D01*
X135050000Y-106876000D01*
X135030315Y-106943039D01*
X134977511Y-106988794D01*
X134926000Y-107000000D01*
X134800000Y-107000000D01*
X134800000Y-107125500D01*
X134797514Y-107133966D01*
X134798802Y-107142697D01*
X134787820Y-107166977D01*
X134780315Y-107192539D01*
X134773647Y-107198316D01*
X134770010Y-107206359D01*
X134747643Y-107220848D01*
X134727511Y-107238294D01*
X134717234Y-107240549D01*
X134711371Y-107244348D01*
X134677337Y-107249305D01*
X134676455Y-107249499D01*
X134675977Y-107249500D01*
X134550820Y-107249501D01*
X134544706Y-107249981D01*
X134540062Y-107249999D01*
X134540010Y-107249984D01*
X134539607Y-107250000D01*
X133987156Y-107250000D01*
X134027594Y-107389193D01*
X134061419Y-107446388D01*
X134078601Y-107514112D01*
X134061419Y-107572628D01*
X134027130Y-107630607D01*
X134027129Y-107630611D01*
X133982335Y-107784791D01*
X133982334Y-107784797D01*
X133979500Y-107820811D01*
X133979500Y-108219169D01*
X133979501Y-108219191D01*
X133982335Y-108255205D01*
X134027129Y-108409388D01*
X134027131Y-108409393D01*
X134108863Y-108547595D01*
X134108869Y-108547603D01*
X134222396Y-108661130D01*
X134222400Y-108661133D01*
X134222402Y-108661135D01*
X134360607Y-108742869D01*
X134401268Y-108754682D01*
X134514791Y-108787664D01*
X134514794Y-108787664D01*
X134514796Y-108787665D01*
X134550819Y-108790500D01*
X135049180Y-108790499D01*
X135085204Y-108787665D01*
X135239393Y-108742869D01*
X135371455Y-108664768D01*
X135434576Y-108647500D01*
X135641804Y-108647500D01*
X135641805Y-108647499D01*
X135763035Y-108623386D01*
X135841473Y-108590894D01*
X135910942Y-108583426D01*
X135936375Y-108590893D01*
X136108165Y-108662051D01*
X136108169Y-108662051D01*
X136108170Y-108662052D01*
X136301456Y-108700500D01*
X136301459Y-108700500D01*
X136498543Y-108700500D01*
X136628582Y-108674632D01*
X136691835Y-108662051D01*
X136873914Y-108586632D01*
X137037782Y-108477139D01*
X137177139Y-108337782D01*
X137286632Y-108173914D01*
X137345809Y-108031048D01*
X137389650Y-107976644D01*
X137455944Y-107954579D01*
X137460370Y-107954500D01*
X143979630Y-107954500D01*
X144046669Y-107974185D01*
X144092424Y-108026989D01*
X144094191Y-108031048D01*
X144153364Y-108173907D01*
X144153371Y-108173920D01*
X144262860Y-108337781D01*
X144262863Y-108337785D01*
X144402214Y-108477136D01*
X144402218Y-108477139D01*
X144566079Y-108586628D01*
X144566092Y-108586635D01*
X144745956Y-108661136D01*
X144748165Y-108662051D01*
X144748169Y-108662051D01*
X144748170Y-108662052D01*
X144941456Y-108700500D01*
X144941459Y-108700500D01*
X145138543Y-108700500D01*
X145268582Y-108674632D01*
X145331835Y-108662051D01*
X145513914Y-108586632D01*
X145677782Y-108477139D01*
X145817139Y-108337782D01*
X145926632Y-108173914D01*
X146002051Y-107991835D01*
X146036069Y-107820819D01*
X146040500Y-107798543D01*
X146040500Y-107362606D01*
X146060185Y-107295567D01*
X146112989Y-107249812D01*
X146182147Y-107239868D01*
X146199095Y-107243530D01*
X146314871Y-107277166D01*
X146314877Y-107277167D01*
X146350000Y-107279931D01*
X146350000Y-107279930D01*
X146850000Y-107279930D01*
X146885122Y-107277167D01*
X146885128Y-107277166D01*
X147039188Y-107232407D01*
X147039191Y-107232406D01*
X147177285Y-107150738D01*
X147177294Y-107150731D01*
X147290731Y-107037294D01*
X147290738Y-107037285D01*
X147372404Y-106899194D01*
X147412844Y-106760000D01*
X146850000Y-106760000D01*
X146850000Y-107279930D01*
X146350000Y-107279930D01*
X146350000Y-106634000D01*
X146369685Y-106566961D01*
X146422489Y-106521206D01*
X146474000Y-106510000D01*
X146600000Y-106510000D01*
X146600000Y-106384499D01*
X146602486Y-106376032D01*
X146601198Y-106367301D01*
X146612179Y-106343021D01*
X146619685Y-106317460D01*
X146626354Y-106311681D01*
X146629991Y-106303640D01*
X146652355Y-106289151D01*
X146672489Y-106271705D01*
X146682764Y-106269449D01*
X146688630Y-106265650D01*
X146722664Y-106260693D01*
X146723546Y-106260500D01*
X146723750Y-106260499D01*
X146849180Y-106260499D01*
X146855294Y-106260017D01*
X146859939Y-106260001D01*
X146859990Y-106260015D01*
X146860393Y-106260000D01*
X147412844Y-106260000D01*
X147372404Y-106120805D01*
X147338581Y-106063612D01*
X147321398Y-105995888D01*
X147338582Y-105937369D01*
X147372867Y-105879396D01*
X147372869Y-105879393D01*
X147417665Y-105725204D01*
X147420500Y-105689181D01*
X147420499Y-105290820D01*
X147417665Y-105254796D01*
X147372869Y-105100607D01*
X147291135Y-104962402D01*
X147291133Y-104962400D01*
X147291130Y-104962396D01*
X147177603Y-104848869D01*
X147177595Y-104848863D01*
X147039393Y-104767131D01*
X147039389Y-104767129D01*
X147035928Y-104766124D01*
X147035922Y-104766122D01*
X146885204Y-104722335D01*
X146849181Y-104719500D01*
X146837193Y-104719500D01*
X146350830Y-104719500D01*
X146350808Y-104719501D01*
X146314794Y-104722335D01*
X146160611Y-104767129D01*
X146160606Y-104767131D01*
X146022404Y-104848863D01*
X146022396Y-104848869D01*
X145994285Y-104876981D01*
X145932962Y-104910466D01*
X145906604Y-104913300D01*
X144949303Y-104913300D01*
X144882264Y-104893615D01*
X144861622Y-104876981D01*
X144748874Y-104764233D01*
X144715389Y-104702910D01*
X144720373Y-104633218D01*
X144762245Y-104577285D01*
X144827709Y-104552868D01*
X144860745Y-104554934D01*
X144938995Y-104570499D01*
X144938996Y-104570500D01*
X144938997Y-104570500D01*
X145141004Y-104570500D01*
X145141005Y-104570499D01*
X145339127Y-104531091D01*
X145525756Y-104453786D01*
X145693718Y-104341558D01*
X145836558Y-104198718D01*
X145948786Y-104030756D01*
X146024353Y-103848322D01*
X146425001Y-103848322D01*
X146435144Y-103947607D01*
X146488452Y-104108481D01*
X146488457Y-104108492D01*
X146577424Y-104252728D01*
X146577427Y-104252732D01*
X146697267Y-104372572D01*
X146697271Y-104372575D01*
X146841507Y-104461542D01*
X146841518Y-104461547D01*
X146885277Y-104476047D01*
X147087956Y-104523597D01*
X147101684Y-104524999D01*
X147650000Y-104524999D01*
X147698308Y-104524999D01*
X147698322Y-104524998D01*
X147797607Y-104514855D01*
X147958481Y-104461547D01*
X147958492Y-104461542D01*
X148102728Y-104372575D01*
X148102732Y-104372572D01*
X148222572Y-104252732D01*
X148222575Y-104252728D01*
X148311542Y-104108492D01*
X148311547Y-104108481D01*
X148364855Y-103947606D01*
X148374999Y-103848322D01*
X148375000Y-103848309D01*
X148375000Y-103825000D01*
X147650000Y-103825000D01*
X147650000Y-104524999D01*
X147101684Y-104524999D01*
X147149999Y-104524998D01*
X147150000Y-104524998D01*
X147150000Y-103825000D01*
X146425001Y-103825000D01*
X146425001Y-103848322D01*
X146024353Y-103848322D01*
X146026091Y-103844127D01*
X146065500Y-103646003D01*
X146065500Y-102393997D01*
X146026091Y-102195873D01*
X145948786Y-102009244D01*
X145948784Y-102009241D01*
X145948782Y-102009237D01*
X145836558Y-101841281D01*
X145693718Y-101698441D01*
X145548914Y-101601687D01*
X145504109Y-101548075D01*
X145495402Y-101478750D01*
X145525556Y-101415723D01*
X145584999Y-101379003D01*
X145627533Y-101374967D01*
X145634306Y-101375500D01*
X145634314Y-101375500D01*
X146041456Y-101375500D01*
X146070896Y-101384144D01*
X146100883Y-101390668D01*
X146105898Y-101394422D01*
X146108495Y-101395185D01*
X146129137Y-101411819D01*
X146177914Y-101460596D01*
X146185432Y-101468822D01*
X146232075Y-101524708D01*
X146239714Y-101529768D01*
X146295499Y-101579944D01*
X146310591Y-101593518D01*
X146315349Y-101598031D01*
X146388181Y-101670863D01*
X146421666Y-101732186D01*
X146424500Y-101758544D01*
X146424500Y-102298337D01*
X146424501Y-102298355D01*
X146434650Y-102397707D01*
X146434651Y-102397710D01*
X146487996Y-102558694D01*
X146488001Y-102558705D01*
X146577029Y-102703040D01*
X146577032Y-102703044D01*
X146586660Y-102712672D01*
X146620145Y-102773995D01*
X146615161Y-102843687D01*
X146586663Y-102888031D01*
X146577428Y-102897265D01*
X146577424Y-102897271D01*
X146488457Y-103041507D01*
X146488452Y-103041518D01*
X146435144Y-103202393D01*
X146425000Y-103301677D01*
X146425000Y-103325000D01*
X148407345Y-103325000D01*
X148474384Y-103344685D01*
X148511661Y-103381962D01*
X148533344Y-103415702D01*
X148641976Y-103509832D01*
X148641977Y-103509833D01*
X148772721Y-103569543D01*
X148772725Y-103569544D01*
X148915001Y-103589999D01*
X148915003Y-103590000D01*
X150882537Y-103590000D01*
X150981064Y-103580295D01*
X150981076Y-103580293D01*
X151103739Y-103555893D01*
X151103747Y-103555891D01*
X151198478Y-103527155D01*
X151314041Y-103479286D01*
X151314042Y-103479286D01*
X151401342Y-103432624D01*
X151401352Y-103432618D01*
X151506609Y-103362288D01*
X151573286Y-103341410D01*
X151640667Y-103359894D01*
X151687357Y-103411873D01*
X151699500Y-103465390D01*
X151699500Y-109575500D01*
X151679815Y-109642539D01*
X151627011Y-109688294D01*
X151575500Y-109699500D01*
X129824500Y-109699500D01*
X129757461Y-109679815D01*
X129711706Y-109627011D01*
X129700500Y-109575500D01*
X129700500Y-106750000D01*
X133987156Y-106750000D01*
X134550000Y-106750000D01*
X134550000Y-106160000D01*
X133987156Y-106160000D01*
X134027595Y-106299194D01*
X134082408Y-106391879D01*
X134099591Y-106459603D01*
X134082408Y-106518121D01*
X134027595Y-106610805D01*
X133987156Y-106750000D01*
X129700500Y-106750000D01*
X129700500Y-71392155D01*
X129720185Y-71325116D01*
X129772989Y-71279361D01*
X129842147Y-71269417D01*
X129905703Y-71298442D01*
X129943477Y-71357220D01*
X129944835Y-71362230D01*
X129947165Y-71371601D01*
X130032307Y-71543275D01*
X130152365Y-71692633D01*
X130152366Y-71692634D01*
X130301725Y-71812692D01*
X130301724Y-71812692D01*
X130473397Y-71897834D01*
X130659361Y-71944081D01*
X130659357Y-71944081D01*
X130702395Y-71946999D01*
X130909999Y-71946999D01*
X130910000Y-71946998D01*
X130910000Y-70973816D01*
X130926060Y-70989876D01*
X131012939Y-71040036D01*
X131109840Y-71066000D01*
X131210160Y-71066000D01*
X131307061Y-71040036D01*
X131393940Y-70989876D01*
X131410000Y-70973816D01*
X131410000Y-71946999D01*
G37*
%TD.AperFunction*%
%TA.AperFunction,Conductor*%
G36*
X144738246Y-100868664D02*
G01*
X144742147Y-100868104D01*
X144748678Y-100869222D01*
X144863186Y-100891999D01*
X144863187Y-100892000D01*
X144863188Y-100892000D01*
X144978019Y-100892000D01*
X145045058Y-100911685D01*
X145090813Y-100964489D01*
X145097095Y-100981402D01*
X145098255Y-100985397D01*
X145181917Y-101126862D01*
X145181923Y-101126870D01*
X145298129Y-101243076D01*
X145298133Y-101243079D01*
X145298135Y-101243081D01*
X145298137Y-101243082D01*
X145328600Y-101261098D01*
X145376283Y-101312167D01*
X145388787Y-101380908D01*
X145362142Y-101445498D01*
X145304807Y-101485428D01*
X145241288Y-101489447D01*
X145141007Y-101469500D01*
X145141003Y-101469500D01*
X144938997Y-101469500D01*
X144938992Y-101469500D01*
X144740880Y-101508906D01*
X144740872Y-101508909D01*
X144697374Y-101526926D01*
X144686173Y-101528129D01*
X144676284Y-101533530D01*
X144652052Y-101531797D01*
X144627905Y-101534393D01*
X144616024Y-101529221D01*
X144606592Y-101528547D01*
X144575615Y-101511632D01*
X144560303Y-101500170D01*
X144518431Y-101444238D01*
X144513445Y-101374546D01*
X144520049Y-101353455D01*
X144569737Y-101233497D01*
X144600500Y-101078842D01*
X144600500Y-100990842D01*
X144606435Y-100970629D01*
X144607563Y-100949588D01*
X144616082Y-100937773D01*
X144620185Y-100923803D01*
X144636105Y-100910008D01*
X144648430Y-100892917D01*
X144661983Y-100887584D01*
X144672989Y-100878048D01*
X144693840Y-100875049D01*
X144713448Y-100867335D01*
X144738246Y-100868664D01*
G37*
%TD.AperFunction*%
%TA.AperFunction,Conductor*%
G36*
X135944165Y-97324185D02*
G01*
X135964807Y-97340819D01*
X135971955Y-97347967D01*
X135971959Y-97347970D01*
X136116294Y-97436998D01*
X136116297Y-97436999D01*
X136116303Y-97437003D01*
X136277292Y-97490349D01*
X136376655Y-97500500D01*
X137182112Y-97500499D01*
X137249151Y-97520183D01*
X137269793Y-97536818D01*
X137809600Y-98076624D01*
X137809621Y-98076647D01*
X137919028Y-98186054D01*
X137919035Y-98186060D01*
X138042608Y-98268628D01*
X138042609Y-98268628D01*
X138042610Y-98268629D01*
X138179920Y-98325505D01*
X138322988Y-98353963D01*
X138325683Y-98354499D01*
X138325687Y-98354500D01*
X138325688Y-98354500D01*
X138505053Y-98354500D01*
X138530671Y-98357175D01*
X138541898Y-98359545D01*
X138566503Y-98369737D01*
X138721158Y-98400500D01*
X138735853Y-98400500D01*
X138748522Y-98403175D01*
X138768347Y-98413843D01*
X138789943Y-98420185D01*
X138798515Y-98430078D01*
X138810049Y-98436285D01*
X138820959Y-98455979D01*
X138835698Y-98472989D01*
X138837561Y-98485948D01*
X138843907Y-98497403D01*
X138842438Y-98519865D01*
X138845642Y-98542147D01*
X138840202Y-98554058D01*
X138839348Y-98567124D01*
X138825968Y-98585226D01*
X138816617Y-98605703D01*
X138805601Y-98612781D01*
X138797819Y-98623312D01*
X138776775Y-98631307D01*
X138757839Y-98643477D01*
X138757499Y-98643577D01*
X138739801Y-98648718D01*
X138598447Y-98732314D01*
X138598438Y-98732321D01*
X138482321Y-98848438D01*
X138482314Y-98848447D01*
X138398718Y-98989801D01*
X138352899Y-99147513D01*
X138352704Y-99149998D01*
X138352705Y-99150000D01*
X138950000Y-99150000D01*
X138950000Y-98600000D01*
X138935833Y-98585833D01*
X138902348Y-98524510D01*
X138907332Y-98454818D01*
X138949204Y-98398885D01*
X138999323Y-98376535D01*
X139011388Y-98374134D01*
X139033497Y-98369737D01*
X139179179Y-98309394D01*
X139179184Y-98309390D01*
X139179187Y-98309389D01*
X139224712Y-98278970D01*
X139251043Y-98270724D01*
X139276167Y-98259303D01*
X139283916Y-98260430D01*
X139291389Y-98258091D01*
X139317999Y-98265390D01*
X139345308Y-98269365D01*
X139351217Y-98274503D01*
X139358770Y-98276575D01*
X139377210Y-98297104D01*
X139398034Y-98315210D01*
X139401740Y-98324412D01*
X139405460Y-98328553D01*
X139412641Y-98347340D01*
X139414162Y-98352554D01*
X139430263Y-98433497D01*
X139455688Y-98494879D01*
X139457580Y-98501363D01*
X139457531Y-98529819D01*
X139460573Y-98558112D01*
X139457471Y-98564306D01*
X139457460Y-98571232D01*
X139450000Y-98582796D01*
X139450000Y-99068191D01*
X139430315Y-99135230D01*
X139413681Y-99155872D01*
X139364727Y-99204825D01*
X139364722Y-99204831D01*
X139288802Y-99336328D01*
X139288802Y-99336329D01*
X139288801Y-99336331D01*
X139288801Y-99336332D01*
X139256230Y-99457888D01*
X139249500Y-99483006D01*
X139249500Y-99526000D01*
X139229815Y-99593039D01*
X139177011Y-99638794D01*
X139125500Y-99650000D01*
X138352705Y-99650000D01*
X138352704Y-99650001D01*
X138352899Y-99652486D01*
X138398718Y-99810198D01*
X138482314Y-99951552D01*
X138482321Y-99951561D01*
X138542725Y-100011965D01*
X138546155Y-100018247D01*
X138552014Y-100022362D01*
X138562678Y-100048507D01*
X138576210Y-100073288D01*
X138575699Y-100080428D01*
X138578403Y-100087057D01*
X138573240Y-100114815D01*
X138571226Y-100142980D01*
X138566624Y-100150383D01*
X138565627Y-100155748D01*
X138549294Y-100178269D01*
X138545341Y-100184631D01*
X138544029Y-100186024D01*
X138481919Y-100248135D01*
X138475739Y-100258583D01*
X138466306Y-100268607D01*
X138447545Y-100279601D01*
X138431650Y-100294437D01*
X138417998Y-100296917D01*
X138406026Y-100303934D01*
X138384300Y-100303040D01*
X138362906Y-100306928D01*
X138350078Y-100301633D01*
X138336215Y-100301063D01*
X138318420Y-100288565D01*
X138298322Y-100280269D01*
X138288328Y-100271303D01*
X138076647Y-100059621D01*
X138076624Y-100059600D01*
X137936818Y-99919794D01*
X137903333Y-99858471D01*
X137900499Y-99832113D01*
X137900499Y-99576662D01*
X137900498Y-99576644D01*
X137890349Y-99477292D01*
X137890348Y-99477289D01*
X137879581Y-99444797D01*
X137837003Y-99316303D01*
X137836999Y-99316297D01*
X137836998Y-99316294D01*
X137747970Y-99171959D01*
X137747967Y-99171955D01*
X137628044Y-99052032D01*
X137628040Y-99052029D01*
X137483705Y-98963001D01*
X137483699Y-98962998D01*
X137483697Y-98962997D01*
X137449988Y-98951827D01*
X137322709Y-98909651D01*
X137223346Y-98899500D01*
X136376662Y-98899500D01*
X136376644Y-98899501D01*
X136277292Y-98909650D01*
X136277289Y-98909651D01*
X136116305Y-98962996D01*
X136116294Y-98963001D01*
X135971959Y-99052029D01*
X135971955Y-99052032D01*
X135964807Y-99059181D01*
X135903484Y-99092666D01*
X135877126Y-99095500D01*
X135675688Y-99095500D01*
X135638346Y-99102927D01*
X135568754Y-99096698D01*
X135513578Y-99053834D01*
X135490335Y-98987944D01*
X135506404Y-98919947D01*
X135526473Y-98893630D01*
X135555815Y-98864289D01*
X135643420Y-98733179D01*
X135703763Y-98587497D01*
X135734526Y-98432842D01*
X135734526Y-98275158D01*
X135734526Y-98275155D01*
X135734525Y-98275153D01*
X135716231Y-98183185D01*
X135703763Y-98120503D01*
X135703761Y-98120498D01*
X135643423Y-97974827D01*
X135643416Y-97974814D01*
X135555815Y-97843711D01*
X135555812Y-97843707D01*
X135444318Y-97732213D01*
X135444310Y-97732207D01*
X135313207Y-97644607D01*
X135313201Y-97644604D01*
X135299202Y-97638805D01*
X135292270Y-97634173D01*
X135287230Y-97633077D01*
X135258976Y-97611926D01*
X135163231Y-97516181D01*
X135129746Y-97454858D01*
X135134730Y-97385166D01*
X135176602Y-97329233D01*
X135242066Y-97304816D01*
X135250912Y-97304500D01*
X135877126Y-97304500D01*
X135944165Y-97324185D01*
G37*
%TD.AperFunction*%
%TA.AperFunction,Conductor*%
G36*
X147708319Y-98956760D02*
G01*
X147742484Y-98961573D01*
X147742876Y-98961911D01*
X147743390Y-98961988D01*
X147769318Y-98984690D01*
X147795419Y-99007176D01*
X147795698Y-99007789D01*
X147795957Y-99008015D01*
X147796221Y-99008932D01*
X147810372Y-99039918D01*
X147827592Y-99099189D01*
X147827593Y-99099191D01*
X147909261Y-99237285D01*
X147909268Y-99237294D01*
X148022705Y-99350731D01*
X148022714Y-99350738D01*
X148160808Y-99432406D01*
X148160811Y-99432407D01*
X148186682Y-99439924D01*
X148245568Y-99477530D01*
X148274774Y-99541002D01*
X148265028Y-99610189D01*
X148219424Y-99663124D01*
X148152441Y-99682999D01*
X148152087Y-99683000D01*
X147823911Y-99683000D01*
X147756872Y-99663315D01*
X147711117Y-99610511D01*
X147701930Y-99581284D01*
X147678691Y-99454073D01*
X147678690Y-99454070D01*
X147656488Y-99387847D01*
X147656482Y-99387831D01*
X147656479Y-99387823D01*
X147656476Y-99387817D01*
X147656474Y-99387812D01*
X147591792Y-99259304D01*
X147575868Y-99242275D01*
X147570597Y-99231803D01*
X147561777Y-99224080D01*
X147555176Y-99201163D01*
X147544457Y-99179864D01*
X147545193Y-99166499D01*
X147542440Y-99156940D01*
X147546887Y-99135747D01*
X147547643Y-99122031D01*
X147550489Y-99112519D01*
X147551744Y-99110398D01*
X147572387Y-99039343D01*
X147572501Y-99038964D01*
X147591280Y-99010072D01*
X147609825Y-98981034D01*
X147610296Y-98980817D01*
X147610579Y-98980382D01*
X147641985Y-98966235D01*
X147673298Y-98951827D01*
X147673812Y-98951899D01*
X147674284Y-98951687D01*
X147708319Y-98956760D01*
G37*
%TD.AperFunction*%
%TA.AperFunction,Conductor*%
G36*
X141351469Y-99169685D02*
G01*
X141397224Y-99222489D01*
X141408430Y-99274000D01*
X141408430Y-99524631D01*
X141388745Y-99591670D01*
X141372111Y-99612312D01*
X141370742Y-99613681D01*
X141309419Y-99647166D01*
X141283061Y-99650000D01*
X140850069Y-99650000D01*
X140783030Y-99630315D01*
X140737275Y-99577511D01*
X140727331Y-99508353D01*
X140756356Y-99444797D01*
X140762388Y-99438319D01*
X141014388Y-99186319D01*
X141041315Y-99171615D01*
X141067134Y-99155023D01*
X141073334Y-99154131D01*
X141075711Y-99152834D01*
X141102069Y-99150000D01*
X141284430Y-99150000D01*
X141351469Y-99169685D01*
G37*
%TD.AperFunction*%
%TA.AperFunction,Conductor*%
G36*
X151618834Y-96614125D02*
G01*
X151674767Y-96655997D01*
X151699184Y-96721461D01*
X151699500Y-96730307D01*
X151699500Y-99169008D01*
X151679815Y-99236047D01*
X151627011Y-99281802D01*
X151557853Y-99291746D01*
X151506610Y-99272111D01*
X151435285Y-99224454D01*
X151401625Y-99201963D01*
X151380677Y-99190766D01*
X151314233Y-99155250D01*
X151314227Y-99155248D01*
X151198668Y-99107381D01*
X151103857Y-99078620D01*
X151103848Y-99078617D01*
X151103842Y-99078616D01*
X151027317Y-99063394D01*
X150981157Y-99054212D01*
X150906730Y-99046882D01*
X150882542Y-99044500D01*
X149550000Y-99044500D01*
X149546675Y-99044678D01*
X149546604Y-99043353D01*
X149483090Y-99031873D01*
X149439468Y-98995459D01*
X149412845Y-98960000D01*
X148724000Y-98960000D01*
X148715314Y-98957449D01*
X148706353Y-98958738D01*
X148682312Y-98947759D01*
X148656961Y-98940315D01*
X148651033Y-98933474D01*
X148642797Y-98929713D01*
X148628507Y-98907478D01*
X148611206Y-98887511D01*
X148608918Y-98876996D01*
X148605023Y-98870935D01*
X148600000Y-98836000D01*
X148600000Y-98612841D01*
X148619685Y-98545802D01*
X148672489Y-98500047D01*
X148699809Y-98491224D01*
X148840872Y-98463165D01*
X148841027Y-98463947D01*
X148867641Y-98460000D01*
X149309283Y-98460000D01*
X149376322Y-98479685D01*
X149378175Y-98480899D01*
X149420812Y-98509389D01*
X149420827Y-98509397D01*
X149566498Y-98569735D01*
X149566503Y-98569737D01*
X149718644Y-98600000D01*
X149721153Y-98600499D01*
X149721156Y-98600500D01*
X149721158Y-98600500D01*
X149878844Y-98600500D01*
X149878845Y-98600499D01*
X150033497Y-98569737D01*
X150179179Y-98509394D01*
X150310289Y-98421789D01*
X150421789Y-98310289D01*
X150509394Y-98179179D01*
X150569737Y-98033497D01*
X150600500Y-97878842D01*
X150600500Y-97866439D01*
X150620185Y-97799400D01*
X150636819Y-97778758D01*
X150878759Y-97536818D01*
X151121475Y-97294102D01*
X151197399Y-97162598D01*
X151236700Y-97015924D01*
X151236700Y-96884080D01*
X151256385Y-96817041D01*
X151304404Y-96773596D01*
X151321694Y-96764787D01*
X151482464Y-96647981D01*
X151487819Y-96642626D01*
X151549142Y-96609141D01*
X151618834Y-96614125D01*
G37*
%TD.AperFunction*%
%TA.AperFunction,Conductor*%
G36*
X142360530Y-97796385D02*
G01*
X142406285Y-97849189D01*
X142416229Y-97918347D01*
X142387204Y-97981903D01*
X142381172Y-97988381D01*
X141782483Y-98587069D01*
X141721160Y-98620554D01*
X141651468Y-98615570D01*
X141595535Y-98573698D01*
X141571118Y-98508234D01*
X141575026Y-98467300D01*
X141576217Y-98462855D01*
X141608309Y-98407267D01*
X142202558Y-97813019D01*
X142229485Y-97798315D01*
X142255304Y-97781723D01*
X142261504Y-97780831D01*
X142263881Y-97779534D01*
X142290239Y-97776700D01*
X142293491Y-97776700D01*
X142360530Y-97796385D01*
G37*
%TD.AperFunction*%
%TA.AperFunction,Conductor*%
G36*
X142041027Y-90907381D02*
G01*
X142074079Y-90913956D01*
X142097325Y-90921006D01*
X142128458Y-90933902D01*
X142149886Y-90945356D01*
X142230781Y-90999409D01*
X142233394Y-91001138D01*
X142234728Y-91002021D01*
X142236502Y-91003183D01*
X142240179Y-91005568D01*
X142240182Y-91005569D01*
X142315974Y-91040183D01*
X142371055Y-91065338D01*
X142438094Y-91085023D01*
X142438098Y-91085024D01*
X142580514Y-91105500D01*
X142580517Y-91105500D01*
X143128742Y-91105500D01*
X143195781Y-91125185D01*
X143241536Y-91177989D01*
X143251480Y-91247147D01*
X143234281Y-91294597D01*
X143165643Y-91405875D01*
X143165641Y-91405880D01*
X143110494Y-91572302D01*
X143110493Y-91572309D01*
X143100000Y-91675013D01*
X143100000Y-91950000D01*
X143976000Y-91950000D01*
X144043039Y-91969685D01*
X144088794Y-92022489D01*
X144100000Y-92074000D01*
X144100000Y-92200000D01*
X144226000Y-92200000D01*
X144293039Y-92219685D01*
X144338794Y-92272489D01*
X144350000Y-92324000D01*
X144350000Y-93424999D01*
X144399972Y-93424999D01*
X144399986Y-93424998D01*
X144502697Y-93414505D01*
X144669119Y-93359358D01*
X144669124Y-93359356D01*
X144818345Y-93267315D01*
X144942318Y-93143342D01*
X144944165Y-93140348D01*
X144945969Y-93138724D01*
X144946798Y-93137677D01*
X144946976Y-93137818D01*
X144996110Y-93093621D01*
X145065073Y-93082396D01*
X145129156Y-93110236D01*
X145155243Y-93140341D01*
X145157288Y-93143656D01*
X145281344Y-93267712D01*
X145430666Y-93359814D01*
X145597203Y-93414999D01*
X145699991Y-93425500D01*
X145971501Y-93425499D01*
X146038539Y-93445183D01*
X146084294Y-93497987D01*
X146095500Y-93549499D01*
X146095500Y-93877126D01*
X146075815Y-93944165D01*
X146059181Y-93964807D01*
X146052032Y-93971955D01*
X146052029Y-93971959D01*
X145963001Y-94116294D01*
X145962996Y-94116305D01*
X145909651Y-94277290D01*
X145899500Y-94376647D01*
X145899500Y-94560271D01*
X145879815Y-94627310D01*
X145863181Y-94647952D01*
X144386654Y-96124479D01*
X144386651Y-96124482D01*
X144351448Y-96159685D01*
X144274480Y-96236652D01*
X144274478Y-96236655D01*
X144196004Y-96354100D01*
X144196004Y-96354102D01*
X144186352Y-96368547D01*
X144186350Y-96368549D01*
X144182969Y-96373611D01*
X144180791Y-96372156D01*
X144139717Y-96413878D01*
X144071562Y-96429263D01*
X144005909Y-96405359D01*
X143963601Y-96349754D01*
X143957823Y-96329702D01*
X143955378Y-96317409D01*
X143955376Y-96317403D01*
X143895038Y-96171732D01*
X143895031Y-96171719D01*
X143835272Y-96082284D01*
X143814394Y-96015607D01*
X143832878Y-95948226D01*
X143884857Y-95901536D01*
X143916292Y-95892703D01*
X143916092Y-95891765D01*
X143922702Y-95890349D01*
X143922708Y-95890349D01*
X144083697Y-95837003D01*
X144228044Y-95747968D01*
X144347968Y-95628044D01*
X144437003Y-95483697D01*
X144490349Y-95322708D01*
X144500500Y-95223345D01*
X144500499Y-94376656D01*
X144498287Y-94355005D01*
X144490349Y-94277292D01*
X144490348Y-94277289D01*
X144471859Y-94221492D01*
X144437003Y-94116303D01*
X144436999Y-94116297D01*
X144436998Y-94116294D01*
X144347970Y-93971959D01*
X144347967Y-93971955D01*
X144271430Y-93895418D01*
X144270568Y-93894245D01*
X144269910Y-93893871D01*
X144266748Y-93889049D01*
X144249256Y-93865251D01*
X144246679Y-93860329D01*
X144218630Y-93792611D01*
X144188102Y-93746923D01*
X144184421Y-93741414D01*
X144184419Y-93741410D01*
X144136060Y-93669035D01*
X144136054Y-93669028D01*
X144026655Y-93559629D01*
X144026634Y-93559610D01*
X143886317Y-93419293D01*
X143852834Y-93357971D01*
X143850000Y-93331613D01*
X143850000Y-92450000D01*
X143099999Y-92450000D01*
X143094484Y-92455515D01*
X143033160Y-92488999D01*
X142963469Y-92484013D01*
X142959353Y-92482393D01*
X142833501Y-92430264D01*
X142833489Y-92430261D01*
X142678845Y-92399500D01*
X142678842Y-92399500D01*
X142521158Y-92399500D01*
X142521155Y-92399500D01*
X142366510Y-92430261D01*
X142366498Y-92430264D01*
X142220827Y-92490602D01*
X142220816Y-92490608D01*
X142129498Y-92551625D01*
X142101716Y-92560323D01*
X142074916Y-92571694D01*
X142068770Y-92570639D01*
X142062821Y-92572502D01*
X142034748Y-92564800D01*
X142006053Y-92559876D01*
X142001453Y-92555666D01*
X141995441Y-92554017D01*
X141975989Y-92532361D01*
X141954511Y-92512705D01*
X141951603Y-92505214D01*
X141948751Y-92502038D01*
X141940726Y-92480214D01*
X141939741Y-92476489D01*
X141925505Y-92404921D01*
X141915750Y-92381371D01*
X141907947Y-92362533D01*
X141892192Y-92324496D01*
X141892192Y-92324495D01*
X141868630Y-92267611D01*
X141838166Y-92222019D01*
X141786059Y-92144034D01*
X141786057Y-92144032D01*
X141786055Y-92144029D01*
X141761818Y-92119792D01*
X141728333Y-92058469D01*
X141725499Y-92032111D01*
X141725499Y-91901662D01*
X141725498Y-91901644D01*
X141715349Y-91802292D01*
X141715348Y-91802289D01*
X141673166Y-91674992D01*
X141662003Y-91641303D01*
X141661999Y-91641297D01*
X141661998Y-91641294D01*
X141572970Y-91496959D01*
X141572967Y-91496955D01*
X141453044Y-91377032D01*
X141453040Y-91377029D01*
X141382887Y-91333758D01*
X141336162Y-91281810D01*
X141324941Y-91212848D01*
X141352784Y-91148766D01*
X141410853Y-91109910D01*
X141428149Y-91105817D01*
X141572746Y-91082385D01*
X141572747Y-91082384D01*
X141572751Y-91082384D01*
X141639428Y-91061506D01*
X141639431Y-91061505D01*
X141769221Y-90999408D01*
X141850116Y-90945354D01*
X141871544Y-90933900D01*
X141902672Y-90921007D01*
X141925918Y-90913955D01*
X141958970Y-90907381D01*
X141983154Y-90905000D01*
X142016842Y-90905000D01*
X142041027Y-90907381D01*
G37*
%TD.AperFunction*%
%TA.AperFunction,Conductor*%
G36*
X140219829Y-93102048D02*
G01*
X140232323Y-93106464D01*
X140241303Y-93112003D01*
X140348366Y-93147480D01*
X140349501Y-93147881D01*
X140376857Y-93167632D01*
X140404627Y-93186859D01*
X140405116Y-93188036D01*
X140406148Y-93188781D01*
X140418479Y-93220177D01*
X140431450Y-93251375D01*
X140431225Y-93252629D01*
X140431691Y-93253815D01*
X140427254Y-93299388D01*
X140402402Y-93384926D01*
X140402401Y-93384932D01*
X140399500Y-93421798D01*
X140399500Y-94578201D01*
X140402401Y-94615067D01*
X140402402Y-94615073D01*
X140448254Y-94772893D01*
X140448255Y-94772896D01*
X140531917Y-94914362D01*
X140536702Y-94920531D01*
X140535018Y-94921836D01*
X140563246Y-94973531D01*
X140558262Y-95043223D01*
X140526234Y-95090961D01*
X140500000Y-95115202D01*
X140500000Y-95380684D01*
X140482733Y-95443804D01*
X140448254Y-95502105D01*
X140448254Y-95502106D01*
X140402402Y-95659926D01*
X140402401Y-95659932D01*
X140399500Y-95696798D01*
X140399500Y-96151000D01*
X140396949Y-96159685D01*
X140398238Y-96168647D01*
X140387259Y-96192687D01*
X140379815Y-96218039D01*
X140372974Y-96223966D01*
X140369213Y-96232203D01*
X140346978Y-96246492D01*
X140327011Y-96263794D01*
X140316496Y-96266081D01*
X140310435Y-96269977D01*
X140275500Y-96275000D01*
X140224500Y-96275000D01*
X140157461Y-96255315D01*
X140111706Y-96202511D01*
X140100500Y-96151000D01*
X140100500Y-95696813D01*
X140100499Y-95696798D01*
X140099156Y-95679735D01*
X140097598Y-95659931D01*
X140093405Y-95645500D01*
X140051745Y-95502106D01*
X140051745Y-95502105D01*
X140051744Y-95502104D01*
X140051744Y-95502102D01*
X140017267Y-95443804D01*
X140000000Y-95380684D01*
X140000000Y-95115202D01*
X139973765Y-95090961D01*
X139937887Y-95031007D01*
X139940118Y-94961173D01*
X139964533Y-94921488D01*
X139963298Y-94920531D01*
X139968075Y-94914370D01*
X139968081Y-94914365D01*
X140051744Y-94772898D01*
X140097598Y-94615069D01*
X140100500Y-94578194D01*
X140100500Y-93421806D01*
X140097598Y-93384931D01*
X140090301Y-93359814D01*
X140059430Y-93253555D01*
X140059464Y-93241323D01*
X140054993Y-93229938D01*
X140059562Y-93207037D01*
X140059629Y-93183686D01*
X140066271Y-93173414D01*
X140068665Y-93161419D01*
X140084890Y-93144624D01*
X140097571Y-93125016D01*
X140108711Y-93119966D01*
X140117211Y-93111169D01*
X140139938Y-93105812D01*
X140161209Y-93096172D01*
X140173312Y-93097947D01*
X140185217Y-93095142D01*
X140219829Y-93102048D01*
G37*
%TD.AperFunction*%
%TA.AperFunction,Conductor*%
G36*
X151630011Y-87124017D02*
G01*
X151681572Y-87171169D01*
X151699500Y-87235393D01*
X151699500Y-92139693D01*
X151679815Y-92206732D01*
X151627011Y-92252487D01*
X151557853Y-92262431D01*
X151494297Y-92233406D01*
X151487819Y-92227374D01*
X151482466Y-92222021D01*
X151482464Y-92222019D01*
X151321694Y-92105213D01*
X151276356Y-92082112D01*
X151144632Y-92014994D01*
X151144629Y-92014993D01*
X150955637Y-91953587D01*
X150857498Y-91938043D01*
X150759361Y-91922500D01*
X150560639Y-91922500D01*
X150495214Y-91932862D01*
X150364362Y-91953587D01*
X150175370Y-92014993D01*
X150175367Y-92014994D01*
X149998305Y-92105213D01*
X149837533Y-92222021D01*
X149697021Y-92362533D01*
X149580213Y-92523305D01*
X149489994Y-92700367D01*
X149489993Y-92700370D01*
X149428587Y-92889362D01*
X149397500Y-93085639D01*
X149397500Y-93284360D01*
X149428587Y-93480637D01*
X149434583Y-93499093D01*
X149436576Y-93568935D01*
X149404332Y-93625089D01*
X148845898Y-94183525D01*
X148738527Y-94290895D01*
X148738522Y-94290901D01*
X148662602Y-94422398D01*
X148662602Y-94422399D01*
X148662601Y-94422401D01*
X148662601Y-94422402D01*
X148654245Y-94453587D01*
X148623300Y-94569076D01*
X148623300Y-95509761D01*
X148614655Y-95539201D01*
X148608132Y-95569188D01*
X148604377Y-95574203D01*
X148603615Y-95576800D01*
X148586981Y-95597442D01*
X148463084Y-95721339D01*
X148401761Y-95754824D01*
X148375403Y-95757658D01*
X147790196Y-95757658D01*
X147723157Y-95737973D01*
X147677402Y-95685169D01*
X147667458Y-95616011D01*
X147684658Y-95568560D01*
X147737003Y-95483697D01*
X147790349Y-95322708D01*
X147800500Y-95223345D01*
X147800499Y-94376656D01*
X147798287Y-94355005D01*
X147790349Y-94277292D01*
X147790348Y-94277289D01*
X147771859Y-94221492D01*
X147737003Y-94116303D01*
X147736999Y-94116297D01*
X147736998Y-94116294D01*
X147647970Y-93971959D01*
X147647967Y-93971955D01*
X147640819Y-93964807D01*
X147607334Y-93903484D01*
X147604500Y-93877126D01*
X147604500Y-93130446D01*
X147604501Y-93130425D01*
X147604501Y-92975685D01*
X147577974Y-92842330D01*
X147577974Y-92842329D01*
X147576913Y-92837000D01*
X147575505Y-92829920D01*
X147575503Y-92829915D01*
X147575502Y-92829911D01*
X147546004Y-92758699D01*
X147546004Y-92758698D01*
X147524790Y-92707483D01*
X147518630Y-92692611D01*
X147472169Y-92623077D01*
X147436059Y-92569034D01*
X147436057Y-92569031D01*
X147326647Y-92459621D01*
X147326624Y-92459600D01*
X147036818Y-92169793D01*
X147003333Y-92108470D01*
X147000499Y-92082112D01*
X147000499Y-91674998D01*
X147000498Y-91674981D01*
X146989999Y-91572203D01*
X146989998Y-91572200D01*
X146934814Y-91405666D01*
X146842712Y-91256344D01*
X146718656Y-91132288D01*
X146569334Y-91040186D01*
X146569333Y-91040185D01*
X146569329Y-91040183D01*
X146564375Y-91037873D01*
X146511939Y-90991697D01*
X146492791Y-90924503D01*
X146513011Y-90857623D01*
X146553663Y-90818764D01*
X146639365Y-90768081D01*
X146755581Y-90651865D01*
X146787446Y-90597983D01*
X146838515Y-90550301D01*
X146907256Y-90537797D01*
X146959275Y-90555567D01*
X147091294Y-90636998D01*
X147091297Y-90636999D01*
X147091303Y-90637003D01*
X147252292Y-90690349D01*
X147351655Y-90700500D01*
X147948344Y-90700499D01*
X147948352Y-90700498D01*
X147948355Y-90700498D01*
X148002760Y-90694940D01*
X148047708Y-90690349D01*
X148208697Y-90637003D01*
X148353044Y-90547968D01*
X148472968Y-90428044D01*
X148562003Y-90283697D01*
X148563248Y-90279937D01*
X148564805Y-90277688D01*
X148565058Y-90277147D01*
X148565150Y-90277190D01*
X148603014Y-90222492D01*
X148667528Y-90195662D01*
X148705149Y-90197316D01*
X148721155Y-90200500D01*
X148721158Y-90200500D01*
X148878844Y-90200500D01*
X148878845Y-90200499D01*
X149033497Y-90169737D01*
X149179179Y-90109394D01*
X149310289Y-90021789D01*
X149421789Y-89910289D01*
X149509394Y-89779179D01*
X149569737Y-89633497D01*
X149598141Y-89490703D01*
X149630526Y-89428792D01*
X149665861Y-89404727D01*
X149665389Y-89403844D01*
X149670752Y-89400976D01*
X149670759Y-89400974D01*
X149801869Y-89313369D01*
X149913369Y-89201869D01*
X150000974Y-89070759D01*
X150012345Y-89043308D01*
X150050112Y-88952128D01*
X150061317Y-88925077D01*
X150092080Y-88770422D01*
X150092080Y-88612738D01*
X150092080Y-88612735D01*
X150092079Y-88612733D01*
X150086297Y-88583664D01*
X150061317Y-88458083D01*
X150048646Y-88427492D01*
X150000977Y-88312407D01*
X150000970Y-88312394D01*
X149913369Y-88181291D01*
X149913366Y-88181287D01*
X149801872Y-88069793D01*
X149801868Y-88069790D01*
X149670765Y-87982189D01*
X149670759Y-87982186D01*
X149633076Y-87966577D01*
X149578673Y-87922735D01*
X149556609Y-87856441D01*
X149556530Y-87852016D01*
X149556530Y-87492703D01*
X149565268Y-87462943D01*
X149572029Y-87432674D01*
X149575027Y-87429708D01*
X149576215Y-87425664D01*
X149599647Y-87405359D01*
X149621707Y-87383543D01*
X149625833Y-87382669D01*
X149629019Y-87379909D01*
X149659715Y-87375495D01*
X149690061Y-87369070D01*
X149695190Y-87370394D01*
X149698177Y-87369965D01*
X149724507Y-87376763D01*
X149728316Y-87378207D01*
X149811217Y-87416068D01*
X149882582Y-87437023D01*
X149882584Y-87437024D01*
X150025000Y-87457500D01*
X150025003Y-87457500D01*
X150659991Y-87457500D01*
X150660000Y-87457500D01*
X150695698Y-87453661D01*
X150699893Y-87453211D01*
X150713148Y-87452500D01*
X150735048Y-87452500D01*
X150735050Y-87452500D01*
X150833667Y-87442787D01*
X150980884Y-87413504D01*
X151075713Y-87384738D01*
X151214388Y-87327297D01*
X151301783Y-87280584D01*
X151301785Y-87280582D01*
X151301788Y-87280581D01*
X151342931Y-87253090D01*
X151426588Y-87197192D01*
X151496835Y-87139540D01*
X151561143Y-87112227D01*
X151630011Y-87124017D01*
G37*
%TD.AperFunction*%
%TA.AperFunction,Conductor*%
G36*
X146594779Y-85774185D02*
G01*
X146640534Y-85826989D01*
X146650478Y-85896147D01*
X146621453Y-85959703D01*
X146562675Y-85997477D01*
X146562335Y-85997576D01*
X146460611Y-86027129D01*
X146460606Y-86027131D01*
X146322404Y-86108863D01*
X146322394Y-86108871D01*
X146313245Y-86118020D01*
X146251921Y-86151503D01*
X146182229Y-86146516D01*
X146173512Y-86140000D01*
X145600409Y-86140000D01*
X145590680Y-86139618D01*
X145589186Y-86139500D01*
X145090830Y-86139500D01*
X145090813Y-86139501D01*
X145089692Y-86139589D01*
X145089330Y-86139618D01*
X145079607Y-86140000D01*
X144465196Y-86140000D01*
X144465196Y-86138025D01*
X144436434Y-86140031D01*
X144385091Y-86111936D01*
X144383764Y-86113648D01*
X144377595Y-86108863D01*
X144239393Y-86027131D01*
X144239388Y-86027129D01*
X144137665Y-85997576D01*
X144078779Y-85959970D01*
X144049573Y-85896498D01*
X144059319Y-85827311D01*
X144104923Y-85774376D01*
X144171906Y-85754501D01*
X144172260Y-85754500D01*
X146527740Y-85754500D01*
X146594779Y-85774185D01*
G37*
%TD.AperFunction*%
%TA.AperFunction,Conductor*%
G36*
X140905479Y-84197338D02*
G01*
X140949827Y-84225839D01*
X141046955Y-84322967D01*
X141046959Y-84322970D01*
X141191294Y-84411998D01*
X141191297Y-84411999D01*
X141191303Y-84412003D01*
X141275758Y-84439988D01*
X141305349Y-84449794D01*
X141362794Y-84489567D01*
X141389617Y-84554083D01*
X141377302Y-84622859D01*
X141329759Y-84674058D01*
X141266345Y-84691500D01*
X140457065Y-84691500D01*
X140390026Y-84671815D01*
X140344271Y-84619011D01*
X140334327Y-84549853D01*
X140363352Y-84486297D01*
X140418061Y-84449794D01*
X140533481Y-84411547D01*
X140533492Y-84411542D01*
X140677727Y-84322576D01*
X140774464Y-84225839D01*
X140835787Y-84192354D01*
X140905479Y-84197338D01*
G37*
%TD.AperFunction*%
%TA.AperFunction,Conductor*%
G36*
X144110993Y-77000185D02*
G01*
X144156748Y-77052989D01*
X144166692Y-77122147D01*
X144157820Y-77148806D01*
X144159303Y-77149359D01*
X144105908Y-77292517D01*
X144099501Y-77352116D01*
X144099500Y-77352135D01*
X144099500Y-78497870D01*
X144099501Y-78497876D01*
X144105908Y-78557483D01*
X144156202Y-78692328D01*
X144156206Y-78692335D01*
X144242451Y-78807543D01*
X144242452Y-78807544D01*
X144242454Y-78807546D01*
X144298612Y-78849586D01*
X144340482Y-78905518D01*
X144348300Y-78948851D01*
X144348300Y-81051148D01*
X144328615Y-81118187D01*
X144298612Y-81150413D01*
X144295677Y-81152611D01*
X144242456Y-81192452D01*
X144242451Y-81192457D01*
X144156206Y-81307664D01*
X144156202Y-81307671D01*
X144105908Y-81442517D01*
X144099501Y-81502116D01*
X144099501Y-81502123D01*
X144099500Y-81502135D01*
X144099500Y-82545779D01*
X144079815Y-82612818D01*
X144027011Y-82658573D01*
X143957853Y-82668517D01*
X143910403Y-82651318D01*
X143808486Y-82588454D01*
X143808481Y-82588452D01*
X143647606Y-82535144D01*
X143548322Y-82525000D01*
X143525000Y-82525000D01*
X143525000Y-83250000D01*
X144224999Y-83250000D01*
X144224999Y-83201692D01*
X144224998Y-83201687D01*
X144223255Y-83184623D01*
X144236023Y-83115929D01*
X144283902Y-83065044D01*
X144351691Y-83048121D01*
X144389946Y-83055835D01*
X144439223Y-83074213D01*
X144492517Y-83094091D01*
X144552127Y-83100500D01*
X145297872Y-83100499D01*
X145357483Y-83094091D01*
X145492331Y-83043796D01*
X145607546Y-82957546D01*
X145693796Y-82842331D01*
X145744091Y-82707483D01*
X145750500Y-82647873D01*
X145750500Y-82647844D01*
X146250000Y-82647844D01*
X146256401Y-82707372D01*
X146256403Y-82707379D01*
X146306645Y-82842086D01*
X146306649Y-82842093D01*
X146392809Y-82957187D01*
X146392812Y-82957190D01*
X146507906Y-83043350D01*
X146507913Y-83043354D01*
X146642620Y-83093596D01*
X146642627Y-83093598D01*
X146702155Y-83099999D01*
X146702172Y-83100000D01*
X146825000Y-83100000D01*
X146825000Y-82325000D01*
X146250000Y-82325000D01*
X146250000Y-82647844D01*
X145750500Y-82647844D01*
X145750499Y-81502155D01*
X146250000Y-81502155D01*
X146250000Y-81825000D01*
X146825000Y-81825000D01*
X146825000Y-81050000D01*
X146702155Y-81050000D01*
X146642627Y-81056401D01*
X146642620Y-81056403D01*
X146507913Y-81106645D01*
X146507906Y-81106649D01*
X146392812Y-81192809D01*
X146392809Y-81192812D01*
X146306649Y-81307906D01*
X146306645Y-81307913D01*
X146256403Y-81442620D01*
X146256401Y-81442627D01*
X146250000Y-81502155D01*
X145750499Y-81502155D01*
X145750499Y-81502128D01*
X145744091Y-81442517D01*
X145693884Y-81307906D01*
X145693797Y-81307671D01*
X145693793Y-81307664D01*
X145607548Y-81192457D01*
X145607546Y-81192454D01*
X145551388Y-81150413D01*
X145509518Y-81094481D01*
X145501700Y-81051148D01*
X145501700Y-78948851D01*
X145521385Y-78881812D01*
X145551386Y-78849587D01*
X145607546Y-78807546D01*
X145693796Y-78692331D01*
X145744091Y-78557483D01*
X145750500Y-78497873D01*
X145750500Y-78497844D01*
X146250000Y-78497844D01*
X146256401Y-78557372D01*
X146256403Y-78557379D01*
X146306645Y-78692086D01*
X146306649Y-78692093D01*
X146392809Y-78807187D01*
X146392812Y-78807190D01*
X146507906Y-78893350D01*
X146507913Y-78893354D01*
X146642620Y-78943596D01*
X146642627Y-78943598D01*
X146702155Y-78949999D01*
X146702172Y-78950000D01*
X146825000Y-78950000D01*
X146825000Y-78175000D01*
X146250000Y-78175000D01*
X146250000Y-78497844D01*
X145750500Y-78497844D01*
X145750499Y-77966437D01*
X145770184Y-77899399D01*
X145786813Y-77878762D01*
X146038319Y-77627256D01*
X146099642Y-77593772D01*
X146169334Y-77598756D01*
X146225267Y-77640628D01*
X146231000Y-77656000D01*
X146250000Y-77675000D01*
X146951000Y-77675000D01*
X147018039Y-77694685D01*
X147063794Y-77747489D01*
X147075000Y-77799000D01*
X147075000Y-77925000D01*
X147201000Y-77925000D01*
X147268039Y-77944685D01*
X147313794Y-77997489D01*
X147325000Y-78049000D01*
X147325000Y-78950000D01*
X147447828Y-78950000D01*
X147447844Y-78949999D01*
X147507372Y-78943598D01*
X147507380Y-78943596D01*
X147545997Y-78929193D01*
X147573249Y-78927243D01*
X147600038Y-78921837D01*
X147607597Y-78924786D01*
X147615689Y-78924208D01*
X147639667Y-78937301D01*
X147665128Y-78947236D01*
X147672683Y-78955328D01*
X147677012Y-78957692D01*
X147689706Y-78972566D01*
X147693880Y-78978321D01*
X147694236Y-78979179D01*
X147781841Y-79110289D01*
X147810116Y-79138564D01*
X147815874Y-79146502D01*
X147824432Y-79170545D01*
X147836666Y-79192950D01*
X147838509Y-79210096D01*
X147839303Y-79212326D01*
X147838923Y-79213950D01*
X147839500Y-79219310D01*
X147839500Y-81006706D01*
X147819815Y-81073745D01*
X147767011Y-81119500D01*
X147697853Y-81129444D01*
X147650462Y-81109814D01*
X147649872Y-81110897D01*
X147642086Y-81106645D01*
X147507379Y-81056403D01*
X147507372Y-81056401D01*
X147447844Y-81050000D01*
X147325000Y-81050000D01*
X147325000Y-83100000D01*
X147447828Y-83100000D01*
X147447844Y-83099999D01*
X147507372Y-83093598D01*
X147507379Y-83093596D01*
X147642086Y-83043354D01*
X147649872Y-83039103D01*
X147650637Y-83040504D01*
X147706645Y-83019610D01*
X147774919Y-83034456D01*
X147824328Y-83083858D01*
X147839500Y-83143293D01*
X147839500Y-84473112D01*
X147819815Y-84540151D01*
X147767011Y-84585906D01*
X147697853Y-84595850D01*
X147634297Y-84566825D01*
X147627819Y-84560793D01*
X147480968Y-84413942D01*
X147357392Y-84331372D01*
X147357391Y-84331371D01*
X147357389Y-84331370D01*
X147357386Y-84331368D01*
X147357381Y-84331366D01*
X147272466Y-84296194D01*
X147272464Y-84296193D01*
X147268376Y-84294500D01*
X147220080Y-84274495D01*
X147195894Y-84269684D01*
X147188288Y-84268171D01*
X147188282Y-84268169D01*
X147074314Y-84245499D01*
X147074312Y-84245499D01*
X146925688Y-84245499D01*
X146919574Y-84245499D01*
X146919554Y-84245500D01*
X144268369Y-84245500D01*
X144201330Y-84225815D01*
X144155575Y-84173011D01*
X144145631Y-84103853D01*
X144159527Y-84065514D01*
X144158493Y-84065032D01*
X144161547Y-84058481D01*
X144214855Y-83897606D01*
X144224999Y-83798322D01*
X144225000Y-83798309D01*
X144225000Y-83750000D01*
X143399000Y-83750000D01*
X143331961Y-83730315D01*
X143286206Y-83677511D01*
X143275000Y-83626000D01*
X143275000Y-83500000D01*
X143149000Y-83500000D01*
X143081961Y-83480315D01*
X143036206Y-83427511D01*
X143025000Y-83376000D01*
X143025000Y-82524999D01*
X143001693Y-82525000D01*
X143001674Y-82525001D01*
X142902391Y-82535144D01*
X142866703Y-82546970D01*
X142796875Y-82549372D01*
X142736833Y-82513640D01*
X142705641Y-82451119D01*
X142703700Y-82429264D01*
X142703700Y-81522938D01*
X142723385Y-81455899D01*
X142740014Y-81435261D01*
X142796558Y-81378718D01*
X142908786Y-81210756D01*
X142986091Y-81024127D01*
X143025500Y-80826003D01*
X143025500Y-80173997D01*
X142986091Y-79975873D01*
X142908786Y-79789244D01*
X142908784Y-79789241D01*
X142908782Y-79789237D01*
X142796558Y-79621281D01*
X142659182Y-79483905D01*
X142657858Y-79482086D01*
X142656829Y-79481487D01*
X142651949Y-79473965D01*
X142636454Y-79452668D01*
X142634200Y-79448259D01*
X142623611Y-79422694D01*
X142617072Y-79412908D01*
X142546600Y-79307438D01*
X142546598Y-79307435D01*
X142445487Y-79206324D01*
X142445456Y-79206295D01*
X141235354Y-77996193D01*
X141201869Y-77934870D01*
X141206853Y-77865178D01*
X141248725Y-77809245D01*
X141314189Y-77784828D01*
X141357630Y-77789436D01*
X141454791Y-77817664D01*
X141454794Y-77817664D01*
X141454796Y-77817665D01*
X141490819Y-77820500D01*
X141889180Y-77820499D01*
X141925204Y-77817665D01*
X142079393Y-77772869D01*
X142137369Y-77738581D01*
X142205093Y-77721398D01*
X142263612Y-77738581D01*
X142320805Y-77772404D01*
X142460000Y-77812844D01*
X142460000Y-77812843D01*
X142960000Y-77812843D01*
X143099194Y-77772404D01*
X143237285Y-77690738D01*
X143237294Y-77690731D01*
X143350731Y-77577294D01*
X143350738Y-77577285D01*
X143432406Y-77439191D01*
X143432407Y-77439188D01*
X143477166Y-77285128D01*
X143477167Y-77285122D01*
X143479931Y-77250000D01*
X142960000Y-77250000D01*
X142960000Y-77812843D01*
X142460000Y-77812843D01*
X142460000Y-77260408D01*
X142460004Y-77259404D01*
X142460039Y-77255034D01*
X142460500Y-77249181D01*
X142460499Y-77124000D01*
X142480183Y-77056962D01*
X142532986Y-77011206D01*
X142584499Y-77000000D01*
X142721093Y-77000000D01*
X142734057Y-76989673D01*
X142744920Y-76988567D01*
X142754504Y-76983334D01*
X142780862Y-76980500D01*
X144043954Y-76980500D01*
X144110993Y-77000185D01*
G37*
%TD.AperFunction*%
%TA.AperFunction,Conductor*%
G36*
X141256796Y-81695248D02*
G01*
X141292448Y-81755337D01*
X141296300Y-81786003D01*
X141296300Y-82463663D01*
X141276615Y-82530702D01*
X141223811Y-82576457D01*
X141211306Y-82581368D01*
X141191308Y-82587995D01*
X141191297Y-82587999D01*
X141046958Y-82677030D01*
X140949827Y-82774161D01*
X140888504Y-82807645D01*
X140818812Y-82802661D01*
X140774465Y-82774160D01*
X140677732Y-82677427D01*
X140677728Y-82677424D01*
X140533492Y-82588457D01*
X140533481Y-82588452D01*
X140372606Y-82535144D01*
X140273322Y-82525000D01*
X140250000Y-82525000D01*
X140250000Y-83376000D01*
X140230315Y-83443039D01*
X140177511Y-83488794D01*
X140126000Y-83500000D01*
X139874000Y-83500000D01*
X139806961Y-83480315D01*
X139761206Y-83427511D01*
X139750000Y-83376000D01*
X139750000Y-82524999D01*
X139726693Y-82525000D01*
X139726674Y-82525001D01*
X139627392Y-82535144D01*
X139466518Y-82588452D01*
X139466509Y-82588456D01*
X139393596Y-82633430D01*
X139326204Y-82651870D01*
X139259541Y-82630947D01*
X139214771Y-82577305D01*
X139204500Y-82527891D01*
X139204500Y-81874499D01*
X139224185Y-81807460D01*
X139276989Y-81761705D01*
X139328500Y-81750499D01*
X140032871Y-81750499D01*
X140032872Y-81750499D01*
X140092483Y-81744091D01*
X140227331Y-81693796D01*
X140228430Y-81692972D01*
X140229717Y-81692492D01*
X140235112Y-81689547D01*
X140235535Y-81690322D01*
X140293887Y-81668552D01*
X140350198Y-81677673D01*
X140430873Y-81711091D01*
X140596777Y-81744091D01*
X140628992Y-81750499D01*
X140628996Y-81750500D01*
X140628997Y-81750500D01*
X140831004Y-81750500D01*
X140831005Y-81750499D01*
X141029127Y-81711091D01*
X141124847Y-81671441D01*
X141194316Y-81663973D01*
X141256796Y-81695248D01*
G37*
%TD.AperFunction*%
%TA.AperFunction,Conductor*%
G36*
X151618834Y-73614125D02*
G01*
X151674767Y-73655997D01*
X151699184Y-73721461D01*
X151699500Y-73730307D01*
X151699500Y-82634606D01*
X151679815Y-82701645D01*
X151627011Y-82747400D01*
X151557853Y-82757344D01*
X151496835Y-82730459D01*
X151468839Y-82707483D01*
X151426588Y-82672808D01*
X151363939Y-82630947D01*
X151301787Y-82589418D01*
X151301788Y-82589418D01*
X151214388Y-82542703D01*
X151214381Y-82542700D01*
X151075714Y-82485262D01*
X151004510Y-82463663D01*
X150980884Y-82456496D01*
X150980879Y-82456495D01*
X150980876Y-82456494D01*
X150880041Y-82436437D01*
X150833667Y-82427213D01*
X150833665Y-82427212D01*
X150833656Y-82427211D01*
X150752491Y-82419217D01*
X150735050Y-82417500D01*
X150735048Y-82417500D01*
X150703645Y-82417500D01*
X150685999Y-82416238D01*
X150660001Y-82412500D01*
X150660000Y-82412500D01*
X150025000Y-82412500D01*
X150024998Y-82412500D01*
X149970974Y-82415396D01*
X149970967Y-82415396D01*
X149970958Y-82415397D01*
X149970952Y-82415397D01*
X149970920Y-82415400D01*
X149942907Y-82418412D01*
X149942884Y-82418415D01*
X149889491Y-82427068D01*
X149754675Y-82477352D01*
X149754673Y-82477353D01*
X149739955Y-82485390D01*
X149671682Y-82500241D01*
X149606218Y-82475823D01*
X149564348Y-82419889D01*
X149556530Y-82376557D01*
X149556530Y-78187655D01*
X149576215Y-78120616D01*
X149592852Y-78099971D01*
X149603422Y-78089401D01*
X149603424Y-78089399D01*
X149691029Y-77958289D01*
X149751372Y-77812607D01*
X149782135Y-77657952D01*
X149782135Y-77500268D01*
X149782135Y-77500265D01*
X149782134Y-77500263D01*
X149765612Y-77417204D01*
X149751372Y-77345613D01*
X149726350Y-77285204D01*
X149691032Y-77199937D01*
X149691025Y-77199924D01*
X149603424Y-77068821D01*
X149603421Y-77068817D01*
X149491927Y-76957323D01*
X149491923Y-76957320D01*
X149360820Y-76869719D01*
X149360807Y-76869712D01*
X149215136Y-76809374D01*
X149215124Y-76809371D01*
X149060480Y-76778610D01*
X149060477Y-76778610D01*
X148902793Y-76778610D01*
X148902790Y-76778610D01*
X148748145Y-76809371D01*
X148748133Y-76809374D01*
X148602462Y-76869712D01*
X148602449Y-76869719D01*
X148471346Y-76957320D01*
X148471342Y-76957323D01*
X148359848Y-77068817D01*
X148359845Y-77068821D01*
X148272244Y-77199924D01*
X148272237Y-77199937D01*
X148211899Y-77345608D01*
X148211896Y-77345620D01*
X148181135Y-77500263D01*
X148181135Y-77657956D01*
X148192109Y-77713127D01*
X148185882Y-77782719D01*
X148143018Y-77837896D01*
X148117946Y-77851879D01*
X148071454Y-77871137D01*
X148001984Y-77878606D01*
X147939505Y-77847332D01*
X147903852Y-77787243D01*
X147900000Y-77756576D01*
X147900000Y-77352172D01*
X147899999Y-77352155D01*
X147893598Y-77292627D01*
X147893596Y-77292620D01*
X147843354Y-77157913D01*
X147843352Y-77157910D01*
X147784410Y-77079174D01*
X147759992Y-77013709D01*
X147774843Y-76945436D01*
X147824248Y-76896030D01*
X147851578Y-76885088D01*
X147917598Y-76867399D01*
X148049102Y-76791475D01*
X148381475Y-76459102D01*
X148407914Y-76413307D01*
X148458479Y-76365094D01*
X148527086Y-76351870D01*
X148549894Y-76356232D01*
X148630000Y-76379504D01*
X148630000Y-76379503D01*
X149130000Y-76379503D01*
X149276195Y-76337031D01*
X149415374Y-76254721D01*
X149415383Y-76254714D01*
X149529714Y-76140383D01*
X149529721Y-76140374D01*
X149612031Y-76001195D01*
X149612033Y-76001190D01*
X149657144Y-75845918D01*
X149657145Y-75845912D01*
X149658790Y-75825000D01*
X149130000Y-75825000D01*
X149130000Y-76379503D01*
X148630000Y-76379503D01*
X148630000Y-76073352D01*
X148647267Y-76010233D01*
X148652494Y-76001395D01*
X148690433Y-75870812D01*
X148697642Y-75845997D01*
X148697643Y-75845991D01*
X148700444Y-75810396D01*
X148700500Y-75809690D01*
X148700500Y-75699000D01*
X148720185Y-75631961D01*
X148772989Y-75586206D01*
X148824500Y-75575000D01*
X148880000Y-75575000D01*
X148880000Y-75449000D01*
X148899685Y-75381961D01*
X148952489Y-75336206D01*
X149004000Y-75325000D01*
X149658790Y-75325000D01*
X149657145Y-75304089D01*
X149612032Y-75148806D01*
X149560894Y-75062338D01*
X149557624Y-75049451D01*
X149550028Y-75038544D01*
X149549199Y-75016246D01*
X149543711Y-74994614D01*
X149547869Y-74980450D01*
X149547434Y-74968722D01*
X149560892Y-74936099D01*
X149593804Y-74880447D01*
X149644871Y-74832767D01*
X149713612Y-74820263D01*
X149747986Y-74829010D01*
X149820498Y-74859045D01*
X149820503Y-74859047D01*
X149975153Y-74889809D01*
X149975156Y-74889810D01*
X149975158Y-74889810D01*
X150132844Y-74889810D01*
X150132845Y-74889809D01*
X150287497Y-74859047D01*
X150433179Y-74798704D01*
X150564289Y-74711099D01*
X150675789Y-74599599D01*
X150763394Y-74468489D01*
X150823737Y-74322807D01*
X150854500Y-74168152D01*
X150854500Y-74038337D01*
X150874185Y-73971298D01*
X150926989Y-73925543D01*
X150951082Y-73918280D01*
X150950907Y-73917548D01*
X150955632Y-73916413D01*
X150955636Y-73916413D01*
X151144632Y-73855005D01*
X151321694Y-73764787D01*
X151482464Y-73647981D01*
X151487819Y-73642626D01*
X151549142Y-73609141D01*
X151618834Y-73614125D01*
G37*
%TD.AperFunction*%
%TA.AperFunction,Conductor*%
G36*
X132981903Y-66478154D02*
G01*
X132988381Y-66484186D01*
X133034307Y-66530112D01*
X133034311Y-66530115D01*
X133034313Y-66530117D01*
X133173605Y-66612494D01*
X133205588Y-66621786D01*
X133329002Y-66657642D01*
X133329005Y-66657642D01*
X133329007Y-66657643D01*
X133365310Y-66660500D01*
X133365318Y-66660500D01*
X133747786Y-66660500D01*
X133814825Y-66680185D01*
X133860580Y-66732989D01*
X133870524Y-66802147D01*
X133841499Y-66865703D01*
X133816679Y-66887599D01*
X133803891Y-66896145D01*
X133686651Y-66974482D01*
X133686647Y-66974485D01*
X133574485Y-67086647D01*
X133574482Y-67086651D01*
X133486350Y-67218549D01*
X133486349Y-67218551D01*
X133425648Y-67365098D01*
X133425645Y-67365108D01*
X133394699Y-67520682D01*
X133394699Y-67520685D01*
X133394699Y-67679315D01*
X133394699Y-67679317D01*
X133394698Y-67679317D01*
X133425645Y-67834891D01*
X133425648Y-67834901D01*
X133486349Y-67981448D01*
X133486350Y-67981449D01*
X133486352Y-67981453D01*
X133521127Y-68033497D01*
X133528802Y-68044983D01*
X133549680Y-68111660D01*
X133549700Y-68113874D01*
X133549700Y-69620685D01*
X133549700Y-74620685D01*
X133549700Y-75337519D01*
X133549699Y-75337525D01*
X133549699Y-75496155D01*
X133554207Y-75518817D01*
X133554464Y-75529530D01*
X133554276Y-75530231D01*
X133554500Y-75532503D01*
X133554500Y-75615701D01*
X133557401Y-75652567D01*
X133557402Y-75652573D01*
X133603254Y-75810393D01*
X133603255Y-75810396D01*
X133686917Y-75951862D01*
X133686923Y-75951870D01*
X133803129Y-76068076D01*
X133803138Y-76068083D01*
X133946871Y-76153086D01*
X133971431Y-76172137D01*
X134487113Y-76687819D01*
X134520598Y-76749142D01*
X134515614Y-76818834D01*
X134473742Y-76874767D01*
X134408278Y-76899184D01*
X134399432Y-76899500D01*
X134052130Y-76899500D01*
X134052123Y-76899501D01*
X133992516Y-76905908D01*
X133857671Y-76956202D01*
X133857664Y-76956206D01*
X133780189Y-77014205D01*
X133714725Y-77038623D01*
X133646452Y-77023772D01*
X133618197Y-77002620D01*
X132813019Y-76197442D01*
X132779534Y-76136119D01*
X132776700Y-76109761D01*
X132776700Y-66571867D01*
X132796385Y-66504828D01*
X132849189Y-66459073D01*
X132918347Y-66449129D01*
X132981903Y-66478154D01*
G37*
%TD.AperFunction*%
%TA.AperFunction,Conductor*%
G36*
X143188039Y-69469685D02*
G01*
X143233794Y-69522489D01*
X143245000Y-69574000D01*
X143245000Y-69826000D01*
X143225315Y-69893039D01*
X143172511Y-69938794D01*
X143121000Y-69950000D01*
X142225000Y-69950000D01*
X142225000Y-71241219D01*
X142205315Y-71308258D01*
X142188681Y-71328900D01*
X140304993Y-73212587D01*
X140304991Y-73212591D01*
X140243817Y-73273763D01*
X140219260Y-73292811D01*
X140153140Y-73331915D01*
X140146974Y-73336699D01*
X140145174Y-73334379D01*
X140095913Y-73361230D01*
X140026225Y-73356193D01*
X139993992Y-73335461D01*
X139992722Y-73337100D01*
X139986552Y-73332314D01*
X139845196Y-73248717D01*
X139845193Y-73248716D01*
X139687494Y-73202900D01*
X139687497Y-73202900D01*
X139685000Y-73202703D01*
X139685000Y-74576000D01*
X139665315Y-74643039D01*
X139612511Y-74688794D01*
X139561000Y-74700000D01*
X139309000Y-74700000D01*
X139241961Y-74680315D01*
X139196206Y-74627511D01*
X139185000Y-74576000D01*
X139185000Y-73202703D01*
X139182503Y-73202900D01*
X139024806Y-73248716D01*
X139024803Y-73248717D01*
X138883449Y-73332313D01*
X138877283Y-73337097D01*
X138875389Y-73334655D01*
X138826580Y-73361239D01*
X138756894Y-73356179D01*
X138724227Y-73335159D01*
X138723031Y-73336702D01*
X138716862Y-73331917D01*
X138577919Y-73249747D01*
X138575398Y-73248256D01*
X138575397Y-73248255D01*
X138575396Y-73248255D01*
X138575393Y-73248254D01*
X138417573Y-73202402D01*
X138417567Y-73202401D01*
X138380701Y-73199500D01*
X138380694Y-73199500D01*
X137949306Y-73199500D01*
X137949298Y-73199500D01*
X137912432Y-73202401D01*
X137912426Y-73202402D01*
X137747110Y-73250432D01*
X137746629Y-73248777D01*
X137741400Y-73249422D01*
X137728122Y-73255968D01*
X137707426Y-73253614D01*
X137686753Y-73256166D01*
X137673412Y-73249747D01*
X137658700Y-73248075D01*
X137642560Y-73234905D01*
X137623791Y-73225875D01*
X137615105Y-73212501D01*
X137604566Y-73203901D01*
X137595429Y-73182204D01*
X137588961Y-73172244D01*
X137586674Y-73165231D01*
X137571658Y-73089739D01*
X137528410Y-72985331D01*
X137518611Y-72961673D01*
X137441600Y-72846417D01*
X137343583Y-72748400D01*
X137343582Y-72748399D01*
X136392871Y-71797689D01*
X136365992Y-71757461D01*
X136309397Y-71620827D01*
X136309390Y-71620814D01*
X136221789Y-71489711D01*
X136221786Y-71489707D01*
X136110292Y-71378213D01*
X136110286Y-71378208D01*
X136059211Y-71344080D01*
X136059060Y-71343899D01*
X136058835Y-71343828D01*
X136036625Y-71317054D01*
X136014406Y-71290467D01*
X136014376Y-71290233D01*
X136014226Y-71290052D01*
X136010020Y-71255542D01*
X136005700Y-71221142D01*
X136005801Y-71220929D01*
X136005773Y-71220695D01*
X136020892Y-71189388D01*
X136035856Y-71158115D01*
X136036091Y-71157919D01*
X136036159Y-71157779D01*
X136041337Y-71153551D01*
X136063324Y-71135245D01*
X136064091Y-71134774D01*
X136176865Y-71068081D01*
X136183057Y-71061888D01*
X136195574Y-71054220D01*
X136215676Y-71048784D01*
X136233949Y-71038798D01*
X136248723Y-71039849D01*
X136263021Y-71035983D01*
X136282870Y-71042278D01*
X136303643Y-71043756D01*
X136319336Y-71053843D01*
X136329621Y-71057105D01*
X136335572Y-71064279D01*
X136335996Y-71064551D01*
X136337278Y-71062900D01*
X136343447Y-71067685D01*
X136484801Y-71151281D01*
X136642514Y-71197100D01*
X136642511Y-71197100D01*
X136644998Y-71197295D01*
X136645000Y-71197295D01*
X136645000Y-69824000D01*
X136664685Y-69756961D01*
X136717489Y-69711206D01*
X136769000Y-69700000D01*
X137021000Y-69700000D01*
X137088039Y-69719685D01*
X137133794Y-69772489D01*
X137145000Y-69824000D01*
X137145000Y-71197295D01*
X137145001Y-71197295D01*
X137147486Y-71197100D01*
X137305198Y-71151281D01*
X137446550Y-71067686D01*
X137452717Y-71062903D01*
X137454630Y-71065369D01*
X137503222Y-71038802D01*
X137572917Y-71043749D01*
X137605762Y-71064853D01*
X137606969Y-71063298D01*
X137613132Y-71068078D01*
X137613135Y-71068081D01*
X137754602Y-71151744D01*
X137776531Y-71158115D01*
X137912426Y-71197597D01*
X137912429Y-71197597D01*
X137912431Y-71197598D01*
X137949306Y-71200500D01*
X137949314Y-71200500D01*
X138380686Y-71200500D01*
X138380694Y-71200500D01*
X138417569Y-71197598D01*
X138417571Y-71197597D01*
X138417573Y-71197597D01*
X138487472Y-71177289D01*
X138575398Y-71151744D01*
X138716865Y-71068081D01*
X138716870Y-71068075D01*
X138723031Y-71063298D01*
X138724933Y-71065750D01*
X138773579Y-71039155D01*
X138843274Y-71044104D01*
X138875695Y-71064940D01*
X138876969Y-71063298D01*
X138883132Y-71068078D01*
X138883135Y-71068081D01*
X139024602Y-71151744D01*
X139046531Y-71158115D01*
X139182426Y-71197597D01*
X139182429Y-71197597D01*
X139182431Y-71197598D01*
X139219306Y-71200500D01*
X139219314Y-71200500D01*
X139650686Y-71200500D01*
X139650694Y-71200500D01*
X139687569Y-71197598D01*
X139687571Y-71197597D01*
X139687573Y-71197597D01*
X139757472Y-71177289D01*
X139845398Y-71151744D01*
X139986865Y-71068081D01*
X139986870Y-71068075D01*
X139993031Y-71063298D01*
X139994933Y-71065750D01*
X140043579Y-71039155D01*
X140113274Y-71044104D01*
X140145695Y-71064940D01*
X140146969Y-71063298D01*
X140153132Y-71068078D01*
X140153135Y-71068081D01*
X140294602Y-71151744D01*
X140316531Y-71158115D01*
X140452426Y-71197597D01*
X140452429Y-71197597D01*
X140452431Y-71197598D01*
X140489306Y-71200500D01*
X140489314Y-71200500D01*
X140920686Y-71200500D01*
X140920694Y-71200500D01*
X140957569Y-71197598D01*
X140957571Y-71197597D01*
X140957573Y-71197597D01*
X141027472Y-71177289D01*
X141115398Y-71151744D01*
X141256865Y-71068081D01*
X141256868Y-71068077D01*
X141263026Y-71063301D01*
X141264839Y-71065638D01*
X141313949Y-71038798D01*
X141383643Y-71043756D01*
X141415996Y-71064551D01*
X141417278Y-71062900D01*
X141423447Y-71067685D01*
X141564801Y-71151281D01*
X141722514Y-71197100D01*
X141722511Y-71197100D01*
X141724998Y-71197295D01*
X141725000Y-71197295D01*
X141725000Y-69824000D01*
X141744685Y-69756961D01*
X141797489Y-69711206D01*
X141849000Y-69700000D01*
X141975000Y-69700000D01*
X141975000Y-69574000D01*
X141994685Y-69506961D01*
X142047489Y-69461206D01*
X142099000Y-69450000D01*
X143121000Y-69450000D01*
X143188039Y-69469685D01*
G37*
%TD.AperFunction*%
%TA.AperFunction,Conductor*%
G36*
X149497437Y-68314041D02*
G01*
X149502799Y-68312955D01*
X149530603Y-68323780D01*
X149559227Y-68332185D01*
X149564161Y-68336845D01*
X149567908Y-68338304D01*
X149592506Y-68363614D01*
X149697019Y-68507464D01*
X149837536Y-68647981D01*
X149998306Y-68764787D01*
X150036730Y-68784365D01*
X150115528Y-68824515D01*
X150166324Y-68872490D01*
X150183119Y-68940311D01*
X150160581Y-69006446D01*
X150115528Y-69045485D01*
X149998305Y-69105213D01*
X149837533Y-69222021D01*
X149697021Y-69362533D01*
X149697016Y-69362539D01*
X149690730Y-69371191D01*
X149635398Y-69413854D01*
X149565784Y-69419829D01*
X149555822Y-69417377D01*
X149435202Y-69382334D01*
X149399181Y-69379500D01*
X149000830Y-69379500D01*
X149000808Y-69379501D01*
X148964794Y-69382335D01*
X148810611Y-69427129D01*
X148810604Y-69427132D01*
X148753119Y-69461128D01*
X148685395Y-69478309D01*
X148626881Y-69461128D01*
X148569395Y-69427132D01*
X148569388Y-69427129D01*
X148415208Y-69382335D01*
X148415202Y-69382334D01*
X148379181Y-69379500D01*
X147980830Y-69379500D01*
X147980808Y-69379501D01*
X147944794Y-69382335D01*
X147790611Y-69427129D01*
X147790606Y-69427131D01*
X147652404Y-69508863D01*
X147652396Y-69508869D01*
X147538869Y-69622396D01*
X147538863Y-69622404D01*
X147457131Y-69760606D01*
X147457129Y-69760611D01*
X147412335Y-69914791D01*
X147412334Y-69914797D01*
X147409500Y-69950811D01*
X147409500Y-70165006D01*
X147389815Y-70232045D01*
X147373181Y-70252687D01*
X146376119Y-71249748D01*
X146314796Y-71283233D01*
X146245104Y-71278249D01*
X146189171Y-71236377D01*
X146168545Y-71183526D01*
X146166765Y-71183908D01*
X146165348Y-71177289D01*
X146146242Y-71119630D01*
X146112003Y-71016303D01*
X146111999Y-71016297D01*
X146111998Y-71016294D01*
X146022970Y-70871959D01*
X146022967Y-70871955D01*
X146013339Y-70862327D01*
X145979854Y-70801004D01*
X145984838Y-70731312D01*
X146013345Y-70686959D01*
X146022573Y-70677731D01*
X146111542Y-70533492D01*
X146111547Y-70533481D01*
X146164855Y-70372606D01*
X146174999Y-70273322D01*
X146175000Y-70273309D01*
X146175000Y-70250000D01*
X145324000Y-70250000D01*
X145256961Y-70230315D01*
X145211206Y-70177511D01*
X145200000Y-70126000D01*
X145200000Y-70000000D01*
X145074000Y-70000000D01*
X145006961Y-69980315D01*
X144961206Y-69927511D01*
X144950000Y-69876000D01*
X144950000Y-69750000D01*
X145450000Y-69750000D01*
X146174999Y-69750000D01*
X146174999Y-69726692D01*
X146174998Y-69726677D01*
X146164855Y-69627392D01*
X146111547Y-69466518D01*
X146111542Y-69466507D01*
X146022575Y-69322271D01*
X146022572Y-69322267D01*
X145902732Y-69202427D01*
X145902728Y-69202424D01*
X145758492Y-69113457D01*
X145758481Y-69113452D01*
X145597606Y-69060144D01*
X145498322Y-69050000D01*
X145450000Y-69050000D01*
X145450000Y-69750000D01*
X144950000Y-69750000D01*
X144950000Y-69050000D01*
X144949999Y-69049999D01*
X144901693Y-69050000D01*
X144901675Y-69050001D01*
X144802392Y-69060144D01*
X144641518Y-69113452D01*
X144641507Y-69113457D01*
X144497271Y-69202424D01*
X144497267Y-69202427D01*
X144377427Y-69322267D01*
X144377424Y-69322271D01*
X144288457Y-69466507D01*
X144288449Y-69466524D01*
X144286705Y-69471790D01*
X144246932Y-69529235D01*
X144182416Y-69556057D01*
X144113640Y-69543741D01*
X144062441Y-69496198D01*
X144045000Y-69432785D01*
X144045000Y-68784365D01*
X144044999Y-68784350D01*
X144042100Y-68747510D01*
X144042099Y-68747504D01*
X143996283Y-68589806D01*
X143996282Y-68589803D01*
X143942949Y-68499621D01*
X143925766Y-68431897D01*
X143947926Y-68365635D01*
X144002392Y-68321871D01*
X144049681Y-68312500D01*
X149492188Y-68312500D01*
X149497437Y-68314041D01*
G37*
%TD.AperFunction*%
%TA.AperFunction,Conductor*%
G36*
X138035099Y-67020184D02*
G01*
X138080854Y-67072988D01*
X138090798Y-67142146D01*
X138061773Y-67205702D01*
X138055741Y-67212180D01*
X137978213Y-67289707D01*
X137978210Y-67289711D01*
X137890609Y-67420814D01*
X137890602Y-67420827D01*
X137830264Y-67566498D01*
X137830261Y-67566510D01*
X137799500Y-67721153D01*
X137799500Y-67878846D01*
X137830261Y-68033489D01*
X137830263Y-68033497D01*
X137839229Y-68055144D01*
X137848557Y-68077664D01*
X137856024Y-68147134D01*
X137824749Y-68209612D01*
X137794780Y-68233194D01*
X137782315Y-68240204D01*
X137754602Y-68248256D01*
X137613135Y-68331919D01*
X137605285Y-68339768D01*
X137590431Y-68348123D01*
X137572275Y-68352311D01*
X137555913Y-68361230D01*
X137538935Y-68360002D01*
X137522350Y-68363829D01*
X137504810Y-68357536D01*
X137486225Y-68356193D01*
X137467503Y-68344151D01*
X137456585Y-68340234D01*
X137453452Y-68336157D01*
X137452722Y-68337100D01*
X137446552Y-68332314D01*
X137301296Y-68246410D01*
X137253612Y-68195341D01*
X137241109Y-68126599D01*
X137267755Y-68062010D01*
X137276727Y-68052005D01*
X137351135Y-67977598D01*
X137432869Y-67839393D01*
X137477665Y-67685204D01*
X137480500Y-67649181D01*
X137480499Y-67150820D01*
X137479193Y-67134225D01*
X137493557Y-67065850D01*
X137542609Y-67016094D01*
X137602811Y-67000499D01*
X137968060Y-67000499D01*
X138035099Y-67020184D01*
G37*
%TD.AperFunction*%
%TA.AperFunction,Conductor*%
G36*
X147805701Y-63321725D02*
G01*
X147812180Y-63327757D01*
X148186981Y-63702558D01*
X148220466Y-63763881D01*
X148223300Y-63790239D01*
X148223300Y-65793259D01*
X148203615Y-65860298D01*
X148186981Y-65880940D01*
X148178213Y-65889707D01*
X148178210Y-65889711D01*
X148090609Y-66020814D01*
X148090602Y-66020827D01*
X148030264Y-66166498D01*
X148030261Y-66166510D01*
X147999500Y-66321153D01*
X147999500Y-66478846D01*
X148030261Y-66633489D01*
X148030264Y-66633501D01*
X148090602Y-66779172D01*
X148090609Y-66779185D01*
X148147688Y-66864609D01*
X148168566Y-66931287D01*
X148150081Y-66998667D01*
X148098103Y-67045357D01*
X148044586Y-67057500D01*
X142852500Y-67057500D01*
X142785461Y-67037815D01*
X142739706Y-66985011D01*
X142728500Y-66933500D01*
X142728500Y-64311510D01*
X142748185Y-64244471D01*
X142800989Y-64198716D01*
X142870147Y-64188772D01*
X142884906Y-64192540D01*
X142884962Y-64192306D01*
X142892511Y-64194089D01*
X142892517Y-64194091D01*
X142952127Y-64200500D01*
X143447872Y-64200499D01*
X143507483Y-64194091D01*
X143556665Y-64175746D01*
X143626355Y-64170761D01*
X143643333Y-64175747D01*
X143692508Y-64194088D01*
X143692511Y-64194089D01*
X143692517Y-64194091D01*
X143752127Y-64200500D01*
X144099300Y-64200499D01*
X144166339Y-64220183D01*
X144212094Y-64272987D01*
X144223300Y-64324499D01*
X144223300Y-65789296D01*
X144220917Y-65813488D01*
X144199500Y-65921155D01*
X144199500Y-66078846D01*
X144230261Y-66233489D01*
X144230264Y-66233501D01*
X144290602Y-66379172D01*
X144290609Y-66379185D01*
X144378210Y-66510288D01*
X144378213Y-66510292D01*
X144489707Y-66621786D01*
X144489711Y-66621789D01*
X144620814Y-66709390D01*
X144620827Y-66709397D01*
X144766498Y-66769735D01*
X144766503Y-66769737D01*
X144921153Y-66800499D01*
X144921156Y-66800500D01*
X144921158Y-66800500D01*
X145078844Y-66800500D01*
X145078845Y-66800499D01*
X145233497Y-66769737D01*
X145346166Y-66723067D01*
X145379172Y-66709397D01*
X145379172Y-66709396D01*
X145379179Y-66709394D01*
X145510289Y-66621789D01*
X145621789Y-66510289D01*
X145709394Y-66379179D01*
X145769737Y-66233497D01*
X145800500Y-66078842D01*
X145800500Y-65921158D01*
X145800500Y-65921155D01*
X145800499Y-65921153D01*
X145792020Y-65878525D01*
X145769737Y-65766503D01*
X145769735Y-65766498D01*
X145709397Y-65620827D01*
X145709390Y-65620814D01*
X145621789Y-65489711D01*
X145621786Y-65489707D01*
X145510292Y-65378213D01*
X145431808Y-65325771D01*
X145387004Y-65272158D01*
X145376700Y-65222669D01*
X145376700Y-64324499D01*
X145396385Y-64257460D01*
X145449189Y-64211705D01*
X145500700Y-64200499D01*
X145847871Y-64200499D01*
X145847872Y-64200499D01*
X145907483Y-64194091D01*
X146042331Y-64143796D01*
X146042333Y-64143794D01*
X146050640Y-64140696D01*
X146051285Y-64142426D01*
X146108837Y-64129902D01*
X146148988Y-64141691D01*
X146149360Y-64140696D01*
X146157666Y-64143794D01*
X146157669Y-64143796D01*
X146292517Y-64194091D01*
X146352127Y-64200500D01*
X147147872Y-64200499D01*
X147207483Y-64194091D01*
X147342331Y-64143796D01*
X147457546Y-64057546D01*
X147543796Y-63942331D01*
X147594091Y-63807483D01*
X147600500Y-63747873D01*
X147600499Y-63415436D01*
X147620183Y-63348399D01*
X147672987Y-63302644D01*
X147742146Y-63292700D01*
X147805701Y-63321725D01*
G37*
%TD.AperFunction*%
%TA.AperFunction,Conductor*%
G36*
X138922540Y-65899685D02*
G01*
X138968295Y-65952489D01*
X138979501Y-66004000D01*
X138979501Y-66089192D01*
X138982334Y-66125200D01*
X138982334Y-66125203D01*
X138982335Y-66125204D01*
X138995072Y-66169044D01*
X139027131Y-66279394D01*
X139032731Y-66288862D01*
X139037081Y-66304762D01*
X139044977Y-66317049D01*
X139050000Y-66351984D01*
X139050000Y-66448014D01*
X139032732Y-66511135D01*
X139027132Y-66520603D01*
X139027130Y-66520608D01*
X138982335Y-66674791D01*
X138982334Y-66674797D01*
X138979500Y-66710811D01*
X138979500Y-66908210D01*
X138959815Y-66975249D01*
X138907011Y-67021004D01*
X138837853Y-67030948D01*
X138831309Y-67029827D01*
X138678845Y-66999500D01*
X138678842Y-66999500D01*
X138521158Y-66999500D01*
X138462703Y-67011127D01*
X138440485Y-67009138D01*
X138418346Y-67011858D01*
X138406361Y-67006083D01*
X138393112Y-67004898D01*
X138375496Y-66991213D01*
X138355401Y-66981532D01*
X138348441Y-66970196D01*
X138337935Y-66962035D01*
X138330513Y-66940998D01*
X138318843Y-66921990D01*
X138319116Y-66908689D01*
X138314691Y-66896145D01*
X138319820Y-66874437D01*
X138320279Y-66852135D01*
X138329192Y-66834776D01*
X138330759Y-66828148D01*
X138335598Y-66820339D01*
X138337345Y-66817739D01*
X138393796Y-66742331D01*
X138400987Y-66723048D01*
X138409143Y-66710915D01*
X138425217Y-66697555D01*
X138437742Y-66680822D01*
X138451546Y-66675672D01*
X138462877Y-66666255D01*
X138483620Y-66663706D01*
X138503204Y-66656401D01*
X138522703Y-66657473D01*
X138522768Y-66656648D01*
X138550000Y-66658789D01*
X138550000Y-66004000D01*
X138552550Y-65995314D01*
X138551262Y-65986353D01*
X138562240Y-65962312D01*
X138569685Y-65936961D01*
X138576525Y-65931033D01*
X138580287Y-65922797D01*
X138602521Y-65908507D01*
X138622489Y-65891206D01*
X138633003Y-65888918D01*
X138639065Y-65885023D01*
X138674000Y-65880000D01*
X138855501Y-65880000D01*
X138922540Y-65899685D01*
G37*
%TD.AperFunction*%
%TA.AperFunction,Conductor*%
G36*
X140962539Y-64819685D02*
G01*
X141008294Y-64872489D01*
X141019500Y-64924000D01*
X141019500Y-65841718D01*
X141010855Y-65871158D01*
X141004332Y-65901145D01*
X141000577Y-65906160D01*
X140999815Y-65908757D01*
X140983181Y-65929400D01*
X140832180Y-66080400D01*
X140770857Y-66113884D01*
X140701165Y-66108900D01*
X140645232Y-66067028D01*
X140620815Y-66001564D01*
X140620499Y-65992739D01*
X140620499Y-65704461D01*
X140640184Y-65637423D01*
X140660000Y-65616108D01*
X140660000Y-65060408D01*
X140660001Y-65059954D01*
X140660018Y-65055305D01*
X140660500Y-65049181D01*
X140660500Y-64923546D01*
X140670417Y-64890218D01*
X140680183Y-64856961D01*
X140680361Y-64856806D01*
X140680429Y-64856579D01*
X140706834Y-64833867D01*
X140732987Y-64811206D01*
X140733247Y-64811149D01*
X140733400Y-64811018D01*
X140734666Y-64810840D01*
X140784499Y-64800000D01*
X140895500Y-64800000D01*
X140962539Y-64819685D01*
G37*
%TD.AperFunction*%
%TA.AperFunction,Conductor*%
G36*
X149377436Y-59034463D02*
G01*
X149401992Y-59037281D01*
X149410374Y-59044135D01*
X149420761Y-59047185D01*
X149436943Y-59065860D01*
X149456081Y-59081509D01*
X149463396Y-59096389D01*
X149466516Y-59099989D01*
X149471653Y-59113182D01*
X149489993Y-59169629D01*
X149489994Y-59169632D01*
X149577220Y-59340820D01*
X149580213Y-59346694D01*
X149697019Y-59507464D01*
X149837536Y-59647981D01*
X149998306Y-59764787D01*
X150067965Y-59800280D01*
X150175367Y-59855005D01*
X150175370Y-59855006D01*
X150266874Y-59884737D01*
X150364364Y-59916413D01*
X150560639Y-59947500D01*
X150560640Y-59947500D01*
X150759360Y-59947500D01*
X150759361Y-59947500D01*
X150955636Y-59916413D01*
X151144632Y-59855005D01*
X151321694Y-59764787D01*
X151482464Y-59647981D01*
X151487819Y-59642626D01*
X151549142Y-59609141D01*
X151618834Y-59614125D01*
X151674767Y-59655997D01*
X151699184Y-59721461D01*
X151699500Y-59730307D01*
X151699500Y-64139693D01*
X151679815Y-64206732D01*
X151627011Y-64252487D01*
X151557853Y-64262431D01*
X151494297Y-64233406D01*
X151487819Y-64227374D01*
X151482466Y-64222021D01*
X151482464Y-64222019D01*
X151321694Y-64105213D01*
X151312688Y-64100624D01*
X151144632Y-64014994D01*
X151144629Y-64014993D01*
X150955637Y-63953587D01*
X150857498Y-63938043D01*
X150759361Y-63922500D01*
X150560639Y-63922500D01*
X150495214Y-63932862D01*
X150364362Y-63953587D01*
X150339018Y-63961822D01*
X150269177Y-63963817D01*
X150209344Y-63927736D01*
X150178516Y-63865035D01*
X150176700Y-63843891D01*
X150176700Y-62970078D01*
X150176700Y-62970076D01*
X150137399Y-62823402D01*
X150122988Y-62798442D01*
X150061477Y-62691901D01*
X150061472Y-62691895D01*
X147708104Y-60338527D01*
X147708102Y-60338525D01*
X147662498Y-60312195D01*
X147614283Y-60261629D01*
X147600499Y-60204812D01*
X147600499Y-59752128D01*
X147594091Y-59692517D01*
X147575747Y-59643334D01*
X147570762Y-59573643D01*
X147575747Y-59556665D01*
X147594089Y-59507488D01*
X147594088Y-59507488D01*
X147594091Y-59507483D01*
X147600500Y-59447873D01*
X147600499Y-59151498D01*
X147620183Y-59084461D01*
X147672987Y-59038706D01*
X147724499Y-59027500D01*
X149353722Y-59027500D01*
X149377436Y-59034463D01*
G37*
%TD.AperFunction*%
%TA.AperFunction,Conductor*%
G36*
X131410000Y-63446999D02*
G01*
X131499300Y-63446999D01*
X131566339Y-63466684D01*
X131612094Y-63519488D01*
X131623300Y-63570999D01*
X131623300Y-64080978D01*
X131603615Y-64148017D01*
X131550811Y-64193772D01*
X131481653Y-64203716D01*
X131426415Y-64181296D01*
X131321697Y-64105215D01*
X131321696Y-64105214D01*
X131321694Y-64105213D01*
X131228139Y-64057544D01*
X131144632Y-64014994D01*
X131144629Y-64014993D01*
X130955637Y-63953587D01*
X130857498Y-63938043D01*
X130759361Y-63922500D01*
X130560639Y-63922500D01*
X130495214Y-63932862D01*
X130364362Y-63953587D01*
X130175370Y-64014993D01*
X130175367Y-64014994D01*
X129998302Y-64105215D01*
X129897385Y-64178535D01*
X129831578Y-64202015D01*
X129763525Y-64186189D01*
X129714830Y-64136083D01*
X129700500Y-64078217D01*
X129700500Y-62892155D01*
X129720185Y-62825116D01*
X129772989Y-62779361D01*
X129842147Y-62769417D01*
X129905703Y-62798442D01*
X129943477Y-62857220D01*
X129944835Y-62862230D01*
X129947165Y-62871601D01*
X130032307Y-63043275D01*
X130152365Y-63192633D01*
X130152366Y-63192634D01*
X130301725Y-63312692D01*
X130301724Y-63312692D01*
X130473397Y-63397834D01*
X130659361Y-63444081D01*
X130659357Y-63444081D01*
X130702395Y-63446999D01*
X130909999Y-63446999D01*
X130910000Y-63446998D01*
X130910000Y-62473816D01*
X130926060Y-62489876D01*
X131012939Y-62540036D01*
X131109840Y-62566000D01*
X131210160Y-62566000D01*
X131307061Y-62540036D01*
X131393940Y-62489876D01*
X131410000Y-62473816D01*
X131410000Y-63446999D01*
G37*
%TD.AperFunction*%
%TA.AperFunction,Conductor*%
G36*
X133894792Y-61697535D02*
G01*
X133918833Y-61699255D01*
X133928006Y-61706122D01*
X133939103Y-61708991D01*
X133955474Y-61726684D01*
X133974767Y-61741127D01*
X133978771Y-61751862D01*
X133986555Y-61760275D01*
X133997597Y-61793797D01*
X133999500Y-61804539D01*
X133999501Y-61847872D01*
X134005909Y-61907483D01*
X134028463Y-61967953D01*
X134030434Y-61979074D01*
X134024520Y-62044046D01*
X134006402Y-62092623D01*
X134006401Y-62092627D01*
X134000000Y-62152155D01*
X134000000Y-62200000D01*
X134157893Y-62200000D01*
X134166578Y-62202550D01*
X134175540Y-62201262D01*
X134208048Y-62214727D01*
X134224932Y-62219685D01*
X134227683Y-62222860D01*
X134232204Y-62224733D01*
X134257668Y-62243795D01*
X134257671Y-62243797D01*
X134364972Y-62283818D01*
X134420906Y-62325689D01*
X134445323Y-62391154D01*
X134430471Y-62459427D01*
X134381066Y-62508832D01*
X134364972Y-62516182D01*
X134257671Y-62556202D01*
X134257668Y-62556204D01*
X134232204Y-62575267D01*
X134219581Y-62579974D01*
X134209404Y-62588794D01*
X134187487Y-62591945D01*
X134166739Y-62599684D01*
X134157893Y-62600000D01*
X134000000Y-62600000D01*
X134000000Y-62647844D01*
X134006401Y-62707372D01*
X134006403Y-62707383D01*
X134024519Y-62755953D01*
X134029503Y-62825644D01*
X134024520Y-62842616D01*
X134017205Y-62862230D01*
X134005909Y-62892517D01*
X133999500Y-62952127D01*
X133999500Y-63153964D01*
X133999501Y-63275500D01*
X133996950Y-63284186D01*
X133998239Y-63293147D01*
X133987261Y-63317183D01*
X133979817Y-63342539D01*
X133972974Y-63348467D01*
X133969214Y-63356703D01*
X133946982Y-63370989D01*
X133927013Y-63388294D01*
X133916497Y-63390581D01*
X133910436Y-63394477D01*
X133875501Y-63399500D01*
X133779766Y-63399500D01*
X133712727Y-63379815D01*
X133710875Y-63378602D01*
X133579185Y-63290609D01*
X133579172Y-63290602D01*
X133433501Y-63230264D01*
X133433489Y-63230261D01*
X133278845Y-63199500D01*
X133278842Y-63199500D01*
X133121158Y-63199500D01*
X133121155Y-63199500D01*
X132966510Y-63230261D01*
X132966503Y-63230263D01*
X132948149Y-63237865D01*
X132878679Y-63245331D01*
X132816201Y-63214054D01*
X132780551Y-63153964D01*
X132776700Y-63123302D01*
X132776700Y-62790238D01*
X132796385Y-62723199D01*
X132813014Y-62702561D01*
X133787821Y-61727754D01*
X133797876Y-61722264D01*
X133805095Y-61713363D01*
X133827988Y-61705821D01*
X133849142Y-61694271D01*
X133860572Y-61695088D01*
X133871457Y-61691503D01*
X133894792Y-61697535D01*
G37*
%TD.AperFunction*%
%TA.AperFunction,Conductor*%
G36*
X145743039Y-53519685D02*
G01*
X145788794Y-53572489D01*
X145800000Y-53624000D01*
X145800000Y-54140826D01*
X145799572Y-54148797D01*
X145799678Y-54148803D01*
X145799500Y-54152128D01*
X145799500Y-54647870D01*
X145799501Y-54647876D01*
X145805908Y-54707482D01*
X145819004Y-54742593D01*
X145824252Y-54756665D01*
X145824253Y-54756666D01*
X145829237Y-54826358D01*
X145824253Y-54843331D01*
X145805910Y-54892511D01*
X145805910Y-54892514D01*
X145805909Y-54892517D01*
X145799500Y-54952127D01*
X145799500Y-54952134D01*
X145799500Y-54952135D01*
X145799500Y-55447870D01*
X145799501Y-55447876D01*
X145805908Y-55507482D01*
X145811810Y-55523305D01*
X145824252Y-55556665D01*
X145824253Y-55556666D01*
X145829237Y-55626358D01*
X145824253Y-55643331D01*
X145805910Y-55692511D01*
X145805910Y-55692514D01*
X145805909Y-55692517D01*
X145799500Y-55752127D01*
X145799500Y-55752134D01*
X145799500Y-55752135D01*
X145799500Y-56247870D01*
X145799501Y-56247876D01*
X145805908Y-56307482D01*
X145819004Y-56342593D01*
X145824252Y-56356665D01*
X145824253Y-56356666D01*
X145829237Y-56426358D01*
X145824253Y-56443331D01*
X145805910Y-56492511D01*
X145805910Y-56492514D01*
X145805909Y-56492517D01*
X145799500Y-56552127D01*
X145799500Y-56552134D01*
X145799500Y-56552135D01*
X145799500Y-57047870D01*
X145799501Y-57047876D01*
X145805908Y-57107482D01*
X145806527Y-57109141D01*
X145824252Y-57156665D01*
X145824253Y-57156666D01*
X145829237Y-57226358D01*
X145824253Y-57243331D01*
X145805910Y-57292511D01*
X145805910Y-57292514D01*
X145805909Y-57292517D01*
X145799500Y-57352127D01*
X145799500Y-57352134D01*
X145799500Y-57352135D01*
X145799500Y-57847870D01*
X145799501Y-57847876D01*
X145805908Y-57907482D01*
X145819004Y-57942593D01*
X145824252Y-57956665D01*
X145824253Y-57956666D01*
X145829237Y-58026358D01*
X145824253Y-58043331D01*
X145805910Y-58092511D01*
X145805910Y-58092514D01*
X145805909Y-58092517D01*
X145799500Y-58152127D01*
X145799500Y-58152134D01*
X145799500Y-58152135D01*
X145799500Y-58647870D01*
X145799501Y-58647876D01*
X145805908Y-58707482D01*
X145819004Y-58742593D01*
X145824252Y-58756665D01*
X145824253Y-58756666D01*
X145829237Y-58826358D01*
X145824253Y-58843331D01*
X145805910Y-58892511D01*
X145805910Y-58892514D01*
X145805909Y-58892517D01*
X145799500Y-58952127D01*
X145799500Y-58952134D01*
X145799500Y-58952135D01*
X145799500Y-59447870D01*
X145799501Y-59447876D01*
X145805908Y-59507482D01*
X145819004Y-59542593D01*
X145824252Y-59556665D01*
X145824253Y-59556666D01*
X145829237Y-59626358D01*
X145824253Y-59643331D01*
X145805910Y-59692511D01*
X145805910Y-59692514D01*
X145805909Y-59692517D01*
X145799500Y-59752127D01*
X145799500Y-59752134D01*
X145799500Y-59752135D01*
X145799500Y-60247870D01*
X145799501Y-60247876D01*
X145805908Y-60307482D01*
X145814307Y-60330000D01*
X145824252Y-60356665D01*
X145824253Y-60356666D01*
X145829237Y-60426358D01*
X145824253Y-60443331D01*
X145805910Y-60492511D01*
X145805910Y-60492514D01*
X145805909Y-60492517D01*
X145799500Y-60552127D01*
X145799500Y-60552134D01*
X145799500Y-60552135D01*
X145799500Y-61047870D01*
X145799501Y-61047876D01*
X145805908Y-61107482D01*
X145819004Y-61142593D01*
X145824252Y-61156665D01*
X145824253Y-61156666D01*
X145829237Y-61226358D01*
X145824253Y-61243331D01*
X145805910Y-61292511D01*
X145805910Y-61292514D01*
X145805909Y-61292517D01*
X145799500Y-61352127D01*
X145799500Y-61352134D01*
X145799500Y-61352135D01*
X145799500Y-61847870D01*
X145799501Y-61847876D01*
X145805908Y-61907482D01*
X145824253Y-61956666D01*
X145829237Y-62026358D01*
X145824253Y-62043331D01*
X145805909Y-62092514D01*
X145805908Y-62092516D01*
X145799501Y-62152116D01*
X145799500Y-62152135D01*
X145799500Y-62275500D01*
X145779815Y-62342539D01*
X145727011Y-62388294D01*
X145675500Y-62399500D01*
X145352130Y-62399500D01*
X145352123Y-62399501D01*
X145292516Y-62405908D01*
X145243332Y-62424253D01*
X145173640Y-62429237D01*
X145156667Y-62424253D01*
X145107486Y-62405910D01*
X145107485Y-62405909D01*
X145107483Y-62405909D01*
X145047873Y-62399500D01*
X145047863Y-62399500D01*
X144552129Y-62399500D01*
X144552123Y-62399501D01*
X144492516Y-62405908D01*
X144443332Y-62424253D01*
X144373640Y-62429237D01*
X144356667Y-62424253D01*
X144307486Y-62405910D01*
X144307485Y-62405909D01*
X144307483Y-62405909D01*
X144247873Y-62399500D01*
X144247863Y-62399500D01*
X143752129Y-62399500D01*
X143752123Y-62399501D01*
X143692516Y-62405908D01*
X143643332Y-62424253D01*
X143573640Y-62429237D01*
X143556667Y-62424253D01*
X143507486Y-62405910D01*
X143507485Y-62405909D01*
X143507483Y-62405909D01*
X143447873Y-62399500D01*
X143447863Y-62399500D01*
X142952129Y-62399500D01*
X142952123Y-62399501D01*
X142892516Y-62405908D01*
X142843332Y-62424253D01*
X142773640Y-62429237D01*
X142756667Y-62424253D01*
X142707486Y-62405910D01*
X142707485Y-62405909D01*
X142707483Y-62405909D01*
X142647873Y-62399500D01*
X142647863Y-62399500D01*
X142152129Y-62399500D01*
X142152123Y-62399501D01*
X142092516Y-62405908D01*
X142043332Y-62424253D01*
X141973640Y-62429237D01*
X141956667Y-62424253D01*
X141907486Y-62405910D01*
X141907485Y-62405909D01*
X141907483Y-62405909D01*
X141847873Y-62399500D01*
X141847863Y-62399500D01*
X141352129Y-62399500D01*
X141352123Y-62399501D01*
X141292516Y-62405908D01*
X141243332Y-62424253D01*
X141173640Y-62429237D01*
X141156667Y-62424253D01*
X141107486Y-62405910D01*
X141107485Y-62405909D01*
X141107483Y-62405909D01*
X141047873Y-62399500D01*
X141047863Y-62399500D01*
X140552129Y-62399500D01*
X140552123Y-62399501D01*
X140492516Y-62405908D01*
X140443332Y-62424253D01*
X140373640Y-62429237D01*
X140356667Y-62424253D01*
X140307486Y-62405910D01*
X140307485Y-62405909D01*
X140307483Y-62405909D01*
X140247873Y-62399500D01*
X140247863Y-62399500D01*
X139752129Y-62399500D01*
X139752123Y-62399501D01*
X139692516Y-62405908D01*
X139643332Y-62424253D01*
X139573640Y-62429237D01*
X139556667Y-62424253D01*
X139507486Y-62405910D01*
X139507485Y-62405909D01*
X139507483Y-62405909D01*
X139447873Y-62399500D01*
X139447863Y-62399500D01*
X138952129Y-62399500D01*
X138952123Y-62399501D01*
X138892516Y-62405908D01*
X138843332Y-62424253D01*
X138773640Y-62429237D01*
X138756667Y-62424253D01*
X138707486Y-62405910D01*
X138707485Y-62405909D01*
X138707483Y-62405909D01*
X138647873Y-62399500D01*
X138647863Y-62399500D01*
X138152129Y-62399500D01*
X138152123Y-62399501D01*
X138092517Y-62405908D01*
X138042616Y-62424520D01*
X137972925Y-62429503D01*
X137955953Y-62424519D01*
X137907383Y-62406403D01*
X137907372Y-62406401D01*
X137847844Y-62400000D01*
X137800000Y-62400000D01*
X137800000Y-62557893D01*
X137797449Y-62566578D01*
X137798738Y-62575540D01*
X137785272Y-62608048D01*
X137780315Y-62624932D01*
X137777139Y-62627683D01*
X137775267Y-62632204D01*
X137756204Y-62657668D01*
X137756202Y-62657671D01*
X137716182Y-62764972D01*
X137674311Y-62820906D01*
X137608846Y-62845323D01*
X137540573Y-62830471D01*
X137491168Y-62781066D01*
X137483818Y-62764972D01*
X137443797Y-62657671D01*
X137443795Y-62657668D01*
X137424733Y-62632204D01*
X137420025Y-62619581D01*
X137411206Y-62609404D01*
X137408054Y-62587487D01*
X137400316Y-62566739D01*
X137400000Y-62557893D01*
X137400000Y-62400000D01*
X137352155Y-62400000D01*
X137292627Y-62406401D01*
X137292623Y-62406402D01*
X137244046Y-62424520D01*
X137174354Y-62429503D01*
X137157382Y-62424519D01*
X137107488Y-62405910D01*
X137107484Y-62405909D01*
X137107483Y-62405909D01*
X137047873Y-62399500D01*
X137047863Y-62399500D01*
X136552129Y-62399500D01*
X136552123Y-62399501D01*
X136492516Y-62405908D01*
X136443332Y-62424253D01*
X136373640Y-62429237D01*
X136356667Y-62424253D01*
X136307482Y-62405908D01*
X136307483Y-62405908D01*
X136247883Y-62399501D01*
X136247881Y-62399500D01*
X136247873Y-62399500D01*
X136247865Y-62399500D01*
X135924000Y-62399500D01*
X135856961Y-62379815D01*
X135811206Y-62327011D01*
X135800000Y-62275500D01*
X135800000Y-62152172D01*
X135799999Y-62152155D01*
X135793598Y-62092627D01*
X135775479Y-62044048D01*
X135770495Y-61974356D01*
X135775476Y-61957391D01*
X135794091Y-61907483D01*
X135800500Y-61847873D01*
X135800499Y-61352128D01*
X135794091Y-61292517D01*
X135775747Y-61243334D01*
X135770762Y-61173643D01*
X135775747Y-61156665D01*
X135794089Y-61107488D01*
X135794088Y-61107488D01*
X135794091Y-61107483D01*
X135800500Y-61047873D01*
X135800499Y-60552128D01*
X135794091Y-60492517D01*
X135775747Y-60443334D01*
X135770762Y-60373643D01*
X135775747Y-60356665D01*
X135782514Y-60338523D01*
X135794091Y-60307483D01*
X135800500Y-60247873D01*
X135800499Y-59752128D01*
X135794091Y-59692517D01*
X135775747Y-59643334D01*
X135770762Y-59573643D01*
X135775747Y-59556665D01*
X135794089Y-59507488D01*
X135794088Y-59507488D01*
X135794091Y-59507483D01*
X135800500Y-59447873D01*
X135800499Y-58952128D01*
X135794091Y-58892517D01*
X135775747Y-58843334D01*
X135770762Y-58773643D01*
X135775747Y-58756665D01*
X135794089Y-58707488D01*
X135794088Y-58707488D01*
X135794091Y-58707483D01*
X135800500Y-58647873D01*
X135800499Y-58152128D01*
X135794091Y-58092517D01*
X135794089Y-58092511D01*
X135775747Y-58043334D01*
X135770762Y-57973643D01*
X135775747Y-57956665D01*
X135794089Y-57907488D01*
X135794088Y-57907488D01*
X135794091Y-57907483D01*
X135800500Y-57847873D01*
X135800499Y-57352128D01*
X135794091Y-57292517D01*
X135775747Y-57243334D01*
X135770762Y-57173643D01*
X135775747Y-57156665D01*
X135791614Y-57114125D01*
X135794091Y-57107483D01*
X135800500Y-57047873D01*
X135800499Y-56552128D01*
X135794091Y-56492517D01*
X135775747Y-56443334D01*
X135770762Y-56373643D01*
X135775747Y-56356665D01*
X135794089Y-56307488D01*
X135794088Y-56307488D01*
X135794091Y-56307483D01*
X135800500Y-56247873D01*
X135800499Y-55752128D01*
X135794091Y-55692517D01*
X135775480Y-55642618D01*
X135770495Y-55572927D01*
X135775480Y-55555949D01*
X135793597Y-55507375D01*
X135793598Y-55507372D01*
X135799999Y-55447844D01*
X135800000Y-55447827D01*
X135800000Y-55400000D01*
X135642107Y-55400000D01*
X135575068Y-55380315D01*
X135567796Y-55375267D01*
X135542331Y-55356204D01*
X135542328Y-55356202D01*
X135407482Y-55305908D01*
X135407483Y-55305908D01*
X135347883Y-55299501D01*
X135347881Y-55299500D01*
X135347873Y-55299500D01*
X135347865Y-55299500D01*
X134997609Y-55299500D01*
X134973421Y-55297118D01*
X134969308Y-55296300D01*
X134969307Y-55296300D01*
X133802682Y-55296300D01*
X133735643Y-55276615D01*
X133689888Y-55223811D01*
X133679944Y-55154653D01*
X133708969Y-55091097D01*
X133722583Y-55077642D01*
X133730563Y-55070888D01*
X133765687Y-55050117D01*
X133823869Y-54991934D01*
X133827803Y-54988606D01*
X133855219Y-54976471D01*
X133881543Y-54962098D01*
X133886839Y-54962476D01*
X133891695Y-54960328D01*
X133921323Y-54964942D01*
X133951235Y-54967082D01*
X133956410Y-54970407D01*
X133960732Y-54971081D01*
X133969336Y-54978715D01*
X133995583Y-54995583D01*
X134000000Y-55000000D01*
X135800000Y-55000000D01*
X135800000Y-54952172D01*
X135799999Y-54952155D01*
X135793597Y-54892622D01*
X135793597Y-54892621D01*
X135775214Y-54843335D01*
X135770228Y-54773644D01*
X135775214Y-54756665D01*
X135793597Y-54707378D01*
X135793597Y-54707377D01*
X135799999Y-54647844D01*
X135800000Y-54647827D01*
X135800000Y-54524499D01*
X135819685Y-54457460D01*
X135872489Y-54411705D01*
X135923996Y-54400499D01*
X136247872Y-54400499D01*
X136307483Y-54394091D01*
X136356665Y-54375746D01*
X136426355Y-54370761D01*
X136443333Y-54375747D01*
X136492508Y-54394088D01*
X136492511Y-54394089D01*
X136492517Y-54394091D01*
X136552127Y-54400500D01*
X137047872Y-54400499D01*
X137107483Y-54394091D01*
X137156665Y-54375746D01*
X137226355Y-54370761D01*
X137243333Y-54375747D01*
X137292508Y-54394088D01*
X137292511Y-54394089D01*
X137292517Y-54394091D01*
X137352127Y-54400500D01*
X137847872Y-54400499D01*
X137907483Y-54394091D01*
X137956665Y-54375746D01*
X138026355Y-54370761D01*
X138043333Y-54375747D01*
X138092508Y-54394088D01*
X138092511Y-54394089D01*
X138092517Y-54394091D01*
X138152127Y-54400500D01*
X138647872Y-54400499D01*
X138707483Y-54394091D01*
X138756665Y-54375746D01*
X138826355Y-54370761D01*
X138843333Y-54375747D01*
X138892508Y-54394088D01*
X138892511Y-54394089D01*
X138892517Y-54394091D01*
X138952127Y-54400500D01*
X139447872Y-54400499D01*
X139507483Y-54394091D01*
X139556665Y-54375746D01*
X139626355Y-54370761D01*
X139643333Y-54375747D01*
X139692508Y-54394088D01*
X139692511Y-54394089D01*
X139692517Y-54394091D01*
X139752127Y-54400500D01*
X140247872Y-54400499D01*
X140307483Y-54394091D01*
X140356665Y-54375746D01*
X140426355Y-54370761D01*
X140443333Y-54375747D01*
X140492508Y-54394088D01*
X140492511Y-54394089D01*
X140492517Y-54394091D01*
X140552127Y-54400500D01*
X141047872Y-54400499D01*
X141107483Y-54394091D01*
X141156665Y-54375746D01*
X141226355Y-54370761D01*
X141243333Y-54375747D01*
X141292508Y-54394088D01*
X141292511Y-54394089D01*
X141292517Y-54394091D01*
X141352127Y-54400500D01*
X141847872Y-54400499D01*
X141907483Y-54394091D01*
X141956665Y-54375746D01*
X142026355Y-54370761D01*
X142043333Y-54375747D01*
X142092508Y-54394088D01*
X142092511Y-54394089D01*
X142092517Y-54394091D01*
X142152127Y-54400500D01*
X142647872Y-54400499D01*
X142707483Y-54394091D01*
X142756665Y-54375746D01*
X142826355Y-54370761D01*
X142843333Y-54375747D01*
X142892508Y-54394088D01*
X142892511Y-54394089D01*
X142892517Y-54394091D01*
X142952127Y-54400500D01*
X143447872Y-54400499D01*
X143507483Y-54394091D01*
X143556665Y-54375746D01*
X143626355Y-54370761D01*
X143643333Y-54375747D01*
X143692508Y-54394088D01*
X143692511Y-54394089D01*
X143692517Y-54394091D01*
X143752127Y-54400500D01*
X144247872Y-54400499D01*
X144307483Y-54394091D01*
X144356665Y-54375746D01*
X144426355Y-54370761D01*
X144443333Y-54375747D01*
X144492508Y-54394088D01*
X144492511Y-54394089D01*
X144492517Y-54394091D01*
X144552127Y-54400500D01*
X145047872Y-54400499D01*
X145107483Y-54394091D01*
X145157382Y-54375479D01*
X145227069Y-54370494D01*
X145244048Y-54375479D01*
X145292628Y-54393598D01*
X145292627Y-54393598D01*
X145352155Y-54399999D01*
X145352172Y-54400000D01*
X145400000Y-54400000D01*
X145400000Y-54242106D01*
X145419685Y-54175067D01*
X145424734Y-54167794D01*
X145443796Y-54142331D01*
X145444358Y-54140826D01*
X145462375Y-54092517D01*
X145494091Y-54007483D01*
X145500500Y-53947873D01*
X145500499Y-53623997D01*
X145503049Y-53615313D01*
X145501761Y-53606353D01*
X145512738Y-53582316D01*
X145520183Y-53556961D01*
X145527025Y-53551032D01*
X145530786Y-53542797D01*
X145553017Y-53528510D01*
X145572987Y-53511206D01*
X145583502Y-53508918D01*
X145589564Y-53505023D01*
X145624499Y-53500000D01*
X145676000Y-53500000D01*
X145743039Y-53519685D01*
G37*
%TD.AperFunction*%
%TA.AperFunction,Conductor*%
G36*
X132288378Y-59294879D02*
G01*
X132321803Y-59297270D01*
X132323036Y-59298193D01*
X132324571Y-59298340D01*
X132350912Y-59319060D01*
X132377737Y-59339141D01*
X132378574Y-59340820D01*
X132379487Y-59341538D01*
X132395655Y-59372910D01*
X132396680Y-59375873D01*
X132437506Y-59516395D01*
X132456275Y-59548131D01*
X132460363Y-59559948D01*
X132463679Y-59629739D01*
X132449912Y-59663608D01*
X132437968Y-59683804D01*
X132395496Y-59830000D01*
X132701648Y-59830000D01*
X132764766Y-59847267D01*
X132773605Y-59852494D01*
X132773608Y-59852494D01*
X132773610Y-59852496D01*
X132929002Y-59897642D01*
X132929005Y-59897642D01*
X132929007Y-59897643D01*
X132965310Y-59900500D01*
X132965318Y-59900500D01*
X133076000Y-59900500D01*
X133084685Y-59903050D01*
X133093647Y-59901762D01*
X133117687Y-59912740D01*
X133143039Y-59920185D01*
X133148966Y-59927025D01*
X133157203Y-59930787D01*
X133171492Y-59953021D01*
X133188794Y-59972989D01*
X133191081Y-59983503D01*
X133194977Y-59989565D01*
X133200000Y-60024500D01*
X133200000Y-60206000D01*
X133180315Y-60273039D01*
X133127511Y-60318794D01*
X133076000Y-60330000D01*
X132395496Y-60330000D01*
X132437968Y-60476195D01*
X132520278Y-60615374D01*
X132520285Y-60615383D01*
X132634616Y-60729714D01*
X132634625Y-60729721D01*
X132773804Y-60812031D01*
X132773807Y-60812032D01*
X132803822Y-60820752D01*
X132862709Y-60858357D01*
X132891917Y-60921829D01*
X132882172Y-60991015D01*
X132856911Y-61027510D01*
X132499275Y-61385146D01*
X132437952Y-61418631D01*
X132368260Y-61413647D01*
X132312327Y-61371775D01*
X132300506Y-61352561D01*
X132287691Y-61326723D01*
X132167634Y-61177366D01*
X132167633Y-61177365D01*
X132018274Y-61057307D01*
X132018275Y-61057307D01*
X131846602Y-60972165D01*
X131660638Y-60925918D01*
X131660642Y-60925918D01*
X131617605Y-60923000D01*
X131410000Y-60923000D01*
X131410000Y-61896184D01*
X131393940Y-61880124D01*
X131307061Y-61829964D01*
X131210160Y-61804000D01*
X131109840Y-61804000D01*
X131012939Y-61829964D01*
X130926060Y-61880124D01*
X130910000Y-61896184D01*
X130910000Y-60923000D01*
X130702394Y-60923000D01*
X130702390Y-60923001D01*
X130659367Y-60925917D01*
X130659365Y-60925917D01*
X130473397Y-60972165D01*
X130301724Y-61057307D01*
X130152366Y-61177365D01*
X130152365Y-61177366D01*
X130032307Y-61326724D01*
X129947166Y-61498396D01*
X129944835Y-61507771D01*
X129909552Y-61568078D01*
X129847267Y-61599736D01*
X129777753Y-61592695D01*
X129723081Y-61549189D01*
X129700609Y-61483032D01*
X129700500Y-61477844D01*
X129700500Y-59800280D01*
X129720185Y-59733241D01*
X129772989Y-59687486D01*
X129842147Y-59677542D01*
X129893391Y-59697178D01*
X130018212Y-59780581D01*
X130018211Y-59780581D01*
X130018217Y-59780584D01*
X130105612Y-59827297D01*
X130244287Y-59884738D01*
X130339116Y-59913504D01*
X130486333Y-59942787D01*
X130584950Y-59952500D01*
X130616355Y-59952500D01*
X130634001Y-59953762D01*
X130660000Y-59957500D01*
X130660003Y-59957500D01*
X131295002Y-59957500D01*
X131300688Y-59957195D01*
X131349042Y-59954603D01*
X131377101Y-59951586D01*
X131377106Y-59951585D01*
X131377115Y-59951584D01*
X131396120Y-59948503D01*
X131430511Y-59942931D01*
X131565319Y-59892650D01*
X131630598Y-59857005D01*
X131745780Y-59770780D01*
X132190789Y-59325771D01*
X132192141Y-59325032D01*
X132192912Y-59323698D01*
X132222708Y-59308341D01*
X132252112Y-59292286D01*
X132253648Y-59292395D01*
X132255018Y-59291690D01*
X132288378Y-59294879D01*
G37*
%TD.AperFunction*%
%TA.AperFunction,Conductor*%
G36*
X151642539Y-46920185D02*
G01*
X151688294Y-46972989D01*
X151699500Y-47024500D01*
X151699500Y-55139693D01*
X151679815Y-55206732D01*
X151627011Y-55252487D01*
X151557853Y-55262431D01*
X151494297Y-55233406D01*
X151487819Y-55227374D01*
X151482466Y-55222021D01*
X151482464Y-55222019D01*
X151321694Y-55105213D01*
X151293990Y-55091097D01*
X151144632Y-55014994D01*
X151144629Y-55014993D01*
X150955637Y-54953587D01*
X150842601Y-54935684D01*
X150759361Y-54922500D01*
X150560639Y-54922500D01*
X150495214Y-54932862D01*
X150364362Y-54953587D01*
X150175370Y-55014993D01*
X150175367Y-55014994D01*
X149998305Y-55105213D01*
X149837533Y-55222021D01*
X149697021Y-55362533D01*
X149580213Y-55523305D01*
X149489994Y-55700367D01*
X149489993Y-55700370D01*
X149428587Y-55889362D01*
X149397500Y-56085639D01*
X149397500Y-56284361D01*
X149397499Y-56284361D01*
X149425314Y-56459979D01*
X149416359Y-56529272D01*
X149390522Y-56567057D01*
X149021400Y-56936181D01*
X148960077Y-56969666D01*
X148933719Y-56972500D01*
X147724500Y-56972500D01*
X147657461Y-56952815D01*
X147611706Y-56900011D01*
X147600500Y-56848500D01*
X147600499Y-56552130D01*
X147600498Y-56552123D01*
X147596737Y-56517134D01*
X147594091Y-56492517D01*
X147575747Y-56443334D01*
X147570762Y-56373643D01*
X147575747Y-56356665D01*
X147594089Y-56307488D01*
X147594088Y-56307488D01*
X147594091Y-56307483D01*
X147600500Y-56247873D01*
X147600499Y-55752128D01*
X147594091Y-55692517D01*
X147575747Y-55643334D01*
X147570762Y-55573643D01*
X147575747Y-55556665D01*
X147594089Y-55507488D01*
X147594088Y-55507488D01*
X147594091Y-55507483D01*
X147600500Y-55447873D01*
X147600499Y-54952128D01*
X147594091Y-54892517D01*
X147575747Y-54843334D01*
X147570762Y-54773643D01*
X147575747Y-54756665D01*
X147594089Y-54707488D01*
X147594088Y-54707488D01*
X147594091Y-54707483D01*
X147600500Y-54647873D01*
X147600499Y-54152128D01*
X147594091Y-54092517D01*
X147575747Y-54043334D01*
X147570762Y-53973643D01*
X147575747Y-53956665D01*
X147594089Y-53907488D01*
X147594091Y-53907483D01*
X147600500Y-53847873D01*
X147600499Y-53052128D01*
X147594091Y-52992517D01*
X147566158Y-52917626D01*
X147543797Y-52857671D01*
X147543793Y-52857664D01*
X147457547Y-52742455D01*
X147457546Y-52742454D01*
X147449685Y-52736569D01*
X147407816Y-52680633D01*
X147400000Y-52637305D01*
X147400000Y-47400000D01*
X134200000Y-47400000D01*
X134200000Y-52637305D01*
X134180315Y-52704344D01*
X134172799Y-52714803D01*
X134162938Y-52727119D01*
X134142454Y-52742454D01*
X134056204Y-52857669D01*
X134054272Y-52862847D01*
X134044640Y-52874879D01*
X134024573Y-52888906D01*
X134007259Y-52906218D01*
X133996445Y-52908569D01*
X133987375Y-52914910D01*
X133962909Y-52915861D01*
X133938985Y-52921064D01*
X133928616Y-52917195D01*
X133917558Y-52917626D01*
X133896463Y-52905200D01*
X133873522Y-52896642D01*
X133860160Y-52885062D01*
X133765383Y-52790285D01*
X133765374Y-52790278D01*
X133626195Y-52707968D01*
X133626190Y-52707966D01*
X133470918Y-52662855D01*
X133470912Y-52662854D01*
X133450000Y-52661209D01*
X133450000Y-53316000D01*
X133430315Y-53383039D01*
X133377511Y-53428794D01*
X133326000Y-53440000D01*
X133200000Y-53440000D01*
X133200000Y-53495500D01*
X133180315Y-53562539D01*
X133127511Y-53608294D01*
X133076000Y-53619500D01*
X132965302Y-53619500D01*
X132929008Y-53622356D01*
X132929002Y-53622357D01*
X132773610Y-53667503D01*
X132773605Y-53667506D01*
X132764766Y-53672732D01*
X132748867Y-53677082D01*
X132736583Y-53684977D01*
X132701648Y-53690000D01*
X132498352Y-53690000D01*
X132435233Y-53672732D01*
X132426395Y-53667506D01*
X132426393Y-53667505D01*
X132426389Y-53667503D01*
X132270997Y-53622357D01*
X132270991Y-53622356D01*
X132234697Y-53619500D01*
X132234690Y-53619500D01*
X131765310Y-53619500D01*
X131765302Y-53619500D01*
X131729008Y-53622356D01*
X131729002Y-53622357D01*
X131573610Y-53667503D01*
X131573605Y-53667506D01*
X131564766Y-53672732D01*
X131548867Y-53677082D01*
X131536583Y-53684977D01*
X131501648Y-53690000D01*
X131298352Y-53690000D01*
X131235233Y-53672732D01*
X131226395Y-53667506D01*
X131226393Y-53667505D01*
X131226389Y-53667503D01*
X131070997Y-53622357D01*
X131070991Y-53622356D01*
X131034697Y-53619500D01*
X131034690Y-53619500D01*
X130565310Y-53619500D01*
X130565302Y-53619500D01*
X130529008Y-53622356D01*
X130529002Y-53622357D01*
X130373610Y-53667503D01*
X130373605Y-53667506D01*
X130364766Y-53672732D01*
X130301648Y-53690000D01*
X129995496Y-53690000D01*
X130037968Y-53836194D01*
X130049911Y-53856389D01*
X130067092Y-53924113D01*
X130049911Y-53982628D01*
X130037506Y-54003604D01*
X130037504Y-54003609D01*
X129992357Y-54159002D01*
X129992356Y-54159008D01*
X129989500Y-54195302D01*
X129989500Y-54604697D01*
X129992356Y-54640991D01*
X129992357Y-54640997D01*
X130037504Y-54796390D01*
X130037505Y-54796393D01*
X130119881Y-54935684D01*
X130119887Y-54935692D01*
X130234307Y-55050112D01*
X130234311Y-55050115D01*
X130234313Y-55050117D01*
X130373605Y-55132494D01*
X130398384Y-55139693D01*
X130529002Y-55177642D01*
X130529005Y-55177642D01*
X130529007Y-55177643D01*
X130564126Y-55180406D01*
X130629413Y-55205288D01*
X130670885Y-55261518D01*
X130675374Y-55331243D01*
X130653203Y-55378948D01*
X130616080Y-55427902D01*
X130560613Y-55568556D01*
X130550000Y-55656946D01*
X130550000Y-55800000D01*
X131071499Y-55800000D01*
X131080184Y-55802550D01*
X131089146Y-55801262D01*
X131113186Y-55812240D01*
X131138538Y-55819685D01*
X131144465Y-55826525D01*
X131152702Y-55830287D01*
X131166991Y-55852521D01*
X131184293Y-55872489D01*
X131186580Y-55883003D01*
X131190476Y-55889065D01*
X131195499Y-55924000D01*
X131195499Y-56076000D01*
X131175814Y-56143039D01*
X131123010Y-56188794D01*
X131071499Y-56200000D01*
X130550000Y-56200000D01*
X130550000Y-56343053D01*
X130560613Y-56431443D01*
X130616079Y-56572095D01*
X130707435Y-56692564D01*
X130827904Y-56783920D01*
X130968556Y-56839386D01*
X131056955Y-56850001D01*
X131060645Y-56850222D01*
X131060591Y-56851121D01*
X131123810Y-56869685D01*
X131169565Y-56922489D01*
X131179509Y-56991647D01*
X131150484Y-57055203D01*
X131144452Y-57061681D01*
X130829953Y-57376181D01*
X130804954Y-57389831D01*
X130781573Y-57406107D01*
X130772421Y-57407595D01*
X130768630Y-57409666D01*
X130746847Y-57412416D01*
X130744572Y-57412500D01*
X130660000Y-57412500D01*
X130615766Y-57417255D01*
X130611427Y-57417416D01*
X130610902Y-57417282D01*
X130606852Y-57417500D01*
X130584950Y-57417500D01*
X130567508Y-57419217D01*
X130486344Y-57427211D01*
X130486342Y-57427211D01*
X130339123Y-57456494D01*
X130244285Y-57485262D01*
X130105618Y-57542700D01*
X130105611Y-57542703D01*
X130018211Y-57589418D01*
X129893391Y-57672821D01*
X129826713Y-57693699D01*
X129759333Y-57675214D01*
X129712643Y-57623235D01*
X129700500Y-57569719D01*
X129700500Y-53190000D01*
X129995496Y-53190000D01*
X130550000Y-53190000D01*
X130550000Y-52661210D01*
X130549999Y-52661209D01*
X131050000Y-52661209D01*
X131050000Y-53190000D01*
X131750000Y-53190000D01*
X131750000Y-52661210D01*
X131749999Y-52661209D01*
X132250000Y-52661209D01*
X132250000Y-53190000D01*
X132950000Y-53190000D01*
X132950000Y-52661210D01*
X132949999Y-52661209D01*
X132929087Y-52662854D01*
X132929081Y-52662855D01*
X132773809Y-52707966D01*
X132773804Y-52707968D01*
X132663121Y-52773426D01*
X132595397Y-52790609D01*
X132536879Y-52773426D01*
X132426195Y-52707968D01*
X132426190Y-52707966D01*
X132270918Y-52662855D01*
X132270912Y-52662854D01*
X132250000Y-52661209D01*
X131749999Y-52661209D01*
X131729087Y-52662854D01*
X131729081Y-52662855D01*
X131573809Y-52707966D01*
X131573804Y-52707968D01*
X131463121Y-52773426D01*
X131395397Y-52790609D01*
X131336879Y-52773426D01*
X131226195Y-52707968D01*
X131226190Y-52707966D01*
X131070918Y-52662855D01*
X131070912Y-52662854D01*
X131050000Y-52661209D01*
X130549999Y-52661209D01*
X130529087Y-52662854D01*
X130529081Y-52662855D01*
X130373809Y-52707966D01*
X130373804Y-52707968D01*
X130234625Y-52790278D01*
X130234616Y-52790285D01*
X130120285Y-52904616D01*
X130120278Y-52904625D01*
X130037968Y-53043804D01*
X129995496Y-53190000D01*
X129700500Y-53190000D01*
X129700500Y-47024500D01*
X129720185Y-46957461D01*
X129772989Y-46911706D01*
X129824500Y-46900500D01*
X151575500Y-46900500D01*
X151642539Y-46920185D01*
G37*
%TD.AperFunction*%
%TD*%
%TA.AperFunction,Conductor*%
%TO.N,/Buck_Coil*%
G36*
X136321821Y-88780688D02*
G01*
X136348392Y-88794452D01*
X136356521Y-88800000D01*
X136356522Y-88800000D01*
X137876000Y-88800000D01*
X137943039Y-88819685D01*
X137988794Y-88872489D01*
X138000000Y-88924000D01*
X138000000Y-89600000D01*
X141019486Y-89600000D01*
X141086525Y-89619685D01*
X141088377Y-89620898D01*
X141220814Y-89709390D01*
X141220827Y-89709397D01*
X141366498Y-89769735D01*
X141366503Y-89769737D01*
X141521153Y-89800499D01*
X141521156Y-89800500D01*
X141521158Y-89800500D01*
X141678844Y-89800500D01*
X141749501Y-89786444D01*
X141782490Y-89779882D01*
X141806681Y-89777500D01*
X142443691Y-89777500D01*
X142510730Y-89797185D01*
X142531372Y-89813819D01*
X142535629Y-89818076D01*
X142535633Y-89818079D01*
X142535635Y-89818081D01*
X142677102Y-89901744D01*
X142718724Y-89913836D01*
X142834926Y-89947597D01*
X142834929Y-89947597D01*
X142834931Y-89947598D01*
X142871806Y-89950500D01*
X142871814Y-89950500D01*
X144028186Y-89950500D01*
X144028194Y-89950500D01*
X144065069Y-89947598D01*
X144065070Y-89947597D01*
X144066271Y-89947503D01*
X144134648Y-89961867D01*
X144184405Y-90010918D01*
X144200000Y-90071121D01*
X144200000Y-90476000D01*
X144180315Y-90543039D01*
X144127511Y-90588794D01*
X144076000Y-90600000D01*
X142580514Y-90600000D01*
X142513475Y-90580315D01*
X142511623Y-90579102D01*
X142379185Y-90490609D01*
X142379172Y-90490602D01*
X142233501Y-90430264D01*
X142233489Y-90430261D01*
X142078845Y-90399500D01*
X142078842Y-90399500D01*
X141921158Y-90399500D01*
X141921155Y-90399500D01*
X141766510Y-90430261D01*
X141766498Y-90430264D01*
X141620827Y-90490602D01*
X141620814Y-90490609D01*
X141488377Y-90579102D01*
X141421700Y-90599980D01*
X141419486Y-90600000D01*
X138000000Y-90600000D01*
X138000000Y-92876000D01*
X137980315Y-92943039D01*
X137927511Y-92988794D01*
X137876000Y-93000000D01*
X136200000Y-93000000D01*
X136180514Y-93000000D01*
X136162368Y-92994671D01*
X136143460Y-92994334D01*
X136115244Y-92980834D01*
X136113475Y-92980315D01*
X136111623Y-92979102D01*
X136055109Y-92941340D01*
X136010304Y-92887727D01*
X136000000Y-92838238D01*
X136000000Y-88924000D01*
X136019685Y-88856961D01*
X136072489Y-88811206D01*
X136124000Y-88800000D01*
X136207639Y-88800000D01*
X136252130Y-88775705D01*
X136321821Y-88780688D01*
G37*
%TD.AperFunction*%
%TD*%
%TA.AperFunction,Conductor*%
%TO.N,+BATT*%
G36*
X147058963Y-99498085D02*
G01*
X147122701Y-99504796D01*
X147177201Y-99548517D01*
X147199411Y-99614763D01*
X147199500Y-99619461D01*
X147199500Y-99678846D01*
X147230261Y-99833489D01*
X147230264Y-99833501D01*
X147290602Y-99979172D01*
X147290609Y-99979185D01*
X147378210Y-100110288D01*
X147378213Y-100110292D01*
X147489707Y-100221786D01*
X147489711Y-100221789D01*
X147620814Y-100309390D01*
X147620827Y-100309397D01*
X147754818Y-100364897D01*
X147766503Y-100369737D01*
X147916131Y-100399500D01*
X147921153Y-100400499D01*
X147921156Y-100400500D01*
X147921158Y-100400500D01*
X148078844Y-100400500D01*
X148078845Y-100400499D01*
X148233497Y-100369737D01*
X148302655Y-100341090D01*
X148372122Y-100333622D01*
X148434601Y-100364897D01*
X148466288Y-100412319D01*
X148471770Y-100427018D01*
X148471772Y-100427021D01*
X148557910Y-100542087D01*
X148557920Y-100542099D01*
X149004140Y-100988319D01*
X149037625Y-101049642D01*
X149032641Y-101119334D01*
X148990769Y-101175267D01*
X148925305Y-101199684D01*
X148916459Y-101200000D01*
X148187314Y-101200000D01*
X148153932Y-101218227D01*
X148084241Y-101213241D01*
X148062480Y-101202599D01*
X147958486Y-101138454D01*
X147958481Y-101138452D01*
X147797606Y-101085144D01*
X147698322Y-101075000D01*
X147650000Y-101075000D01*
X147650000Y-101901000D01*
X147630315Y-101968039D01*
X147577511Y-102013794D01*
X147526000Y-102025000D01*
X147274000Y-102025000D01*
X147206961Y-102005315D01*
X147161206Y-101952511D01*
X147150000Y-101901000D01*
X147150000Y-101075000D01*
X147149999Y-101074999D01*
X147101693Y-101075000D01*
X147101675Y-101075001D01*
X147002392Y-101085144D01*
X146841518Y-101138452D01*
X146841513Y-101138454D01*
X146748170Y-101196030D01*
X146680778Y-101214470D01*
X146614114Y-101193548D01*
X146569344Y-101139906D01*
X146560683Y-101070575D01*
X146576341Y-101027369D01*
X146601284Y-100985193D01*
X146647099Y-100827495D01*
X146647100Y-100827489D01*
X146649999Y-100790649D01*
X146650000Y-100790634D01*
X146650000Y-100387500D01*
X145974000Y-100387500D01*
X145906961Y-100367815D01*
X145861206Y-100315011D01*
X145850000Y-100263500D01*
X145850000Y-100011500D01*
X145869685Y-99944461D01*
X145922489Y-99898706D01*
X145974000Y-99887500D01*
X146650000Y-99887500D01*
X146650000Y-99624500D01*
X146669685Y-99557461D01*
X146722489Y-99511706D01*
X146774000Y-99500500D01*
X147015686Y-99500500D01*
X147015694Y-99500500D01*
X147052569Y-99497598D01*
X147052570Y-99497597D01*
X147053215Y-99497480D01*
X147053580Y-99497518D01*
X147058886Y-99497101D01*
X147058963Y-99498085D01*
G37*
%TD.AperFunction*%
%TD*%
%TA.AperFunction,Conductor*%
%TO.N,+3V3*%
G36*
X134343039Y-84819685D02*
G01*
X134388794Y-84872489D01*
X134400000Y-84924000D01*
X134400000Y-85930345D01*
X134380315Y-85997384D01*
X134327511Y-86043139D01*
X134258353Y-86053083D01*
X134223606Y-86042732D01*
X134219128Y-86040644D01*
X134052697Y-85985494D01*
X134052690Y-85985493D01*
X133949986Y-85975000D01*
X133900000Y-85975000D01*
X133900000Y-88370000D01*
X134001000Y-88370000D01*
X134068039Y-88389685D01*
X134113794Y-88442489D01*
X134125000Y-88494000D01*
X134125000Y-90676000D01*
X134105315Y-90743039D01*
X134052511Y-90788794D01*
X134001000Y-90800000D01*
X133749000Y-90800000D01*
X133681961Y-90780315D01*
X133636206Y-90727511D01*
X133625000Y-90676000D01*
X133625000Y-88555000D01*
X133524000Y-88555000D01*
X133456961Y-88535315D01*
X133411206Y-88482511D01*
X133400000Y-88431000D01*
X133400000Y-85975000D01*
X133399999Y-85974999D01*
X133350029Y-85975000D01*
X133350011Y-85975001D01*
X133247302Y-85985494D01*
X133163004Y-86013428D01*
X133093176Y-86015830D01*
X133033134Y-85980098D01*
X133001941Y-85917578D01*
X133000000Y-85895722D01*
X133000000Y-84924000D01*
X133019685Y-84856961D01*
X133072489Y-84811206D01*
X133124000Y-84800000D01*
X134276000Y-84800000D01*
X134343039Y-84819685D01*
G37*
%TD.AperFunction*%
%TD*%
M02*
